{
.appVersion = "1271";
classes = (
{

glyphs = (
{
glyphname = .notdef;
lastChange = "2019-12-12 03:39:53 +0000";
layers = (
{
layerId = "926CF2F4-31F1-4036-BA3C-0F7EE51EF36A";
paths = (
{
closed = 1;
nodes = (
"408 807 LINE",
"408 93 LINE",
"819 93 LINE",
"819 807 LINE"
);
},
{
closed = 1;
nodes = (
"459 144 LINE",
"459 756 LINE",
"768 756 LINE",
"768 144 LINE"
);
}
);
width = 1229;
},
{
layerId = "639D56B4-59BE-4993-85FD-8F80ECD3B0F6";
paths = (
{
closed = 1;
nodes = (
"408 807 LINE",
"408 93 LINE",
"819 93 LINE",
"819 807 LINE"
);
},
{
closed = 1;
nodes = (
"459 144 LINE",
"459 756 LINE",
"768 756 LINE",
"768 144 LINE"
);
}
);
width = 1229;
},
{
layerId = "EAF3E1E9-0001-42EF-B2A4-765526B8C83B";
paths = (
{
closed = 1;
nodes = (
"408 807 LINE",
"408 93 LINE",
"819 93 LINE",
"819 807 LINE"
);
},
{
closed = 1;
nodes = (
"459 144 LINE",
"459 756 LINE",
"768 756 LINE",
"768 144 LINE"
);
}
);
width = 1229;
},
{
layerId = "A6029D4D-1571-45DB-86AE-EDC9D2308E6F";
paths = (
{
closed = 1;
nodes = (
"408 807 LINE",
"408 93 LINE",
"819 93 LINE",
"819 807 LINE"
);
},
{
closed = 1;
nodes = (
"459 144 LINE",
"459 756 LINE",
"768 756 LINE",
"768 144 LINE"
);
}
);
width = 1229;
}
);
note = .notdef;
},
{
glyphname = "candraBindu-oriya";
lastChange = "2019-12-12 03:39:53 +0000";
layers = (
{
anchors = (
{
name = _topright;
position = "{400, 751}";
}
);
layerId = "926CF2F4-31F1-4036-BA3C-0F7EE51EF36A";
paths = (
{
closed = 1;
nodes = (
"399 797 LINE",
"497 797 OFFCURVE",
"562 859 OFFCURVE",
"573 963 CURVE",
"547 966 LINE",
"536 874 OFFCURVE",
"481 820 OFFCURVE",
"398 820 CURVE",
"317 820 OFFCURVE",
"263 874 OFFCURVE",
"254 966 CURVE",
"228 963 LINE",
"238 859 OFFCURVE",
"302 797 OFFCURVE",
"399 797 CURVE"
);
},
{
closed = 1;
nodes = (
"399 909 LINE",
"412 909 OFFCURVE",
"422 919 OFFCURVE",
"422 932 CURVE",
"422 946 OFFCURVE",
"411 956 OFFCURVE",
"399 956 CURVE",
"386 956 OFFCURVE",
"375 946 OFFCURVE",
"375 932 CURVE",
"375 919 OFFCURVE",
"385 909 OFFCURVE",
"399 909 CURVE"
);
}
);
width = 800;
},
{
anchors = (
{
name = _topright;
position = "{400, 751}";
}
);
layerId = "639D56B4-59BE-4993-85FD-8F80ECD3B0F6";
paths = (
{
closed = 1;
nodes = (
"400 771 LINE",
"524 771 OFFCURVE",
"612 849 OFFCURVE",
"629 1013 CURVE",
"512 1026 LINE",
"493 921 OFFCURVE",
"461 879 OFFCURVE",
"400 879 CURVE",
"338 879 OFFCURVE",
"307 921 OFFCURVE",
"290 1026 CURVE",
"171 1013 LINE",
"188 849 OFFCURVE",
"276 771 OFFCURVE",
"400 771 CURVE"
);
},
{
closed = 1;
nodes = (
"400 917 LINE",
"438 917 OFFCURVE",
"462 939 OFFCURVE",
"462 982 CURVE",
"462 1022 OFFCURVE",
"438 1043 OFFCURVE",
"400 1043 CURVE",
"363 1043 OFFCURVE",
"338 1022 OFFCURVE",
"338 982 CURVE",
"338 941 OFFCURVE",
"363 917 OFFCURVE",
"400 917 CURVE"
);
}
);
width = 800;
},
{
anchors = (
{
name = _topright;
position = "{300, 751}";
}
);
guideLines = (
{
position = "{31, 814}";
}
);
layerId = "EAF3E1E9-0001-42EF-B2A4-765526B8C83B";
paths = (
{
closed = 1;
nodes = (
"298 797 LINE",
"373 797 OFFCURVE",
"422 859 OFFCURVE",
"430 963 CURVE",
"405 966 LINE",
"398 875 OFFCURVE",
"358 821 OFFCURVE",
"298 821 CURVE",
"239 821 OFFCURVE",
"200 875 OFFCURVE",
"194 966 CURVE",
"169 963 LINE",
"176 859 OFFCURVE",
"225 797 OFFCURVE",
"298 797 CURVE"
);
},
{
closed = 1;
nodes = (
"298 909 LINE",
"309 909 OFFCURVE",
"316 918 OFFCURVE",
"316 932 CURVE",
"316 946 OFFCURVE",
"309 956 OFFCURVE",
"298 956 CURVE",
"287 956 OFFCURVE",
"280 946 OFFCURVE",
"280 932 CURVE",
"280 918 OFFCURVE",
"287 909 OFFCURVE",
"298 909 CURVE"
);
}
);
width = 600;
},
{
anchors = (
{
name = _topright;
position = "{300, 751}";
}
);
layerId = "A6029D4D-1571-45DB-86AE-EDC9D2308E6F";
paths = (
{
closed = 1;
nodes = (
"300 771 LINE",
"413 771 OFFCURVE",
"483 861 OFFCURVE",
"490 1017 CURVE",
"395 1026 LINE",
"391 917 OFFCURVE",
"354 871 OFFCURVE",
"300 871 CURVE",
"246 871 OFFCURVE",
"208 917 OFFCURVE",
"204 1026 CURVE",
"109 1017 LINE",
"116 861 OFFCURVE",
"186 771 OFFCURVE",
"300 771 CURVE"
);
},
{
closed = 1;
nodes = (
"300 917 LINE",
"331 917 OFFCURVE",
"352 942 OFFCURVE",
"352 980 CURVE",
"352 1018 OFFCURVE",
"331 1043 OFFCURVE",
"300 1043 CURVE",
"269 1043 OFFCURVE",
"248 1018 OFFCURVE",
"248 980 CURVE",
"248 942 OFFCURVE",
"269 917 OFFCURVE",
"300 917 CURVE"
);
}
);
width = 600;
},
{
anchors = (
{
name = _topright;
position = "{400, 751}";
}
);
associatedMasterId = "639D56B4-59BE-4993-85FD-8F80ECD3B0F6";
background = {
paths = (
{
closed = 1;
nodes = (
"462 952 OFFCURVE",
"438 973 OFFCURVE",
"400 973 CURVE SMOOTH",
"363 973 OFFCURVE",
"338 952 OFFCURVE",
"338 912 CURVE SMOOTH",
"338 871 OFFCURVE",
"363 847 OFFCURVE",
"400 847 CURVE SMOOTH",
"438 847 OFFCURVE",
"462 869 OFFCURVE",
"462 912 CURVE SMOOTH"
);
},
{
closed = 1;
nodes = (
"188 779 OFFCURVE",
"276 701 OFFCURVE",
"400 701 CURVE SMOOTH",
"524 701 OFFCURVE",
"612 779 OFFCURVE",
"629 943 CURVE",
"512 956 LINE",
"493 851 OFFCURVE",
"461 809 OFFCURVE",
"400 809 CURVE SMOOTH",
"338 809 OFFCURVE",
"307 851 OFFCURVE",
"290 956 CURVE",
"171 943 LINE"
);
}
);
};
layerId = "93B0C983-998E-404B-A218-1878817AA0E5";
name = "Black ]141]";
paths = (
{
closed = 1;
nodes = (
"400 771 LINE",
"524 771 OFFCURVE",
"612 851 OFFCURVE",
"629 1013 CURVE",
"501 1027 LINE",
"494 923 OFFCURVE",
"458 879 OFFCURVE",
"400 879 CURVE",
"342 879 OFFCURVE",
"306 923 OFFCURVE",
"299 1027 CURVE",
"171 1013 LINE",
"188 851 OFFCURVE",
"276 771 OFFCURVE",
"400 771 CURVE"
);
},
{
closed = 1;
nodes = (
"400 900 LINE",
"443 900 OFFCURVE",
"470 925 OFFCURVE",
"470 973 CURVE",
"470 1018 OFFCURVE",
"443 1042 OFFCURVE",
"400 1042 CURVE",
"358 1042 OFFCURVE",
"330 1018 OFFCURVE",
"330 973 CURVE",
"330 927 OFFCURVE",
"358 900 OFFCURVE",
"400 900 CURVE"
);
}
);
width = 800;
},
{
anchors = (
{
name = _topright;
position = "{300, 751}";
}
);
associatedMasterId = "A6029D4D-1571-45DB-86AE-EDC9D2308E6F";
background = {
paths = (
{
closed = 1;
nodes = (
"363 938 OFFCURVE",
"338 969 OFFCURVE",
"300 969 CURVE SMOOTH",
"262 969 OFFCURVE",
"237 938 OFFCURVE",
"237 892 CURVE SMOOTH",
"237 846 OFFCURVE",
"262 815 OFFCURVE",
"300 815 CURVE SMOOTH",
"338 815 OFFCURVE",
"363 846 OFFCURVE",
"363 892 CURVE SMOOTH"
);
},
{
closed = 1;
nodes = (
"120 783 OFFCURVE",
"189 701 OFFCURVE",
"300 701 CURVE SMOOTH",
"411 701 OFFCURVE",
"480 783 OFFCURVE",
"487 925 CURVE",
"387 939 LINE",
"383 840 OFFCURVE",
"357 798 OFFCURVE",
"300 798 CURVE SMOOTH",
"243 798 OFFCURVE",
"217 840 OFFCURVE",
"213 939 CURVE",
"113 925 LINE"
);
}
);
};
layerId = "1483E9E3-4C9C-4718-B8F6-A0209C2EB0F2";
name = "ExtraCondensed Black ]141]";
paths = (
{
closed = 1;
nodes = (
"300 771 LINE",
"413 771 OFFCURVE",
"483 861 OFFCURVE",
"490 1017 CURVE",
"385 1027 LINE",
"381 917 OFFCURVE",
"349 871 OFFCURVE",
"300 871 CURVE",
"250 871 OFFCURVE",
"217 917 OFFCURVE",
"214 1027 CURVE",
"109 1017 LINE",
"116 861 OFFCURVE",
"186 771 OFFCURVE",
"300 771 CURVE"
);
},
{
closed = 1;
nodes = (
"300 899 LINE",
"339 899 OFFCURVE",
"358 935 OFFCURVE",
"358 971 CURVE",
"358 1019 OFFCURVE",
"329 1043 OFFCURVE",
"300 1043 CURVE",
"271 1043 OFFCURVE",
"242 1019 OFFCURVE",
"242 971 CURVE",
"242 935 OFFCURVE",
"261 899 OFFCURVE",
"300 899 CURVE"
);
}
);
width = 600;
}
);
note = candrabinduorya;
unicode = 0B01;
},
{
glyphname = "anusvara-oriya";
lastChange = "2019-12-12 03:39:53 +0000";
layers = (
{
layerId = "926CF2F4-31F1-4036-BA3C-0F7EE51EF36A";
paths = (
{
closed = 1;
nodes = (
"142 521 LINE",
"213 521 OFFCURVE",
"263 568 OFFCURVE",
"263 638 CURVE",
"263 709 OFFCURVE",
"211 759 OFFCURVE",
"141 759 CURVE",
"70 759 OFFCURVE",
"20 709 OFFCURVE",
"20 641 CURVE",
"20 568 OFFCURVE",
"71 521 OFFCURVE",
"142 521 CURVE"
);
},
{
closed = 1;
nodes = (
"141 735 LINE",
"196 735 OFFCURVE",
"237 695 OFFCURVE",
"237 639 CURVE",
"237 585 OFFCURVE",
"196 546 OFFCURVE",
"141 546 CURVE",
"88 546 OFFCURVE",
"46 583 OFFCURVE",
"46 640 CURVE",
"46 693 OFFCURVE",
"84 735 OFFCURVE",
"141 735 CURVE"
);
}
);
width = 283;
},
{
layerId = "639D56B4-59BE-4993-85FD-8F80ECD3B0F6";
paths = (
{
closed = 1;
nodes = (
"171 457 LINE",
"267 457 OFFCURVE",
"331 519 OFFCURVE",
"331 608 CURVE",
"331 700 OFFCURVE",
"264 759 OFFCURVE",
"171 759 CURVE",
"74 759 OFFCURVE",
"10 697 OFFCURVE",
"10 608 CURVE",
"10 515 OFFCURVE",
"76 457 OFFCURVE",
"171 457 CURVE"
);
},
{
closed = 1;
nodes = (
"171 649 LINE",
"196 649 OFFCURVE",
"211 634 OFFCURVE",
"211 608 CURVE",
"211 584 OFFCURVE",
"197 567 OFFCURVE",
"171 567 CURVE",
"145 567 OFFCURVE",
"130 580 OFFCURVE",
"130 608 CURVE",
"130 632 OFFCURVE",
"143 649 OFFCURVE",
"171 649 CURVE"
);
}
);
width = 341;
},
{
layerId = "EAF3E1E9-0001-42EF-B2A4-765526B8C83B";
paths = (
{
closed = 1;
nodes = (
"108 521 LINE",
"165 521 OFFCURVE",
"205 568 OFFCURVE",
"205 638 CURVE",
"205 709 OFFCURVE",
"163 759 OFFCURVE",
"107 759 CURVE",
"50 759 OFFCURVE",
"10 709 OFFCURVE",
"10 639 CURVE",
"10 568 OFFCURVE",
"51 521 OFFCURVE",
"108 521 CURVE"
);
},
{
closed = 1;
nodes = (
"107 734 LINE",
"149 734 OFFCURVE",
"180 694 OFFCURVE",
"180 640 CURVE",
"180 585 OFFCURVE",
"148 546 OFFCURVE",
"107 546 CURVE",
"67 546 OFFCURVE",
"35 583 OFFCURVE",
"35 639 CURVE",
"35 692 OFFCURVE",
"64 734 OFFCURVE",
"107 734 CURVE"
);
}
);
width = 215;
},
{
layerId = "A6029D4D-1571-45DB-86AE-EDC9D2308E6F";
paths = (
{
closed = 1;
nodes = (
"136 457 LINE",
"217 457 OFFCURVE",
"271 517 OFFCURVE",
"271 608 CURVE",
"271 699 OFFCURVE",
"217 759 OFFCURVE",
"136 759 CURVE",
"54 759 OFFCURVE",
"0 699 OFFCURVE",
"0 608 CURVE",
"0 517 OFFCURVE",
"54 457 OFFCURVE",
"136 457 CURVE"
);
},
{
closed = 1;
nodes = (
"136 661 LINE",
"156 661 OFFCURVE",
"166 643 OFFCURVE",
"166 608 CURVE",
"166 573 OFFCURVE",
"156 555 OFFCURVE",
"136 555 CURVE",
"115 555 OFFCURVE",
"105 573 OFFCURVE",
"105 608 CURVE",
"105 643 OFFCURVE",
"115 661 OFFCURVE",
"136 661 CURVE"
);
}
);
width = 271;
}
);
note = anusvaraorya;
unicode = 0B02;
},
{
glyphname = "visarga-oriya";
lastChange = "2019-12-12 03:39:53 +0000";
layers = (
{
layerId = "926CF2F4-31F1-4036-BA3C-0F7EE51EF36A";
paths = (
{
closed = 1;
nodes = (
"208 735 LINE",
"300 735 OFFCURVE",
"348 685 OFFCURVE",
"348 609 CURVE",
"348 418 OFFCURVE",
"40 428 OFFCURVE",
"40 234 CURVE",
"40 149 OFFCURVE",
"100 85 OFFCURVE",
"208 85 CURVE",
"317 85 OFFCURVE",
"376 150 OFFCURVE",
"376 236 CURVE",
"376 432 OFFCURVE",
"68 426 OFFCURVE",
"68 611 CURVE",
"68 684 OFFCURVE",
"116 735 OFFCURVE",
"208 735 CURVE"
);
},
{
closed = 1;
nodes = (
"209 759 LINE",
"99 759 OFFCURVE",
"42 693 OFFCURVE",
"42 608 CURVE",
"42 412 OFFCURVE",
"350 415 OFFCURVE",
"350 237 CURVE",
"350 155 OFFCURVE",
"284 109 OFFCURVE",
"210 109 CURVE",
"135 109 OFFCURVE",
"66 155 OFFCURVE",
"66 237 CURVE",
"66 411 OFFCURVE",
"374 412 OFFCURVE",
"374 609 CURVE",
"374 693 OFFCURVE",
"318 759 OFFCURVE",
"209 759 CURVE"
);
}
);
width = 416;
},
{
layerId = "639D56B4-59BE-4993-85FD-8F80ECD3B0F6";
paths = (
{
closed = 1;
nodes = (
"256 619 LINE",
"292 619 OFFCURVE",
"308 599 OFFCURVE",
"308 575 CURVE",
"308 477 OFFCURVE",
"30 424 OFFCURVE",
"30 247 CURVE",
"30 144 OFFCURVE",
"124 82 OFFCURVE",
"256 82 CURVE",
"391 82 OFFCURVE",
"484 145 OFFCURVE",
"484 247 CURVE",
"484 422 OFFCURVE",
"206 470 OFFCURVE",
"206 574 CURVE",
"206 597 OFFCURVE",
"219 619 OFFCURVE",
"256 619 CURVE"
);
},
{
closed = 1;
nodes = (
"259 759 LINE",
"126 759 OFFCURVE",
"32 690 OFFCURVE",
"32 589 CURVE",
"32 416 OFFCURVE",
"310 376 OFFCURVE",
"310 265 CURVE",
"310 239 OFFCURVE",
"295 222 OFFCURVE",
"258 222 CURVE",
"220 222 OFFCURVE",
"204 240 OFFCURVE",
"204 267 CURVE",
"204 381 OFFCURVE",
"482 407 OFFCURVE",
"482 590 CURVE",
"482 700 OFFCURVE",
"383 759 OFFCURVE",
"259 759 CURVE"
);
}
);
width = 514;
},
{
layerId = "EAF3E1E9-0001-42EF-B2A4-765526B8C83B";
paths = (
{
closed = 1;
nodes = (
"163 734 LINE",
"233 734 OFFCURVE",
"269 684 OFFCURVE",
"269 610 CURVE",
"269 419 OFFCURVE",
"30 427 OFFCURVE",
"30 235 CURVE",
"30 145 OFFCURVE",
"83 85 OFFCURVE",
"165 85 CURVE",
"251 85 OFFCURVE",
"296 150 OFFCURVE",
"296 236 CURVE",
"296 433 OFFCURVE",
"57 426 OFFCURVE",
"57 611 CURVE",
"57 683 OFFCURVE",
"93 734 OFFCURVE",
"163 734 CURVE"
);
},
{
closed = 1;
nodes = (
"164 759 LINE",
"76 759 OFFCURVE",
"31 693 OFFCURVE",
"31 608 CURVE",
"31 412 OFFCURVE",
"271 415 OFFCURVE",
"271 237 CURVE",
"271 156 OFFCURVE",
"221 110 OFFCURVE",
"165 110 CURVE",
"108 110 OFFCURVE",
"55 156 OFFCURVE",
"55 237 CURVE",
"55 409 OFFCURVE",
"295 412 OFFCURVE",
"295 609 CURVE",
"295 693 OFFCURVE",
"250 759 OFFCURVE",
"164 759 CURVE"
);
}
);
width = 326;
},
{
layerId = "A6029D4D-1571-45DB-86AE-EDC9D2308E6F";
paths = (
{
closed = 1;
nodes = (
"208 631 LINE",
"228 631 OFFCURVE",
"241 617 OFFCURVE",
"241 589 CURVE",
"241 474 OFFCURVE",
"22 424 OFFCURVE",
"22 250 CURVE",
"22 151 OFFCURVE",
"93 85 OFFCURVE",
"205 85 CURVE",
"317 85 OFFCURVE",
"393 152 OFFCURVE",
"393 251 CURVE",
"393 420 OFFCURVE",
"174 468 OFFCURVE",
"174 587 CURVE",
"174 618 OFFCURVE",
"189 631 OFFCURVE",
"208 631 CURVE"
);
},
{
closed = 1;
nodes = (
"208 759 LINE",
"98 759 OFFCURVE",
"27 689 OFFCURVE",
"27 594 CURVE",
"27 427 OFFCURVE",
"243 387 OFFCURVE",
"243 260 CURVE",
"243 229 OFFCURVE",
"230 213 OFFCURVE",
"208 213 CURVE",
"186 213 OFFCURVE",
"172 229 OFFCURVE",
"172 262 CURVE",
"172 391 OFFCURVE",
"388 420 OFFCURVE",
"388 592 CURVE",
"388 691 OFFCURVE",
"317 759 OFFCURVE",
"208 759 CURVE"
);
}
);
width = 415;
}
);
note = visargaorya;
unicode = 0B03;
},
{
glyphname = "a-oriya";
lastChange = "2019-12-12 03:39:53 +0000";
layers = (
{
anchors = (
{
name = topright;
position = "{551, 751}";
}
);
guideLines = (
{
angle = 90;
position = "{31, 440}";
}
);
layerId = "926CF2F4-31F1-4036-BA3C-0F7EE51EF36A";
paths = (
{
closed = 1;
nodes = (
"243 85 LINE",
"360 85 OFFCURVE",
"487 146 OFFCURVE",
"561 248 CURVE",
"559 286 LINE",
"477 169 OFFCURVE",
"355 109 OFFCURVE",
"244 109 CURVE",
"132 109 OFFCURVE",
"58 172 OFFCURVE",
"58 268 CURVE",
"58 362 OFFCURVE",
"121 390 OFFCURVE",
"244 431 CURVE",
"256 435 LINE SMOOTH",
"312 454 OFFCURVE",
"430 492 OFFCURVE",
"430 632 CURVE",
"430 712 OFFCURVE",
"390 759 OFFCURVE",
"322 759 CURVE",
"261 759 OFFCURVE",
"224 717 OFFCURVE",
"224 647 CURVE",
"239 647 LINE",
"239 717 OFFCURVE",
"200 759 OFFCURVE",
"135 759 CURVE",
"71 759 OFFCURVE",
"32 717 OFFCURVE",
"32 647 CURVE",
"32 618.08 OFFCURVE",
"38.049 584.21 OFFCURVE",
"53.409 552.731 CURVE",
"76 563 LINE",
"62 593 OFFCURVE",
"58 622 OFFCURVE",
"58 645 CURVE",
"58 702 OFFCURVE",
"88 735 OFFCURVE",
"137 735 CURVE",
"188 735 OFFCURVE",
"218 700 OFFCURVE",
"218 642 CURVE",
"218 561 LINE",
"244 561 LINE",
"244 642 LINE SMOOTH",
"244 700 OFFCURVE",
"273 735 OFFCURVE",
"322 735 CURVE",
"374 735 OFFCURVE",
"404 698 OFFCURVE",
"404 635 CURVE",
"404 507 OFFCURVE",
"303 475 OFFCURVE",
"242 455 CURVE",
"230 451 LINE SMOOTH",
"133 419 OFFCURVE",
"32 390 OFFCURVE",
"32 265 CURVE",
"32 152 OFFCURVE",
"116 85 OFFCURVE",
"243 85 CURVE"
);
},
{
closed = 1;
nodes = (
"538 93 LINE",
"564 93 LINE",
"564 751 LINE",
"538 751 LINE",
"538 249 LINE",
"538 233 LINE"
);
}
);
width = 634;
},
{
anchors = (
{
name = topright;
position = "{667, 751}";
}
);
layerId = "639D56B4-59BE-4993-85FD-8F80ECD3B0F6";
paths = (
{
closed = 1;
nodes = (
"301 85 LINE",
"434 85 OFFCURVE",
"560 130 OFFCURVE",
"639 222 CURVE",
"628 423 LINE",
"539 295 OFFCURVE",
"401 245 OFFCURVE",
"296 245 CURVE",
"240 245 OFFCURVE",
"218 259 OFFCURVE",
"218 285 CURVE",
"218 318 OFFCURVE",
"245 330 OFFCURVE",
"311 350 CURVE",
"344 360 LINE SMOOTH",
"431 386 OFFCURVE",
"550 425 OFFCURVE",
"550 581 CURVE",
"550 694 OFFCURVE",
"487 759 OFFCURVE",
"401 759 CURVE",
"314 759 OFFCURVE",
"255 692 OFFCURVE",
"255 591 CURVE",
"313 591 LINE",
"313 686 OFFCURVE",
"264 759 OFFCURVE",
"163 759 CURVE",
"71 759 OFFCURVE",
"18 700 OFFCURVE",
"18 619 CURVE",
"18 587.008 OFFCURVE",
"26.316 551.818 OFFCURVE",
"43.459 515.475 CURVE",
"181 545 LINE",
"173 566 OFFCURVE",
"168 583 OFFCURVE",
"168 602 CURVE",
"168 625 OFFCURVE",
"177 637 OFFCURVE",
"192 637 CURVE",
"214 637 OFFCURVE",
"214 610 OFFCURVE",
"214 594 CURVE",
"214 546 LINE",
"354 546 LINE",
"354 591 LINE SMOOTH",
"354 606 OFFCURVE",
"354 637 OFFCURVE",
"377 637 CURVE",
"393 637 OFFCURVE",
"400 623 OFFCURVE",
"400 595 CURVE",
"400 525 OFFCURVE",
"354 512 OFFCURVE",
"287 493 CURVE",
"244 481 LINE SMOOTH",
"181 463 OFFCURVE",
"44 427 OFFCURVE",
"44 278 CURVE",
"44 160 OFFCURVE",
"129 85 OFFCURVE",
"301 85 CURVE"
);
},
{
closed = 1;
nodes = (
"582 93 LINE",
"752 93 LINE",
"752 751 LINE",
"582 751 LINE",
"582 302 LINE",
"592 242 LINE"
);
}
);
width = 798;
},
{
anchors = (
{
name = topright;
position = "{454, 751}";
}
);
guideLines = (
{
angle = 90;
position = "{57, 440}";
}
);
layerId = "EAF3E1E9-0001-42EF-B2A4-765526B8C83B";
paths = (
{
closed = 1;
nodes = (
"219 85 LINE",
"299 85 OFFCURVE",
"391 133 OFFCURVE",
"453 232 CURVE",
"450 277 LINE",
"397 167 OFFCURVE",
"300 110 OFFCURVE",
"219 110 CURVE",
"144 110 OFFCURVE",
"82 160 OFFCURVE",
"82 264 CURVE",
"82 361 OFFCURVE",
"141 388 OFFCURVE",
"203 419 CURVE",
"213 424 LINE SMOOTH",
"290 463 OFFCURVE",
"366 498 OFFCURVE",
"366 632 CURVE",
"366 731 OFFCURVE",
"325 759 OFFCURVE",
"281 759 CURVE",
"236 759 OFFCURVE",
"213 729 OFFCURVE",
"203 667 CURVE",
"221 667 LINE",
"210 729 OFFCURVE",
"187 759 OFFCURVE",
"141 759 CURVE",
"88 759 OFFCURVE",
"56 721 OFFCURVE",
"56 646 CURVE",
"56 619.627 OFFCURVE",
"60.064 587.666 OFFCURVE",
"71.452 557.358 CURVE",
"95 564 LINE",
"87 588 OFFCURVE",
"82 617 OFFCURVE",
"82 645 CURVE",
"82 691 OFFCURVE",
"94 734 OFFCURVE",
"138 734 CURVE",
"179 734 OFFCURVE",
"198 697 OFFCURVE",
"198 643 CURVE",
"198 562 LINE",
"224 562 LINE",
"224 643 LINE SMOOTH",
"224 692 OFFCURVE",
"241 734 OFFCURVE",
"284 734 CURVE",
"317 734 OFFCURVE",
"340 709 OFFCURVE",
"340 637 CURVE",
"340 516 OFFCURVE",
"277 483 OFFCURVE",
"200 445 CURVE",
"194 442 LINE SMOOTH",
"125 408 OFFCURVE",
"56 375 OFFCURVE",
"56 262 CURVE",
"56 145 OFFCURVE",
"130 85 OFFCURVE",
"219 85 CURVE"
);
},
{
closed = 1;
nodes = (
"441 93 LINE",
"467 93 LINE",
"467 751 LINE",
"441 751 LINE",
"441 247 LINE",
"441 233 LINE"
);
}
);
width = 519;
},
{
anchors = (
{
name = topright;
position = "{540, 751}";
}
);
layerId = "A6029D4D-1571-45DB-86AE-EDC9D2308E6F";
paths = (
{
closed = 1;
nodes = (
"234 85 LINE",
"323 85 OFFCURVE",
"425 125 OFFCURVE",
"502 205 CURVE",
"477 394 LINE",
"431 297 OFFCURVE",
"316 231 OFFCURVE",
"244 231 CURVE",
"207 231 OFFCURVE",
"181 248 OFFCURVE",
"181 285 CURVE",
"181 325 OFFCURVE",
"212 339 OFFCURVE",
"249 354 CURVE",
"274 364 LINE SMOOTH",
"364 400 OFFCURVE",
"441 433 OFFCURVE",
"441 583 CURVE",
"441 701 OFFCURVE",
"395 759 OFFCURVE",
"317 759 CURVE",
"268 759 OFFCURVE",
"199 733 OFFCURVE",
"199 591 CURVE",
"243 591 LINE",
"243 696 OFFCURVE",
"210 759 OFFCURVE",
"129 759 CURVE",
"56 759 OFFCURVE",
"14 708 OFFCURVE",
"14 626 CURVE",
"14 597.444 OFFCURVE",
"20.292 553.157 OFFCURVE",
"33.375 515.601 CURVE",
"147 545 LINE",
"141 566 OFFCURVE",
"137 594 OFFCURVE",
"137 609 CURVE",
"137 629 OFFCURVE",
"144 641 OFFCURVE",
"155 641 CURVE",
"166 641 OFFCURVE",
"171 626 OFFCURVE",
"171 604 CURVE",
"171 546 LINE",
"283 546 LINE",
"283 604 LINE SMOOTH",
"283 625 OFFCURVE",
"286 641 OFFCURVE",
"298 641 CURVE",
"311 641 OFFCURVE",
"318 625 OFFCURVE",
"318 595 CURVE",
"318 520 OFFCURVE",
"268 500 OFFCURVE",
"228 487 CURVE",
"198 477 LINE SMOOTH",
"139 457 OFFCURVE",
"29 420 OFFCURVE",
"29 278 CURVE",
"29 149 OFFCURVE",
"122 85 OFFCURVE",
"234 85 CURVE"
);
},
{
closed = 1;
nodes = (
"466 93 LINE",
"613 93 LINE",
"613 751 LINE",
"466 751 LINE",
"466 302 LINE",
"491 242 LINE"
);
}
);
width = 647;
},
{
anchors = (
{
name = topright;
position = "{667, 751}";
}
);
associatedMasterId = "639D56B4-59BE-4993-85FD-8F80ECD3B0F6";
background = {
paths = (
{
closed = 1;
nodes = (
"434 -8 OFFCURVE",
"560 37 OFFCURVE",
"639 129 CURVE",
"628 330 LINE",
"539 202 OFFCURVE",
"401 152 OFFCURVE",
"296 152 CURVE SMOOTH",
"240 152 OFFCURVE",
"218 166 OFFCURVE",
"218 192 CURVE SMOOTH",
"218 225 OFFCURVE",
"245 237 OFFCURVE",
"311 257 CURVE SMOOTH",
"344 267 LINE SMOOTH",
"431 293 OFFCURVE",
"550 332 OFFCURVE",
"550 488 CURVE SMOOTH",
"550 601 OFFCURVE",
"487 666 OFFCURVE",
"401 666 CURVE SMOOTH",
"314 666 OFFCURVE",
"255 599 OFFCURVE",
"255 498 CURVE",
"313 498 LINE",
"313 593 OFFCURVE",
"264 666 OFFCURVE",
"163 666 CURVE SMOOTH",
"71 666 OFFCURVE",
"18 607 OFFCURVE",
"18 526 CURVE SMOOTH",
"18 486 OFFCURVE",
"31 441 OFFCURVE",
"58 395 CURVE",
"-10 411 LINE",
"181 452 LINE",
"173 473 OFFCURVE",
"168 490 OFFCURVE",
"168 509 CURVE SMOOTH",
"168 532 OFFCURVE",
"177 544 OFFCURVE",
"192 544 CURVE SMOOTH",
"214 544 OFFCURVE",
"214 517 OFFCURVE",
"214 501 CURVE SMOOTH",
"214 453 LINE",
"354 453 LINE",
"354 498 LINE SMOOTH",
"354 513 OFFCURVE",
"354 544 OFFCURVE",
"377 544 CURVE SMOOTH",
"393 544 OFFCURVE",
"400 530 OFFCURVE",
"400 502 CURVE SMOOTH",
"400 432 OFFCURVE",
"354 419 OFFCURVE",
"287 400 CURVE SMOOTH",
"244 388 LINE SMOOTH",
"181 370 OFFCURVE",
"44 334 OFFCURVE",
"44 185 CURVE SMOOTH",
"44 67 OFFCURVE",
"129 -8 OFFCURVE",
"301 -8 CURVE SMOOTH"
);
},
{
closed = 1;
nodes = (
"752 0 LINE",
"752 658 LINE",
"582 658 LINE",
"582 209 LINE",
"592 149 LINE",
"582 0 LINE"
);
}
);
};
layerId = "894C2807-A412-44C5-8905-0F9C562FDF5F";
name = "Black ]141]";
paths = (
{
closed = 1;
nodes = (
"301 85 LINE",
"434 85 OFFCURVE",
"560 130 OFFCURVE",
"639 222 CURVE",
"628 423 LINE",
"539 295 OFFCURVE",
"401 245 OFFCURVE",
"296 245 CURVE",
"240 245 OFFCURVE",
"218 259 OFFCURVE",
"218 285 CURVE",
"218 318 OFFCURVE",
"245 330 OFFCURVE",
"311 350 CURVE",
"344 360 LINE SMOOTH",
"431 386 OFFCURVE",
"550 425 OFFCURVE",
"550 581 CURVE",
"550 694 OFFCURVE",
"487 759 OFFCURVE",
"401 759 CURVE",
"314 759 OFFCURVE",
"255 692 OFFCURVE",
"255 591 CURVE",
"313 591 LINE",
"313 686 OFFCURVE",
"264 759 OFFCURVE",
"163 759 CURVE",
"71 759 OFFCURVE",
"18 700 OFFCURVE",
"18 619 CURVE",
"18 586.855 OFFCURVE",
"26.395 551.482 OFFCURVE",
"43.705 514.955 CURVE",
"191 545 LINE",
"183 566 OFFCURVE",
"178 581 OFFCURVE",
"178 592 CURVE",
"178 605 OFFCURVE",
"183 617 OFFCURVE",
"194 617 CURVE",
"207 617 OFFCURVE",
"210 604 OFFCURVE",
"210 589 CURVE",
"210 546 LINE",
"358 546 LINE",
"358 587 LINE SMOOTH",
"358 604 OFFCURVE",
"362 617 OFFCURVE",
"374 617 CURVE",
"384 617 OFFCURVE",
"390 606 OFFCURVE",
"390 585 CURVE",
"390 529 OFFCURVE",
"354 512 OFFCURVE",
"287 493 CURVE",
"244 481 LINE SMOOTH",
"181 463 OFFCURVE",
"44 427 OFFCURVE",
"44 278 CURVE",
"44 160 OFFCURVE",
"129 85 OFFCURVE",
"301 85 CURVE"
);
},
{
closed = 1;
nodes = (
"582 93 LINE",
"752 93 LINE",
"752 751 LINE",
"582 751 LINE",
"582 302 LINE",
"592 242 LINE"
);
}
);
width = 798;
},
{
anchors = (
{
name = topright;
position = "{540, 751}";
}
);
associatedMasterId = "A6029D4D-1571-45DB-86AE-EDC9D2308E6F";
background = {
paths = (
{
closed = 1;
nodes = (
"323 -8 OFFCURVE",
"425 32 OFFCURVE",
"502 112 CURVE",
"477 301 LINE",
"431 204 OFFCURVE",
"316 138 OFFCURVE",
"244 138 CURVE SMOOTH",
"207 138 OFFCURVE",
"181 155 OFFCURVE",
"181 192 CURVE SMOOTH",
"181 232 OFFCURVE",
"212 246 OFFCURVE",
"249 261 CURVE SMOOTH",
"274 271 LINE SMOOTH",
"364 307 OFFCURVE",
"441 340 OFFCURVE",
"441 490 CURVE SMOOTH",
"441 608 OFFCURVE",
"395 666 OFFCURVE",
"317 666 CURVE SMOOTH",
"268 666 OFFCURVE",
"199 640 OFFCURVE",
"199 498 CURVE",
"243 498 LINE",
"243 603 OFFCURVE",
"210 666 OFFCURVE",
"129 666 CURVE SMOOTH",
"56 666 OFFCURVE",
"14 615 OFFCURVE",
"14 533 CURVE SMOOTH",
"14 497 OFFCURVE",
"24 436 OFFCURVE",
"45 395 CURVE",
"4 415 LINE",
"147 452 LINE",
"141 473 OFFCURVE",
"137 501 OFFCURVE",
"137 516 CURVE SMOOTH",
"137 532 OFFCURVE",
"144 542 OFFCURVE",
"155 542 CURVE SMOOTH",
"166 542 OFFCURVE",
"171 529 OFFCURVE",
"171 511 CURVE SMOOTH",
"171 453 LINE",
"283 453 LINE",
"283 511 LINE SMOOTH",
"283 528 OFFCURVE",
"286 542 OFFCURVE",
"298 542 CURVE SMOOTH",
"311 542 OFFCURVE",
"318 528 OFFCURVE",
"318 502 CURVE SMOOTH",
"318 427 OFFCURVE",
"268 407 OFFCURVE",
"228 394 CURVE SMOOTH",
"198 384 LINE SMOOTH",
"139 364 OFFCURVE",
"29 327 OFFCURVE",
"29 185 CURVE SMOOTH",
"29 56 OFFCURVE",
"122 -8 OFFCURVE",
"234 -8 CURVE SMOOTH"
);
},
{
closed = 1;
nodes = (
"613 0 LINE",
"613 658 LINE",
"466 658 LINE",
"466 209 LINE",
"474 149 LINE",
"466 0 LINE"
);
}
);
};
layerId = "9D093AD4-4D99-4E29-9512-A5EE1B4DD0BD";
name = "ExtraCondensed Black ]141]";
paths = (
{
closed = 1;
nodes = (
"234 85 LINE",
"323 85 OFFCURVE",
"425 125 OFFCURVE",
"502 205 CURVE",
"477 394 LINE",
"431 297 OFFCURVE",
"316 231 OFFCURVE",
"244 231 CURVE",
"207 231 OFFCURVE",
"181 248 OFFCURVE",
"181 285 CURVE",
"181 325 OFFCURVE",
"212 339 OFFCURVE",
"249 354 CURVE",
"274 364 LINE SMOOTH",
"364 400 OFFCURVE",
"441 433 OFFCURVE",
"441 584 CURVE",
"441 702 OFFCURVE",
"394 759 OFFCURVE",
"319 759 CURVE",
"268 759 OFFCURVE",
"199 733 OFFCURVE",
"199 591 CURVE",
"243 591 LINE",
"243 696 OFFCURVE",
"210 759 OFFCURVE",
"129 759 CURVE",
"56 759 OFFCURVE",
"14 708 OFFCURVE",
"14 626 CURVE",
"14 597.396 OFFCURVE",
"20.313 553.008 OFFCURVE",
"33.442 515.41 CURVE",
"151 545 LINE",
"145 567 OFFCURVE",
"141 587 OFFCURVE",
"141 597 CURVE",
"141 611 OFFCURVE",
"144 621 OFFCURVE",
"154 621 CURVE",
"167 621 OFFCURVE",
"167 606 OFFCURVE",
"167 594 CURVE",
"167 546 LINE",
"287 546 LINE",
"287 593 LINE SMOOTH",
"287 609 OFFCURVE",
"289 621 OFFCURVE",
"300 621 CURVE",
"309 621 OFFCURVE",
"314 610 OFFCURVE",
"314 591 CURVE",
"314 521 OFFCURVE",
"266 500 OFFCURVE",
"228 487 CURVE",
"198 477 LINE SMOOTH",
"139 457 OFFCURVE",
"29 421 OFFCURVE",
"29 279 CURVE",
"29 149 OFFCURVE",
"122 85 OFFCURVE",
"234 85 CURVE"
);
},
{
closed = 1;
nodes = (
"466 93 LINE",
"613 93 LINE",
"613 751 LINE",
"466 751 LINE",
"466 302 LINE",
"491 242 LINE"
);
}
);
width = 647;
}
);
note = aorya;
rightMetricsKey = "aaMatra-oriya";
unicode = 0B05;
},
{
glyphname = "i-oriya";
lastChange = "2019-12-12 03:39:53 +0000";
layers = (
{
anchors = (
{
name = topright;
position = "{641, 751}";
}
);
guideLines = (
{
position = "{1071, 328}";
}
);
layerId = "926CF2F4-31F1-4036-BA3C-0F7EE51EF36A";
paths = (
{
closed = 1;
nodes = (
"586 245 LINE",
"706.033 84.682 LINE",
"727.154 102.162 LINE",
"612 251 LINE",
"606 229 LINE",
"675 298 OFFCURVE",
"706 376 OFFCURVE",
"706 461 CURVE",
"706 663 OFFCURVE",
"530 759 OFFCURVE",
"359 759 CURVE",
"196 759 OFFCURVE",
"38 672 OFFCURVE",
"38 505 CURVE",
"38 426 OFFCURVE",
"73 359 OFFCURVE",
"138 308 CURVE",
"144 336 LINE",
"92 378 OFFCURVE",
"64 434 OFFCURVE",
"64 499 CURVE",
"64 655 OFFCURVE",
"210 735 OFFCURVE",
"359 735 CURVE",
"516 735 OFFCURVE",
"680 647 OFFCURVE",
"680 458 CURVE",
"680 380 OFFCURVE",
"653 308 OFFCURVE",
"586 245 CURVE"
);
},
{
closed = 1;
nodes = (
"231 85 LINE",
"302 85 OFFCURVE",
"337 145 OFFCURVE",
"337 252 CURVE",
"337 359 OFFCURVE",
"302 419 OFFCURVE",
"231 419 CURVE",
"162 419 OFFCURVE",
"120 360 OFFCURVE",
"120 252 CURVE",
"120 145 OFFCURVE",
"161 85 OFFCURVE",
"231 85 CURVE"
);
},
{
closed = 1;
nodes = (
"231 109 LINE",
"179 109 OFFCURVE",
"146 159 OFFCURVE",
"146 253 CURVE",
"146 345 OFFCURVE",
"178 395 OFFCURVE",
"231 395 CURVE",
"286 395 OFFCURVE",
"314 344 OFFCURVE",
"314 253 CURVE",
"314 159 OFFCURVE",
"284 109 OFFCURVE",
"231 109 CURVE"
);
},
{
closed = 1;
nodes = (
"426 85 LINE",
"496 85 OFFCURVE",
"534 145 OFFCURVE",
"534 252 CURVE",
"534 359 OFFCURVE",
"496 419 OFFCURVE",
"426 419 CURVE",
"356 419 OFFCURVE",
"317 360 OFFCURVE",
"317 252 CURVE",
"317 145 OFFCURVE",
"356 85 OFFCURVE",
"426 85 CURVE"
);
},
{
closed = 1;
nodes = (
"426 109 LINE",
"373 109 OFFCURVE",
"340 159 OFFCURVE",
"340 253 CURVE",
"340 345 OFFCURVE",
"372 395 OFFCURVE",
"426 395 CURVE",
"480 395 OFFCURVE",
"508 344 OFFCURVE",
"508 253 CURVE",
"508 159 OFFCURVE",
"478 109 OFFCURVE",
"426 109 CURVE"
);
}
);
width = 751;
},
{
anchors = (
{
name = topright;
position = "{695, 751}";
}
);
guideLines = (
{
position = "{1051, 351}";
}
);
layerId = "639D56B4-59BE-4993-85FD-8F80ECD3B0F6";
paths = (
{
closed = 1;
nodes = (
"610 250 LINE",
"727.791 84.145 LINE",
"868.173 183.439 LINE",
"755 323 LINE",
"725 193 LINE",
"811 271 OFFCURVE",
"845 358 OFFCURVE",
"845 440 CURVE",
"845 647 OFFCURVE",
"625 758 OFFCURVE",
"414 758 CURVE",
"214 758 OFFCURVE",
"22 664 OFFCURVE",
"22 485 CURVE",
"22 410 OFFCURVE",
"56 333 OFFCURVE",
"173 263 CURVE",
"233 375 LINE",
"201 404 OFFCURVE",
"186 434 OFFCURVE",
"186 466 CURVE",
"186 549 OFFCURVE",
"291 599 OFFCURVE",
"404 599 CURVE",
"532 599 OFFCURVE",
"671 534 OFFCURVE",
"671 393 CURVE",
"671 346 OFFCURVE",
"655 294 OFFCURVE",
"610 250 CURVE"
);
},
{
closed = 1;
nodes = (
"235 85 LINE",
"324 85 OFFCURVE",
"373 160 OFFCURVE",
"373 266 CURVE",
"373 373 OFFCURVE",
"323 444 OFFCURVE",
"236 444 CURVE",
"150 444 OFFCURVE",
"90 374 OFFCURVE",
"90 263 CURVE",
"90 151 OFFCURVE",
"152 85 OFFCURVE",
"235 85 CURVE"
);
},
{
closed = 1;
nodes = (
"243 213 LINE",
"220 213 OFFCURVE",
"210 232 OFFCURVE",
"210 265 CURVE",
"210 298 OFFCURVE",
"220 316 OFFCURVE",
"243 316 CURVE",
"266 316 OFFCURVE",
"276 300 OFFCURVE",
"276 265 CURVE",
"276 231 OFFCURVE",
"266 213 OFFCURVE",
"243 213 CURVE"
);
},
{
closed = 1;
nodes = (
"447 85 LINE",
"530 85 OFFCURVE",
"590 153 OFFCURVE",
"590 266 CURVE",
"590 378 OFFCURVE",
"531 444 OFFCURVE",
"448 444 CURVE",
"361 444 OFFCURVE",
"303 373 OFFCURVE",
"303 266 CURVE",
"303 160 OFFCURVE",
"360 85 OFFCURVE",
"447 85 CURVE"
);
},
{
closed = 1;
nodes = (
"437 213 LINE",
"414 213 OFFCURVE",
"404 231 OFFCURVE",
"404 265 CURVE",
"404 300 OFFCURVE",
"414 316 OFFCURVE",
"437 316 CURVE",
"459 316 OFFCURVE",
"470 298 OFFCURVE",
"470 265 CURVE",
"470 232 OFFCURVE",
"460 213 OFFCURVE",
"437 213 CURVE"
);
}
);
width = 876;
},
{
anchors = (
{
name = topright;
position = "{503, 751}";
}
);
guideLines = (
{
position = "{360, 210}";
}
);
layerId = "EAF3E1E9-0001-42EF-B2A4-765526B8C83B";
paths = (
{
closed = 1;
nodes = (
"449 244 LINE",
"540.409 84.663 LINE",
"561.3 97.077 LINE",
"475 249 LINE",
"467 229 LINE",
"522 301 OFFCURVE",
"548 387 OFFCURVE",
"548 468 CURVE",
"548 622 OFFCURVE",
"446 759 OFFCURVE",
"284 759 CURVE",
"152 759 OFFCURVE",
"28 667 OFFCURVE",
"28 501 CURVE",
"28 429 OFFCURVE",
"51 359 OFFCURVE",
"103 296 CURVE",
"114 323 LINE",
"73 377 OFFCURVE",
"54 437 OFFCURVE",
"54 498 CURVE",
"54 650 OFFCURVE",
"164 734 OFFCURVE",
"283 734 CURVE",
"428 734 OFFCURVE",
"522 610 OFFCURVE",
"522 468 CURVE",
"522 393 OFFCURVE",
"498 313 OFFCURVE",
"449 244 CURVE"
);
},
{
closed = 1;
nodes = (
"180 85 LINE",
"237 85 OFFCURVE",
"265 146 OFFCURVE",
"265 252 CURVE",
"265 358 OFFCURVE",
"237 419 OFFCURVE",
"180 419 CURVE",
"126 419 OFFCURVE",
"93 360 OFFCURVE",
"93 252 CURVE",
"93 145 OFFCURVE",
"125 85 OFFCURVE",
"180 85 CURVE"
);
},
{
closed = 1;
nodes = (
"181 110 LINE",
"142 110 OFFCURVE",
"119 160 OFFCURVE",
"119 253 CURVE",
"119 342 OFFCURVE",
"140 394 OFFCURVE",
"181 394 CURVE",
"222 394 OFFCURVE",
"243 343 OFFCURVE",
"243 253 CURVE",
"243 160 OFFCURVE",
"220 110 OFFCURVE",
"181 110 CURVE"
);
},
{
closed = 1;
nodes = (
"333 85 LINE",
"388 85 OFFCURVE",
"419 144 OFFCURVE",
"419 252 CURVE",
"419 359 OFFCURVE",
"389 419 OFFCURVE",
"334 419 CURVE",
"278 419 OFFCURVE",
"247 359 OFFCURVE",
"247 252 CURVE",
"247 146 OFFCURVE",
"277 85 OFFCURVE",
"333 85 CURVE"
);
},
{
closed = 1;
nodes = (
"332 110 LINE",
"293 110 OFFCURVE",
"269 160 OFFCURVE",
"269 252 CURVE",
"269 342 OFFCURVE",
"292 394 OFFCURVE",
"333 394 CURVE",
"373 394 OFFCURVE",
"393 343 OFFCURVE",
"393 253 CURVE",
"393 159 OFFCURVE",
"371 110 OFFCURVE",
"332 110 CURVE"
);
}
);
width = 581;
},
{
anchors = (
{
name = topright;
position = "{576, 751}";
}
);
guideLines = (
{
position = "{1058, 351}";
},
{
position = "{391, 225}";
}
);
layerId = "A6029D4D-1571-45DB-86AE-EDC9D2308E6F";
paths = (
{
closed = 1;
nodes = (
"507 250 LINE",
"606.756 84.887 LINE",
"744.14 173.109 LINE",
"636 334 LINE",
"609 193 LINE",
"675 278 OFFCURVE",
"706 368 OFFCURVE",
"706 451 CURVE",
"706 620 OFFCURVE",
"576 759 OFFCURVE",
"351 759 CURVE",
"126 759 OFFCURVE",
"16 620 OFFCURVE",
"16 485 CURVE",
"16 403 OFFCURVE",
"58 320 OFFCURVE",
"140 271 CURVE",
"198 376 LINE",
"175 397 OFFCURVE",
"163 427 OFFCURVE",
"163 458 CURVE",
"163 529 OFFCURVE",
"219 613 OFFCURVE",
"349 613 CURVE",
"483 613 OFFCURVE",
"554 520 OFFCURVE",
"554 410 CURVE",
"554 358 OFFCURVE",
"539 302 OFFCURVE",
"507 250 CURVE"
);
},
{
closed = 1;
nodes = (
"206 85 LINE",
"274 85 OFFCURVE",
"312 155 OFFCURVE",
"312 267 CURVE",
"312 378 OFFCURVE",
"275 444 OFFCURVE",
"206 444 CURVE",
"137 444 OFFCURVE",
"86 377 OFFCURVE",
"86 264 CURVE",
"86 149 OFFCURVE",
"138 85 OFFCURVE",
"206 85 CURVE"
);
},
{
closed = 1;
nodes = (
"213 202 LINE",
"196 202 OFFCURVE",
"191 217 OFFCURVE",
"191 265 CURVE",
"191 313 OFFCURVE",
"196 327 OFFCURVE",
"213 327 CURVE",
"230 327 OFFCURVE",
"235 313 OFFCURVE",
"235 265 CURVE",
"235 217 OFFCURVE",
"230 202 OFFCURVE",
"213 202 CURVE"
);
},
{
closed = 1;
nodes = (
"369 85 LINE",
"437 85 OFFCURVE",
"487 152 OFFCURVE",
"487 266 CURVE",
"487 377 OFFCURVE",
"439 444 OFFCURVE",
"370 444 CURVE",
"299 444 OFFCURVE",
"259 374 OFFCURVE",
"259 266 CURVE",
"259 155 OFFCURVE",
"302 85 OFFCURVE",
"369 85 CURVE"
);
},
{
closed = 1;
nodes = (
"360 202 LINE",
"343 202 OFFCURVE",
"338 217 OFFCURVE",
"338 265 CURVE",
"338 313 OFFCURVE",
"343 327 OFFCURVE",
"360 327 CURVE",
"377 327 OFFCURVE",
"382 313 OFFCURVE",
"382 265 CURVE",
"382 217 OFFCURVE",
"377 202 OFFCURVE",
"360 202 CURVE"
);
}
);
width = 742;
},
{
anchors = (
{
name = topright;
position = "{576, 751}";
}
);
annotations = (
{
position = "{30, 933}";
text = "I wonder if that would make sense to have a reverse bracket layer? There is one for instance in teh following glyph.";
type = Text;
width = 219;
}
);
associatedMasterId = "A6029D4D-1571-45DB-86AE-EDC9D2308E6F";
background = {
paths = (
{
closed = 1;
nodes = (
"636 -83 LINE",
"568 -33 LINE",
"772 77 LINE",
"784 -3 LINE",
"627 230 LINE",
"609 90 LINE",
"660 156 OFFCURVE",
"704 256 OFFCURVE",
"704 361 CURVE SMOOTH",
"704 548 OFFCURVE",
"563 666 OFFCURVE",
"350 666 CURVE SMOOTH",
"129 666 OFFCURVE",
"16 538 OFFCURVE",
"16 407 CURVE SMOOTH",
"16 328 OFFCURVE",
"57 249 OFFCURVE",
"143 196 CURVE",
"204 289 LINE",
"179 316 OFFCURVE",
"168 348 OFFCURVE",
"168 379 CURVE SMOOTH",
"168 451 OFFCURVE",
"229 520 OFFCURVE",
"350 520 CURVE SMOOTH",
"463 520 OFFCURVE",
"552 459 OFFCURVE",
"552 322 CURVE SMOOTH",
"552 267 OFFCURVE",
"537 205 OFFCURVE",
"507 157 CURVE"
);
},
{
closed = 1;
nodes = (
"277 -8 OFFCURVE",
"314 63 OFFCURVE",
"314 174 CURVE SMOOTH",
"314 285 OFFCURVE",
"277 351 OFFCURVE",
"208 351 CURVE SMOOTH",
"139 351 OFFCURVE",
"86 284 OFFCURVE",
"86 170 CURVE SMOOTH",
"86 55 OFFCURVE",
"140 -8 OFFCURVE",
"206 -8 CURVE SMOOTH"
);
},
{
closed = 1;
nodes = (
"202 117 OFFCURVE",
"197 132 OFFCURVE",
"197 172 CURVE SMOOTH",
"197 211 OFFCURVE",
"202 226 OFFCURVE",
"215 226 CURVE SMOOTH",
"228 226 OFFCURVE",
"233 211 OFFCURVE",
"233 172 CURVE SMOOTH",
"233 132 OFFCURVE",
"228 117 OFFCURVE",
"215 117 CURVE SMOOTH"
);
},
{
closed = 1;
nodes = (
"439 -8 OFFCURVE",
"491 58 OFFCURVE",
"491 172 CURVE SMOOTH",
"491 284 OFFCURVE",
"441 351 OFFCURVE",
"372 351 CURVE SMOOTH",
"301 351 OFFCURVE",
"261 282 OFFCURVE",
"261 174 CURVE SMOOTH",
"261 62 OFFCURVE",
"304 -8 OFFCURVE",
"372 -8 CURVE SMOOTH"
);
},
{
closed = 1;
nodes = (
"349 117 OFFCURVE",
"344 132 OFFCURVE",
"344 172 CURVE SMOOTH",
"344 211 OFFCURVE",
"349 226 OFFCURVE",
"362 226 CURVE SMOOTH",
"375 226 OFFCURVE",
"380 211 OFFCURVE",
"380 172 CURVE SMOOTH",
"380 132 OFFCURVE",
"375 117 OFFCURVE",
"362 117 CURVE SMOOTH"
);
}
);
};
guideLines = (
{
position = "{1053, 351}";
}
);
layerId = "EBCE5B56-0FAF-4BB7-8E92-026EB72D26CE";
name = "ExtraCondensed Black ]141]";
paths = (
{
closed = 1;
nodes = (
"507 250 LINE",
"606.756 84.887 LINE",
"744.14 173.109 LINE",
"636 334 LINE",
"609 193 LINE",
"675 278 OFFCURVE",
"706 368 OFFCURVE",
"706 451 CURVE",
"706 620 OFFCURVE",
"576 759 OFFCURVE",
"351 759 CURVE",
"126 759 OFFCURVE",
"16 620 OFFCURVE",
"16 485 CURVE",
"16 403 OFFCURVE",
"58 320 OFFCURVE",
"140 271 CURVE",
"198 376 LINE",
"175 397 OFFCURVE",
"163 427 OFFCURVE",
"163 458 CURVE",
"163 529 OFFCURVE",
"219 613 OFFCURVE",
"349 613 CURVE",
"483 613 OFFCURVE",
"554 520 OFFCURVE",
"554 410 CURVE",
"554 358 OFFCURVE",
"539 302 OFFCURVE",
"507 250 CURVE"
);
},
{
closed = 1;
nodes = (
"206 85 LINE",
"277 85 OFFCURVE",
"314 156 OFFCURVE",
"314 267 CURVE",
"314 378 OFFCURVE",
"277 444 OFFCURVE",
"208 444 CURVE",
"139 444 OFFCURVE",
"86 377 OFFCURVE",
"86 263 CURVE",
"86 148 OFFCURVE",
"140 85 OFFCURVE",
"206 85 CURVE"
);
},
{
closed = 1;
nodes = (
"215 210 LINE",
"202 210 OFFCURVE",
"197 225 OFFCURVE",
"197 265 CURVE",
"197 304 OFFCURVE",
"202 319 OFFCURVE",
"215 319 CURVE",
"228 319 OFFCURVE",
"233 304 OFFCURVE",
"233 265 CURVE",
"233 225 OFFCURVE",
"228 210 OFFCURVE",
"215 210 CURVE"
);
},
{
closed = 1;
nodes = (
"372 85 LINE",
"439 85 OFFCURVE",
"491 151 OFFCURVE",
"491 265 CURVE",
"491 377 OFFCURVE",
"441 444 OFFCURVE",
"372 444 CURVE",
"301 444 OFFCURVE",
"261 375 OFFCURVE",
"261 267 CURVE",
"261 155 OFFCURVE",
"304 85 OFFCURVE",
"372 85 CURVE"
);
},
{
closed = 1;
nodes = (
"362 210 LINE",
"349 210 OFFCURVE",
"344 225 OFFCURVE",
"344 265 CURVE",
"344 304 OFFCURVE",
"349 319 OFFCURVE",
"362 319 CURVE",
"375 319 OFFCURVE",
"380 304 OFFCURVE",
"380 265 CURVE",
"380 225 OFFCURVE",
"375 210 OFFCURVE",
"362 210 CURVE"
);
}
);
width = 742;
},
{
anchors = (
{
name = topright;
position = "{695, 751}";
}
);
associatedMasterId = "639D56B4-59BE-4993-85FD-8F80ECD3B0F6";
background = {
paths = (
{
closed = 1;
nodes = (
"785 -88 LINE",
"689 -37 LINE",
"894 108 LINE",
"949 -8 LINE",
"756 230 LINE",
"728 100 LINE",
"808 179 OFFCURVE",
"845 269 OFFCURVE",
"845 358 CURVE SMOOTH",
"845 543 OFFCURVE",
"683 666 OFFCURVE",
"426 666 CURVE SMOOTH",
"187 666 OFFCURVE",
"22 560 OFFCURVE",
"22 397 CURVE SMOOTH",
"22 317 OFFCURVE",
"62 235 OFFCURVE",
"173 170 CURVE",
"233 282 LINE",
"202 309 OFFCURVE",
"187 344 OFFCURVE",
"187 375 CURVE SMOOTH",
"187 454 OFFCURVE",
"287 506 OFFCURVE",
"418 506 CURVE SMOOTH",
"578 506 OFFCURVE",
"671 429 OFFCURVE",
"671 315 CURVE SMOOTH",
"671 261 OFFCURVE",
"650 205 OFFCURVE",
"611 157 CURVE"
);
}
);
};
layerId = "222AF526-3685-4065-9736-C61F3A606A78";
name = "Black ]141]";
paths = (
{
closed = 1;
nodes = (
"610 250 LINE",
"727.791 84.145 LINE",
"868.173 183.439 LINE",
"755 323 LINE",
"725 193 LINE",
"811 271 OFFCURVE",
"845 358 OFFCURVE",
"845 440 CURVE",
"845 647 OFFCURVE",
"625 758 OFFCURVE",
"414 758 CURVE",
"214 758 OFFCURVE",
"22 664 OFFCURVE",
"22 485 CURVE",
"22 410 OFFCURVE",
"56 333 OFFCURVE",
"173 263 CURVE",
"233 375 LINE",
"201 404 OFFCURVE",
"186 434 OFFCURVE",
"186 466 CURVE",
"186 549 OFFCURVE",
"291 599 OFFCURVE",
"404 599 CURVE",
"532 599 OFFCURVE",
"671 534 OFFCURVE",
"671 393 CURVE",
"671 346 OFFCURVE",
"655 294 OFFCURVE",
"610 250 CURVE"
);
},
{
closed = 1;
nodes = (
"238 85 LINE",
"323 85 OFFCURVE",
"373 160 OFFCURVE",
"373 265 CURVE",
"373 373 OFFCURVE",
"323 444 OFFCURVE",
"238 444 CURVE",
"152 444 OFFCURVE",
"90 378 OFFCURVE",
"90 261 CURVE",
"90 151 OFFCURVE",
"152 85 OFFCURVE",
"238 85 CURVE"
);
},
{
closed = 1;
nodes = (
"243 219 LINE",
"223 219 OFFCURVE",
"214 236 OFFCURVE",
"214 265 CURVE",
"214 294 OFFCURVE",
"223 310 OFFCURVE",
"243 310 CURVE",
"263 310 OFFCURVE",
"272 296 OFFCURVE",
"272 265 CURVE",
"272 235 OFFCURVE",
"263 219 OFFCURVE",
"243 219 CURVE"
);
},
{
closed = 1;
nodes = (
"446 85 LINE",
"530 85 OFFCURVE",
"590 153 OFFCURVE",
"590 264 CURVE",
"590 378 OFFCURVE",
"532 444 OFFCURVE",
"445 444 CURVE",
"361 444 OFFCURVE",
"303 373 OFFCURVE",
"303 265 CURVE",
"303 160 OFFCURVE",
"361 85 OFFCURVE",
"446 85 CURVE"
);
},
{
closed = 1;
nodes = (
"437 219 LINE",
"417 219 OFFCURVE",
"408 235 OFFCURVE",
"408 265 CURVE",
"408 296 OFFCURVE",
"417 310 OFFCURVE",
"437 310 CURVE",
"457 310 OFFCURVE",
"466 294 OFFCURVE",
"466 265 CURVE",
"466 236 OFFCURVE",
"457 219 OFFCURVE",
"437 219 CURVE"
);
}
);
width = 876;
}
);
note = iorya;
unicode = 0B07;
},
{
glyphname = "ii-oriya";
lastChange = "2019-12-12 03:39:53 +0000";
layers = (
{
anchors = (
{
name = topright;
position = "{642, 751}";
}
);
layerId = "926CF2F4-31F1-4036-BA3C-0F7EE51EF36A";
paths = (
{
closed = 1;
nodes = (
"586 245 LINE",
"705.764 84.775 LINE",
"726.64 101.573 LINE",
"612 251 LINE",
"606 229 LINE",
"675 296 OFFCURVE",
"707 376 OFFCURVE",
"707 466 CURVE",
"707 657 OFFCURVE",
"571 759 OFFCURVE",
"437 759 CURVE",
"336 759 OFFCURVE",
"235 701 OFFCURVE",
"194 582 CURVE",
"225 589 LINE",
"263 688 OFFCURVE",
"349 735 OFFCURVE",
"436 735 CURVE",
"557 735 OFFCURVE",
"681 643 OFFCURVE",
"681 468 CURVE",
"681 379 OFFCURVE",
"651 305 OFFCURVE",
"586 245 CURVE"
);
},
{
closed = 1;
nodes = (
"231 85 LINE",
"302 85 OFFCURVE",
"337 145 OFFCURVE",
"337 252 CURVE",
"337 359 OFFCURVE",
"302 419 OFFCURVE",
"231 419 CURVE",
"162 419 OFFCURVE",
"120 360 OFFCURVE",
"120 252 CURVE",
"120 145 OFFCURVE",
"161 85 OFFCURVE",
"231 85 CURVE"
);
},
{
closed = 1;
nodes = (
"231 109 LINE",
"179 109 OFFCURVE",
"146 159 OFFCURVE",
"146 253 CURVE",
"146 345 OFFCURVE",
"178 395 OFFCURVE",
"231 395 CURVE",
"286 395 OFFCURVE",
"314 344 OFFCURVE",
"314 253 CURVE",
"314 159 OFFCURVE",
"284 109 OFFCURVE",
"231 109 CURVE"
);
},
{
closed = 1;
nodes = (
"426 85 LINE",
"496 85 OFFCURVE",
"534 145 OFFCURVE",
"534 252 CURVE",
"534 359 OFFCURVE",
"496 419 OFFCURVE",
"426 419 CURVE",
"356 419 OFFCURVE",
"317 360 OFFCURVE",
"317 252 CURVE",
"317 145 OFFCURVE",
"356 85 OFFCURVE",
"426 85 CURVE"
);
},
{
closed = 1;
nodes = (
"426 109 LINE",
"373 109 OFFCURVE",
"340 159 OFFCURVE",
"340 253 CURVE",
"340 345 OFFCURVE",
"372 395 OFFCURVE",
"426 395 CURVE",
"480 395 OFFCURVE",
"508 344 OFFCURVE",
"508 253 CURVE",
"508 159 OFFCURVE",
"478 109 OFFCURVE",
"426 109 CURVE"
);
},
{
closed = 1;
nodes = (
"129 286 LINE",
"137 310 LINE",
"90 337 OFFCURVE",
"64 387 OFFCURVE",
"64 438 CURVE",
"64 527 OFFCURVE",
"143 582 OFFCURVE",
"230 582 CURVE",
"283.401 582 OFFCURVE",
"340.898 561.52 OFFCURVE",
"384.696 514.627 CURVE",
"402.788 533.672 LINE",
"357.205 582.89 OFFCURVE",
"293.777 606 OFFCURVE",
"232 606 CURVE",
"132 606 OFFCURVE",
"38 545 OFFCURVE",
"38 439 CURVE",
"38 378 OFFCURVE",
"69 319 OFFCURVE",
"129 286 CURVE"
);
}
);
width = 751;
},
{
anchors = (
{
name = topright;
position = "{705, 751}";
}
);
guideLines = (
{
position = "{1043, 342}";
}
);
layerId = "639D56B4-59BE-4993-85FD-8F80ECD3B0F6";
paths = (
{
closed = 1;
nodes = (
"610 250 LINE",
"727.791 84.145 LINE",
"868.173 183.439 LINE",
"755 323 LINE",
"727 193 LINE",
"815 272 OFFCURVE",
"855 362 OFFCURVE",
"855 453 CURVE",
"855 634 OFFCURVE",
"695 759 OFFCURVE",
"469 759 CURVE",
"282 759 OFFCURVE",
"118 672 OFFCURVE",
"118 448 CURVE",
"309 560 LINE",
"335 590 OFFCURVE",
"377 609 OFFCURVE",
"445 609 CURVE",
"597 609 OFFCURVE",
"680 513 OFFCURVE",
"680 409 CURVE",
"680 354 OFFCURVE",
"657 298 OFFCURVE",
"610 250 CURVE"
);
},
{
closed = 1;
nodes = (
"235 85 LINE",
"324 85 OFFCURVE",
"373 160 OFFCURVE",
"373 261 CURVE",
"373 363 OFFCURVE",
"323 434 OFFCURVE",
"236 434 CURVE",
"150 434 OFFCURVE",
"90 364 OFFCURVE",
"90 258 CURVE",
"90 150 OFFCURVE",
"152 85 OFFCURVE",
"235 85 CURVE"
);
},
{
closed = 1;
nodes = (
"243 208 LINE",
"220 208 OFFCURVE",
"210 227 OFFCURVE",
"210 260 CURVE",
"210 293 OFFCURVE",
"220 311 OFFCURVE",
"243 311 CURVE",
"266 311 OFFCURVE",
"276 295 OFFCURVE",
"276 260 CURVE",
"276 226 OFFCURVE",
"266 208 OFFCURVE",
"243 208 CURVE"
);
},
{
closed = 1;
nodes = (
"447 85 LINE",
"530 85 OFFCURVE",
"590 153 OFFCURVE",
"590 261 CURVE",
"590 368 OFFCURVE",
"531 434 OFFCURVE",
"448 434 CURVE",
"361 434 OFFCURVE",
"303 363 OFFCURVE",
"303 261 CURVE",
"303 160 OFFCURVE",
"360 85 OFFCURVE",
"447 85 CURVE"
);
},
{
closed = 1;
nodes = (
"437 208 LINE",
"414 208 OFFCURVE",
"404 226 OFFCURVE",
"404 260 CURVE",
"404 295 OFFCURVE",
"414 311 OFFCURVE",
"437 311 CURVE",
"459 311 OFFCURVE",
"470 293 OFFCURVE",
"470 260 CURVE",
"470 227 OFFCURVE",
"460 208 OFFCURVE",
"437 208 CURVE"
);
},
{
closed = 1;
nodes = (
"170 243 LINE",
"224 335 LINE",
"196 355 OFFCURVE",
"182 379 OFFCURVE",
"182 401 CURVE",
"182 438 OFFCURVE",
"224 466 OFFCURVE",
"278 466 CURVE",
"318.137 466 OFFCURVE",
"356.178 453.008 OFFCURVE",
"378.016 432.722 CURVE",
"462.302 541.006 LINE",
"411.459 586.822 OFFCURVE",
"330.425 610 OFFCURVE",
"258 610 CURVE",
"125 610 OFFCURVE",
"22 532 OFFCURVE",
"22 422 CURVE",
"22 350 OFFCURVE",
"67 284 OFFCURVE",
"170 243 CURVE"
);
}
);
width = 876;
},
{
anchors = (
{
name = topright;
position = "{502, 751}";
}
);
layerId = "EAF3E1E9-0001-42EF-B2A4-765526B8C83B";
paths = (
{
closed = 1;
nodes = (
"449 244 LINE",
"540.566 84.791 LINE",
"560.946 97.378 LINE",
"475 249 LINE",
"472 233 LINE",
"518 300 OFFCURVE",
"547 381 OFFCURVE",
"547 480 CURVE",
"547 664 OFFCURVE",
"447 759 OFFCURVE",
"340 759 CURVE",
"252 759 OFFCURVE",
"177 696 OFFCURVE",
"149 582 CURVE",
"179 590 LINE",
"205 682 OFFCURVE",
"266 734 OFFCURVE",
"340 734 CURVE",
"439 734 OFFCURVE",
"521 639 OFFCURVE",
"521 478 CURVE",
"521 384 OFFCURVE",
"493 306 OFFCURVE",
"449 244 CURVE"
);
},
{
closed = 1;
nodes = (
"180 85 LINE",
"237 85 OFFCURVE",
"265 146 OFFCURVE",
"265 252 CURVE",
"265 358 OFFCURVE",
"237 419 OFFCURVE",
"180 419 CURVE",
"126 419 OFFCURVE",
"93 360 OFFCURVE",
"93 252 CURVE",
"93 145 OFFCURVE",
"125 85 OFFCURVE",
"180 85 CURVE"
);
},
{
closed = 1;
nodes = (
"181 110 LINE",
"142 110 OFFCURVE",
"119 160 OFFCURVE",
"119 253 CURVE",
"119 342 OFFCURVE",
"140 394 OFFCURVE",
"181 394 CURVE",
"222 394 OFFCURVE",
"243 343 OFFCURVE",
"243 253 CURVE",
"243 160 OFFCURVE",
"220 110 OFFCURVE",
"181 110 CURVE"
);
},
{
closed = 1;
nodes = (
"332 85 LINE",
"387 85 OFFCURVE",
"419 144 OFFCURVE",
"419 252 CURVE",
"419 359 OFFCURVE",
"388 419 OFFCURVE",
"331 419 CURVE",
"278 419 OFFCURVE",
"247 360 OFFCURVE",
"247 252 CURVE",
"247 145 OFFCURVE",
"277 85 OFFCURVE",
"332 85 CURVE"
);
},
{
closed = 1;
nodes = (
"331 110 LINE",
"292 110 OFFCURVE",
"269 161 OFFCURVE",
"269 253 CURVE",
"269 344 OFFCURVE",
"292 394 OFFCURVE",
"331 394 CURVE",
"372 394 OFFCURVE",
"393 343 OFFCURVE",
"393 253 CURVE",
"393 161 OFFCURVE",
"371 110 OFFCURVE",
"331 110 CURVE"
);
},
{
closed = 1;
nodes = (
"95 287 LINE",
"103 315 LINE",
"70 342 OFFCURVE",
"54 384 OFFCURVE",
"54 427 CURVE",
"54 521 OFFCURVE",
"118 581 OFFCURVE",
"185 581 CURVE",
"224.067 581 OFFCURVE",
"263.96 561.189 OFFCURVE",
"293.429 515.568 CURVE",
"311.889 530.997 LINE",
"278.939 582.611 OFFCURVE",
"231.536 606 OFFCURVE",
"185 606 CURVE",
"105 606 OFFCURVE",
"28 538 OFFCURVE",
"28 429 CURVE",
"28 375 OFFCURVE",
"49 322 OFFCURVE",
"95 287 CURVE"
);
}
);
width = 581;
},
{
anchors = (
{
name = topright;
position = "{558, 751}";
}
);
guideLines = (
{
position = "{391, 221}";
}
);
layerId = "A6029D4D-1571-45DB-86AE-EDC9D2308E6F";
paths = (
{
closed = 1;
nodes = (
"491 250 LINE",
"590.756 84.887 LINE",
"728.14 173.109 LINE",
"620 334 LINE",
"599 193 LINE",
"659 268 OFFCURVE",
"688 363 OFFCURVE",
"688 453 CURVE",
"688 655 OFFCURVE",
"543 759 OFFCURVE",
"386 759 CURVE",
"215 759 OFFCURVE",
"110 635 OFFCURVE",
"102 510 CURVE",
"238 510 LINE",
"253 573 OFFCURVE",
"305 613 OFFCURVE",
"376 613 CURVE",
"465 613 OFFCURVE",
"536 551 OFFCURVE",
"536 424 CURVE",
"536 363 OFFCURVE",
"520 298 OFFCURVE",
"491 250 CURVE"
);
},
{
closed = 1;
nodes = (
"202 85 LINE",
"270 85 OFFCURVE",
"307 155 OFFCURVE",
"307 261 CURVE",
"307 368 OFFCURVE",
"269 434 OFFCURVE",
"204 434 CURVE",
"136 434 OFFCURVE",
"86 367 OFFCURVE",
"86 259 CURVE",
"86 151 OFFCURVE",
"136 85 OFFCURVE",
"202 85 CURVE"
);
},
{
closed = 1;
nodes = (
"208 202 LINE",
"193 202 OFFCURVE",
"186 222 OFFCURVE",
"186 260 CURVE",
"186 298 OFFCURVE",
"193 317 OFFCURVE",
"208 317 CURVE",
"223 317 OFFCURVE",
"230 301 OFFCURVE",
"230 260 CURVE",
"230 221 OFFCURVE",
"223 202 OFFCURVE",
"208 202 CURVE"
);
},
{
closed = 1;
nodes = (
"358 85 LINE",
"423 85 OFFCURVE",
"471 152 OFFCURVE",
"471 261 CURVE",
"471 367 OFFCURVE",
"425 434 OFFCURVE",
"356 434 CURVE",
"291 434 OFFCURVE",
"248 368 OFFCURVE",
"248 260 CURVE",
"248 155 OFFCURVE",
"291 85 OFFCURVE",
"358 85 CURVE"
);
},
{
closed = 1;
nodes = (
"349 202 LINE",
"334 202 OFFCURVE",
"327 221 OFFCURVE",
"327 260 CURVE",
"327 301 OFFCURVE",
"334 317 OFFCURVE",
"349 317 CURVE",
"364 317 OFFCURVE",
"371 298 OFFCURVE",
"371 260 CURVE",
"371 222 OFFCURVE",
"364 202 OFFCURVE",
"349 202 CURVE"
);
},
{
closed = 1;
nodes = (
"141 243 LINE",
"176 335 LINE",
"152 355 OFFCURVE",
"138 380 OFFCURVE",
"138 404 CURVE",
"138 444 OFFCURVE",
"179 466 OFFCURVE",
"223 466 CURVE",
"250.979 466 OFFCURVE",
"280.228 457.109 OFFCURVE",
"300.554 438.501 CURVE",
"370.816 526.872 LINE",
"330.51 574.224 OFFCURVE",
"269.899 597 OFFCURVE",
"210 597 CURVE",
"112 597 OFFCURVE",
"16 535 OFFCURVE",
"16 419 CURVE",
"16 351 OFFCURVE",
"49 284 OFFCURVE",
"141 243 CURVE"
);
}
);
width = 726;
},
{
anchors = (
{
name = topright;
position = "{705, 751}";
}
);
associatedMasterId = "639D56B4-59BE-4993-85FD-8F80ECD3B0F6";
background = {
paths = (
{
closed = 1;
nodes = (
"785 -88 LINE",
"689 -37 LINE",
"894 108 LINE",
"949 -8 LINE",
"756 230 LINE",
"728 100 LINE",
"808 179 OFFCURVE",
"845 269 OFFCURVE",
"845 358 CURVE SMOOTH",
"845 542 OFFCURVE",
"688 666 OFFCURVE",
"468 666 CURVE SMOOTH",
"282 666 OFFCURVE",
"118 579 OFFCURVE",
"118 355 CURVE",
"309 467 LINE",
"335 497 OFFCURVE",
"376 516 OFFCURVE",
"448 516 CURVE SMOOTH",
"592 516 OFFCURVE",
"670 420 OFFCURVE",
"670 313 CURVE SMOOTH",
"670 261 OFFCURVE",
"650 205 OFFCURVE",
"611 157 CURVE"
);
},
{
closed = 1;
nodes = (
"323 -8 OFFCURVE",
"373 62 OFFCURVE",
"373 162 CURVE SMOOTH",
"373 265 OFFCURVE",
"323 331 OFFCURVE",
"238 331 CURVE SMOOTH",
"152 331 OFFCURVE",
"90 265 OFFCURVE",
"90 158 CURVE SMOOTH",
"90 58 OFFCURVE",
"152 -8 OFFCURVE",
"238 -8 CURVE SMOOTH"
);
},
{
closed = 1;
nodes = (
"223 116 OFFCURVE",
"214 133 OFFCURVE",
"214 162 CURVE SMOOTH",
"214 191 OFFCURVE",
"223 207 OFFCURVE",
"243 207 CURVE SMOOTH",
"263 207 OFFCURVE",
"272 193 OFFCURVE",
"272 162 CURVE SMOOTH",
"272 132 OFFCURVE",
"263 116 OFFCURVE",
"243 116 CURVE SMOOTH"
);
},
{
closed = 1;
nodes = (
"530 -8 OFFCURVE",
"590 60 OFFCURVE",
"590 161 CURVE SMOOTH",
"590 265 OFFCURVE",
"532 331 OFFCURVE",
"445 331 CURVE SMOOTH",
"361 331 OFFCURVE",
"303 265 OFFCURVE",
"303 162 CURVE SMOOTH",
"303 62 OFFCURVE",
"361 -8 OFFCURVE",
"446 -8 CURVE SMOOTH"
);
},
{
closed = 1;
nodes = (
"417 116 OFFCURVE",
"408 132 OFFCURVE",
"408 162 CURVE SMOOTH",
"408 193 OFFCURVE",
"417 207 OFFCURVE",
"437 207 CURVE SMOOTH",
"457 207 OFFCURVE",
"466 191 OFFCURVE",
"466 162 CURVE SMOOTH",
"466 133 OFFCURVE",
"457 116 OFFCURVE",
"437 116 CURVE SMOOTH"
);
},
{
closed = 1;
nodes = (
"224 242 LINE",
"196 262 OFFCURVE",
"182 286 OFFCURVE",
"182 308 CURVE SMOOTH",
"182 345 OFFCURVE",
"224 367 OFFCURVE",
"278 367 CURVE SMOOTH",
"330 367 OFFCURVE",
"386 347 OFFCURVE",
"386 306 CURVE",
"365 323 LINE",
"509 508 LINE",
"492 413 LINE",
"449 482 OFFCURVE",
"347 517 OFFCURVE",
"258 517 CURVE SMOOTH",
"125 517 OFFCURVE",
"22 439 OFFCURVE",
"22 329 CURVE SMOOTH",
"22 257 OFFCURVE",
"67 191 OFFCURVE",
"170 150 CURVE"
);
}
);
};
layerId = "C5476748-7055-40E9-AC34-F73A97E7ABB6";
name = "Black ]141]";
paths = (
{
closed = 1;
nodes = (
"610 250 LINE",
"727.791 84.145 LINE",
"868.173 183.439 LINE",
"755 323 LINE",
"727 193 LINE",
"815 272 OFFCURVE",
"855 362 OFFCURVE",
"855 453 CURVE",
"855 634 OFFCURVE",
"695 759 OFFCURVE",
"469 759 CURVE",
"282 759 OFFCURVE",
"118 672 OFFCURVE",
"118 448 CURVE",
"309 560 LINE",
"335 590 OFFCURVE",
"377 609 OFFCURVE",
"445 609 CURVE",
"597 609 OFFCURVE",
"680 513 OFFCURVE",
"680 409 CURVE",
"680 354 OFFCURVE",
"657 298 OFFCURVE",
"610 250 CURVE"
);
},
{
closed = 1;
nodes = (
"238 85 LINE",
"323 85 OFFCURVE",
"373 160 OFFCURVE",
"373 260 CURVE",
"373 363 OFFCURVE",
"323 434 OFFCURVE",
"238 434 CURVE",
"152 434 OFFCURVE",
"90 368 OFFCURVE",
"90 256 CURVE",
"90 151 OFFCURVE",
"152 85 OFFCURVE",
"238 85 CURVE"
);
},
{
closed = 1;
nodes = (
"243 214 LINE",
"223 214 OFFCURVE",
"214 231 OFFCURVE",
"214 260 CURVE",
"214 289 OFFCURVE",
"223 305 OFFCURVE",
"243 305 CURVE",
"263 305 OFFCURVE",
"272 291 OFFCURVE",
"272 260 CURVE",
"272 230 OFFCURVE",
"263 214 OFFCURVE",
"243 214 CURVE"
);
},
{
closed = 1;
nodes = (
"446 85 LINE",
"530 85 OFFCURVE",
"590 153 OFFCURVE",
"590 259 CURVE",
"590 368 OFFCURVE",
"532 434 OFFCURVE",
"445 434 CURVE",
"361 434 OFFCURVE",
"303 363 OFFCURVE",
"303 260 CURVE",
"303 160 OFFCURVE",
"361 85 OFFCURVE",
"446 85 CURVE"
);
},
{
closed = 1;
nodes = (
"437 214 LINE",
"417 214 OFFCURVE",
"408 230 OFFCURVE",
"408 260 CURVE",
"408 291 OFFCURVE",
"417 305 OFFCURVE",
"437 305 CURVE",
"457 305 OFFCURVE",
"466 289 OFFCURVE",
"466 260 CURVE",
"466 231 OFFCURVE",
"457 214 OFFCURVE",
"437 214 CURVE"
);
},
{
closed = 1;
nodes = (
"170 243 LINE",
"224 335 LINE",
"196 355 OFFCURVE",
"182 379 OFFCURVE",
"182 401 CURVE",
"182 438 OFFCURVE",
"224 460 OFFCURVE",
"278 460 CURVE",
"315.651 460 OFFCURVE",
"355.399 449.515 OFFCURVE",
"374.469 428.165 CURVE",
"462.302 541.006 LINE",
"411.459 586.822 OFFCURVE",
"330.425 610 OFFCURVE",
"258 610 CURVE",
"125 610 OFFCURVE",
"22 532 OFFCURVE",
"22 422 CURVE",
"22 350 OFFCURVE",
"67 284 OFFCURVE",
"170 243 CURVE"
);
}
);
width = 876;
},
{
anchors = (
{
name = topright;
position = "{558, 751}";
}
);
associatedMasterId = "A6029D4D-1571-45DB-86AE-EDC9D2308E6F";
background = {
paths = (
{
closed = 1;
nodes = (
"625 -92 LINE",
"545 -36 LINE",
"744 69 LINE",
"768 -3 LINE",
"612 230 LINE",
"599 100 LINE",
"659 175 OFFCURVE",
"688 270 OFFCURVE",
"688 360 CURVE SMOOTH",
"688 562 OFFCURVE",
"543 666 OFFCURVE",
"386 666 CURVE SMOOTH",
"215 666 OFFCURVE",
"110 542 OFFCURVE",
"102 417 CURVE",
"238 417 LINE",
"253 480 OFFCURVE",
"305 520 OFFCURVE",
"376 520 CURVE SMOOTH",
"465 520 OFFCURVE",
"536 458 OFFCURVE",
"536 331 CURVE SMOOTH",
"536 270 OFFCURVE",
"520 205 OFFCURVE",
"491 157 CURVE"
);
},
{
closed = 1;
nodes = (
"270 -8 OFFCURVE",
"307 62 OFFCURVE",
"307 168 CURVE SMOOTH",
"307 275 OFFCURVE",
"269 341 OFFCURVE",
"204 341 CURVE SMOOTH",
"136 341 OFFCURVE",
"86 274 OFFCURVE",
"86 166 CURVE SMOOTH",
"86 58 OFFCURVE",
"136 -8 OFFCURVE",
"202 -8 CURVE SMOOTH"
);
},
{
closed = 1;
nodes = (
"193 109 OFFCURVE",
"186 129 OFFCURVE",
"186 167 CURVE SMOOTH",
"186 205 OFFCURVE",
"193 224 OFFCURVE",
"208 224 CURVE SMOOTH",
"223 224 OFFCURVE",
"230 208 OFFCURVE",
"230 167 CURVE SMOOTH",
"230 128 OFFCURVE",
"223 109 OFFCURVE",
"208 109 CURVE SMOOTH"
);
},
{
closed = 1;
nodes = (
"423 -8 OFFCURVE",
"471 59 OFFCURVE",
"471 168 CURVE SMOOTH",
"471 274 OFFCURVE",
"425 341 OFFCURVE",
"356 341 CURVE SMOOTH",
"291 341 OFFCURVE",
"248 275 OFFCURVE",
"248 167 CURVE SMOOTH",
"248 62 OFFCURVE",
"291 -8 OFFCURVE",
"358 -8 CURVE SMOOTH"
);
},
{
closed = 1;
nodes = (
"334 109 OFFCURVE",
"327 128 OFFCURVE",
"327 167 CURVE SMOOTH",
"327 208 OFFCURVE",
"334 224 OFFCURVE",
"349 224 CURVE SMOOTH",
"364 224 OFFCURVE",
"371 205 OFFCURVE",
"371 167 CURVE SMOOTH",
"371 129 OFFCURVE",
"364 109 OFFCURVE",
"349 109 CURVE SMOOTH"
);
},
{
closed = 1;
nodes = (
"176 242 LINE",
"152 262 OFFCURVE",
"138 287 OFFCURVE",
"138 311 CURVE SMOOTH",
"138 351 OFFCURVE",
"179 373 OFFCURVE",
"223 373 CURVE SMOOTH",
"266 373 OFFCURVE",
"312 352 OFFCURVE",
"324 307 CURVE",
"287 336 LINE",
"384 458 LINE",
"391 405 LINE",
"353 472 OFFCURVE",
"281 504 OFFCURVE",
"210 504 CURVE SMOOTH",
"112 504 OFFCURVE",
"16 442 OFFCURVE",
"16 326 CURVE SMOOTH",
"16 258 OFFCURVE",
"49 191 OFFCURVE",
"141 150 CURVE"
);
}
);
};
layerId = "A5C5A025-1F13-4A90-B188-604E0E32CEA3";
name = "ExtraCondensed Black ]141]";
paths = (
{
closed = 1;
nodes = (
"491 250 LINE",
"590.756 84.887 LINE",
"728.14 173.109 LINE",
"620 334 LINE",
"599 193 LINE",
"659 268 OFFCURVE",
"688 363 OFFCURVE",
"688 453 CURVE",
"688 655 OFFCURVE",
"543 759 OFFCURVE",
"386 759 CURVE",
"215 759 OFFCURVE",
"110 635 OFFCURVE",
"102 510 CURVE",
"238 510 LINE",
"253 573 OFFCURVE",
"305 613 OFFCURVE",
"376 613 CURVE",
"465 613 OFFCURVE",
"536 551 OFFCURVE",
"536 424 CURVE",
"536 363 OFFCURVE",
"520 298 OFFCURVE",
"491 250 CURVE"
);
},
{
closed = 1;
nodes = (
"196 85 LINE",
"267 85 OFFCURVE",
"304 156 OFFCURVE",
"304 267 CURVE",
"304 378 OFFCURVE",
"267 444 OFFCURVE",
"198 444 CURVE",
"129 444 OFFCURVE",
"76 377 OFFCURVE",
"76 263 CURVE",
"76 148 OFFCURVE",
"130 85 OFFCURVE",
"196 85 CURVE"
);
},
{
closed = 1;
nodes = (
"205 210 LINE",
"192 210 OFFCURVE",
"187 225 OFFCURVE",
"187 265 CURVE",
"187 304 OFFCURVE",
"192 319 OFFCURVE",
"205 319 CURVE",
"218 319 OFFCURVE",
"223 304 OFFCURVE",
"223 265 CURVE",
"223 225 OFFCURVE",
"218 210 OFFCURVE",
"205 210 CURVE"
);
},
{
closed = 1;
nodes = (
"362 85 LINE",
"429 85 OFFCURVE",
"481 151 OFFCURVE",
"481 265 CURVE",
"481 377 OFFCURVE",
"431 444 OFFCURVE",
"362 444 CURVE",
"291 444 OFFCURVE",
"251 375 OFFCURVE",
"251 267 CURVE",
"251 155 OFFCURVE",
"294 85 OFFCURVE",
"362 85 CURVE"
);
},
{
closed = 1;
nodes = (
"352 210 LINE",
"339 210 OFFCURVE",
"334 225 OFFCURVE",
"334 265 CURVE",
"334 304 OFFCURVE",
"339 319 OFFCURVE",
"352 319 CURVE",
"365 319 OFFCURVE",
"370 304 OFFCURVE",
"370 265 CURVE",
"370 225 OFFCURVE",
"365 210 OFFCURVE",
"352 210 CURVE"
);
},
{
closed = 1;
nodes = (
"141 243 LINE",
"176 335 LINE",
"152 355 OFFCURVE",
"138 380 OFFCURVE",
"138 402 CURVE",
"138 441 OFFCURVE",
"174 461 OFFCURVE",
"215 461 CURVE",
"241.642 461 OFFCURVE",
"270.587 452.171 OFFCURVE",
"291.609 434.512 CURVE",
"370.467 528.833 LINE",
"329.824 575.944 OFFCURVE",
"270.201 598 OFFCURVE",
"212 598 CURVE",
"113 598 OFFCURVE",
"16 534 OFFCURVE",
"16 419 CURVE",
"16 351 OFFCURVE",
"49 284 OFFCURVE",
"141 243 CURVE"
);
}
);
width = 726;
}
);
note = iiorya;
rightMetricsKey = "i-oriya";
unicode = 0B08;
},
{
glyphname = "u-oriya";
lastChange = "2019-12-12 03:39:53 +0000";
layers = (
{
anchors = (
{
name = topright;
position = "{632, 751}";
}
);
guideLines = (
{
position = "{364, 373}";
}
);
layerId = "926CF2F4-31F1-4036-BA3C-0F7EE51EF36A";
paths = (
{
closed = 1;
nodes = (
"359 735 LINE",
"540 735 OFFCURVE",
"671 614 OFFCURVE",
"671 467 CURVE",
"671 391 OFFCURVE",
"636 312 OFFCURVE",
"559 245 CURVE",
"679.033 84.682 LINE",
"700.154 102.162 LINE",
"585 251 LINE",
"579 231 LINE",
"658 300 OFFCURVE",
"697 386 OFFCURVE",
"697 468 CURVE",
"697 620 OFFCURVE",
"564 759 OFFCURVE",
"360 759 CURVE",
"198 759 OFFCURVE",
"38 672 OFFCURVE",
"38 505 CURVE",
"38 420 OFFCURVE",
"79 349 OFFCURVE",
"153 297 CURVE",
"163 321 LINE",
"99 365 OFFCURVE",
"64 426 OFFCURVE",
"64 501 CURVE",
"64 655 OFFCURVE",
"211 735 OFFCURVE",
"359 735 CURVE"
);
},
{
closed = 1;
nodes = (
"331 85 LINE",
"420 85 OFFCURVE",
"507 135 OFFCURVE",
"507 234 CURVE",
"507 291 OFFCURVE",
"475 349 OFFCURVE",
"408 383 CURVE",
"389 367 LINE",
"449 337 OFFCURVE",
"481 289 OFFCURVE",
"481 235 CURVE",
"481 151 OFFCURVE",
"406 109 OFFCURVE",
"330 109 CURVE",
"251 109 OFFCURVE",
"170 155 OFFCURVE",
"170 250 CURVE",
"170 306 OFFCURVE",
"199 380 OFFCURVE",
"281 450 CURVE",
"265 466 LINE",
"180 395 OFFCURVE",
"144 320 OFFCURVE",
"144 250 CURVE",
"144 139 OFFCURVE",
"238 85 OFFCURVE",
"331 85 CURVE"
);
},
{
closed = 1;
nodes = (
"342 285 LINE",
"479 438 LINE",
"462 453 LINE",
"325 300 LINE"
);
}
);
width = 724;
},
{
anchors = (
{
name = topright;
position = "{695, 751}";
}
);
guideLines = (
{
position = "{199, 431}";
}
);
layerId = "639D56B4-59BE-4993-85FD-8F80ECD3B0F6";
paths = (
{
closed = 1;
nodes = (
"402 599 LINE",
"532 599 OFFCURVE",
"671 534 OFFCURVE",
"671 393 CURVE",
"671 346 OFFCURVE",
"655 294 OFFCURVE",
"611 250 CURVE",
"728.791 84.145 LINE",
"869.173 183.439 LINE",
"756 323 LINE",
"726 193 LINE",
"806 265 OFFCURVE",
"845 358 OFFCURVE",
"845 431 CURVE",
"845 652 OFFCURVE",
"625 758 OFFCURVE",
"413 758 CURVE",
"214 758 OFFCURVE",
"22 665 OFFCURVE",
"22 484 CURVE",
"22 410 OFFCURVE",
"56 333 OFFCURVE",
"173 263 CURVE",
"233 375 LINE",
"202 402 OFFCURVE",
"187 437 OFFCURVE",
"187 460 CURVE",
"187 551 OFFCURVE",
"291 599 OFFCURVE",
"402 599 CURVE"
);
},
{
closed = 1;
nodes = (
"354 84 LINE",
"473 84 OFFCURVE",
"591 149 OFFCURVE",
"591 279 CURVE",
"591 342 OFFCURVE",
"565 395 OFFCURVE",
"478 441 CURVE",
"370 353 LINE",
"430 321 OFFCURVE",
"447 300 OFFCURVE",
"447 275 CURVE",
"447 241 OFFCURVE",
"412 223 OFFCURVE",
"374 223 CURVE",
"326 223 OFFCURVE",
"273 251 OFFCURVE",
"273 314 CURVE",
"273 354 OFFCURVE",
"301 402 OFFCURVE",
"375 448 CURVE",
"314 535 LINE",
"169 465 OFFCURVE",
"109 365 OFFCURVE",
"109 291 CURVE",
"109 152 OFFCURVE",
"232 84 OFFCURVE",
"354 84 CURVE"
);
},
{
closed = 1;
nodes = (
"387 267 LINE",
"565 437 LINE",
"482 524 LINE",
"304 354 LINE"
);
}
);
width = 877;
},
{
anchors = (
{
name = topright;
position = "{464, 751}";
}
);
guideLines = (
{
angle = 90;
position = "{46, 371}";
},
{
position = "{307, 217}";
}
);
layerId = "EAF3E1E9-0001-42EF-B2A4-765526B8C83B";
paths = (
{
closed = 1;
nodes = (
"264 734 LINE",
"373 734 OFFCURVE",
"483 648 OFFCURVE",
"483 468 CURVE",
"483 370 OFFCURVE",
"452 302 OFFCURVE",
"411 244 CURVE",
"502.266 84.89 LINE",
"522.952 97.982 LINE",
"437 249 LINE",
"425 221 LINE",
"472 287 OFFCURVE",
"509 360 OFFCURVE",
"509 469 CURVE",
"509 665 OFFCURVE",
"385 759 OFFCURVE",
"263 759 CURVE",
"144 759 OFFCURVE",
"28 671 OFFCURVE",
"28 502 CURVE",
"28 416 OFFCURVE",
"61 344 OFFCURVE",
"116 297 CURVE",
"121 329 LINE",
"80 369 OFFCURVE",
"54 429 OFFCURVE",
"54 502 CURVE",
"54 654 OFFCURVE",
"158 734 OFFCURVE",
"264 734 CURVE"
);
},
{
closed = 1;
nodes = (
"246 85 LINE",
"334 85 OFFCURVE",
"381 152 OFFCURVE",
"381 230 CURVE",
"381 283 OFFCURVE",
"359 340 OFFCURVE",
"313 383 CURVE",
"298 364 LINE",
"336 329 OFFCURVE",
"355 279 OFFCURVE",
"355 232 CURVE",
"355 167 OFFCURVE",
"318 110 OFFCURVE",
"246 110 CURVE",
"172 110 OFFCURVE",
"129 170 OFFCURVE",
"129 257 CURVE",
"129 334 OFFCURVE",
"163 388 OFFCURVE",
"222 450 CURVE",
"204 466 LINE",
"139 399 OFFCURVE",
"103 341 OFFCURVE",
"103 257 CURVE",
"103 154 OFFCURVE",
"156 85 OFFCURVE",
"246 85 CURVE"
);
},
{
closed = 1;
nodes = (
"254 291 LINE",
"368 438 LINE",
"350 453 LINE",
"236 306 LINE"
);
}
);
width = 543;
},
{
anchors = (
{
name = topright;
position = "{591, 751}";
}
);
guideLines = (
{
position = "{201, 431}";
}
);
layerId = "A6029D4D-1571-45DB-86AE-EDC9D2308E6F";
paths = (
{
closed = 1;
nodes = (
"356 613 LINE",
"498 613 OFFCURVE",
"569 520 OFFCURVE",
"569 409 CURVE",
"569 358 OFFCURVE",
"554 302 OFFCURVE",
"522 250 CURVE",
"621.756 84.887 LINE",
"759.14 173.109 LINE",
"651 334 LINE",
"624 193 LINE",
"690 278 OFFCURVE",
"721 368 OFFCURVE",
"721 451 CURVE",
"721 620 OFFCURVE",
"591 759 OFFCURVE",
"359 759 CURVE",
"129 759 OFFCURVE",
"16 620 OFFCURVE",
"16 490 CURVE",
"16 408 OFFCURVE",
"61 326 OFFCURVE",
"150 277 CURVE",
"206 372 LINE",
"177 393 OFFCURVE",
"163 423 OFFCURVE",
"163 458 CURVE",
"163 529 OFFCURVE",
"221 613 OFFCURVE",
"356 613 CURVE"
);
},
{
closed = 1;
nodes = (
"304 85 LINE",
"421 85 OFFCURVE",
"502 157 OFFCURVE",
"502 261 CURVE",
"502 329 OFFCURVE",
"468 397 OFFCURVE",
"390 436 CURVE",
"326 346 LINE",
"362 325 OFFCURVE",
"379 296 OFFCURVE",
"379 270 CURVE",
"379 237 OFFCURVE",
"352 210 OFFCURVE",
"303 210 CURVE",
"247 210 OFFCURVE",
"220 245 OFFCURVE",
"220 291 CURVE",
"220 341 OFFCURVE",
"249 396 OFFCURVE",
"304 448 CURVE",
"237 529 LINE",
"143 462 OFFCURVE",
"96 373 OFFCURVE",
"96 285 CURVE",
"96 168 OFFCURVE",
"179 85 OFFCURVE",
"304 85 CURVE"
);
},
{
closed = 1;
nodes = (
"320 270 LINE",
"466 447 LINE",
"389 515 LINE",
"243 338 LINE"
);
}
);
width = 757;
},
{
anchors = (
{
name = topright;
position = "{695, 751}";
}
);
annotations = (
{
position = "{589.696, 929.297}";
text = "Need a bracket layer for the normal width";
type = Text;
width = 151;
}
);
associatedMasterId = "639D56B4-59BE-4993-85FD-8F80ECD3B0F6";
background = {
paths = (
{
closed = 1;
nodes = (
"549 506 OFFCURVE",
"663 452 OFFCURVE",
"663 329 CURVE SMOOTH",
"663 276 OFFCURVE",
"642 209 OFFCURVE",
"603 157 CURVE",
"773 -83 LINE",
"684 -36 LINE",
"909 129 LINE",
"941 -3 LINE",
"748 230 LINE",
"702 90 LINE",
"769 156 OFFCURVE",
"827 256 OFFCURVE",
"827 361 CURVE SMOOTH",
"827 544 OFFCURVE",
"649 666 OFFCURVE",
"402 666 CURVE SMOOTH",
"179 666 OFFCURVE",
"22 553 OFFCURVE",
"22 397 CURVE SMOOTH",
"22 305 OFFCURVE",
"74 229 OFFCURVE",
"173 170 CURVE",
"233 282 LINE",
"204 302 OFFCURVE",
"186 344 OFFCURVE",
"186 379 CURVE SMOOTH",
"186 460 OFFCURVE",
"288 506 OFFCURVE",
"411 506 CURVE SMOOTH"
);
},
{
closed = 1;
nodes = (
"470 -8 OFFCURVE",
"583 56 OFFCURVE",
"583 186 CURVE SMOOTH",
"583 249 OFFCURVE",
"557 302 OFFCURVE",
"470 348 CURVE",
"362 260 LINE",
"417 231 OFFCURVE",
"429 209 OFFCURVE",
"429 186 CURVE SMOOTH",
"429 156 OFFCURVE",
"403 140 OFFCURVE",
"363 140 CURVE SMOOTH",
"309 140 OFFCURVE",
"283 179 OFFCURVE",
"283 219 CURVE SMOOTH",
"283 259 OFFCURVE",
"309 305 OFFCURVE",
"379 349 CURVE",
"314 442 LINE",
"166 369 OFFCURVE",
"109 276 OFFCURVE",
"109 190 CURVE SMOOTH",
"109 70 OFFCURVE",
"218 -8 OFFCURVE",
"350 -8 CURVE SMOOTH"
);
},
{
closed = 1;
nodes = (
"565 344 LINE",
"482 431 LINE",
"304 261 LINE",
"387 174 LINE"
);
}
);
};
guideLines = (
{
position = "{199, 431}";
}
);
layerId = "A3749560-4D03-4C95-95C5-91E37C670A39";
name = "Black ]141]";
paths = (
{
closed = 1;
nodes = (
"402 599 LINE",
"532 599 OFFCURVE",
"671 534 OFFCURVE",
"671 393 CURVE",
"671 346 OFFCURVE",
"655 294 OFFCURVE",
"611 250 CURVE",
"728.791 84.145 LINE",
"869.173 183.439 LINE",
"756 323 LINE",
"726 193 LINE",
"806 265 OFFCURVE",
"845 358 OFFCURVE",
"845 431 CURVE",
"845 652 OFFCURVE",
"625 758 OFFCURVE",
"413 758 CURVE",
"214 758 OFFCURVE",
"22 665 OFFCURVE",
"22 484 CURVE",
"22 410 OFFCURVE",
"56 333 OFFCURVE",
"173 263 CURVE",
"233 375 LINE",
"202 402 OFFCURVE",
"187 437 OFFCURVE",
"187 460 CURVE",
"187 551 OFFCURVE",
"291 599 OFFCURVE",
"402 599 CURVE"
);
},
{
closed = 1;
nodes = (
"351 84 LINE",
"471 84 OFFCURVE",
"591 149 OFFCURVE",
"591 279 CURVE",
"591 342 OFFCURVE",
"565 395 OFFCURVE",
"478 441 CURVE",
"370 353 LINE",
"425 324 OFFCURVE",
"437 302 OFFCURVE",
"437 279 CURVE",
"437 249 OFFCURVE",
"406 233 OFFCURVE",
"372 233 CURVE",
"330 233 OFFCURVE",
"283 257 OFFCURVE",
"283 312 CURVE",
"283 352 OFFCURVE",
"309 398 OFFCURVE",
"379 442 CURVE",
"314 535 LINE",
"166 462 OFFCURVE",
"109 369 OFFCURVE",
"109 283 CURVE",
"109 150 OFFCURVE",
"230 84 OFFCURVE",
"351 84 CURVE"
);
},
{
closed = 1;
nodes = (
"387 267 LINE",
"565 437 LINE",
"482 524 LINE",
"304 354 LINE"
);
}
);
width = 877;
},
{
anchors = (
{
name = topright;
position = "{591, 751}";
}
);
associatedMasterId = "A6029D4D-1571-45DB-86AE-EDC9D2308E6F";
background = {
anchors = (
{
name = bottom;
position = "{229, 0}";
},
{
name = nukta;
position = "{302, 10}";
},
{
name = top;
position = "{613, 658}";
},
{
name = topcenter;
position = "{340, 658}";
}
);
paths = (
{
closed = 1;
nodes = (
"489 520 OFFCURVE",
"559 427 OFFCURVE",
"559 317 CURVE SMOOTH",
"559 265 OFFCURVE",
"544 209 OFFCURVE",
"512 157 CURVE",
"641 -83 LINE",
"573 -33 LINE",
"777 77 LINE",
"789 -3 LINE",
"641 241 LINE",
"614 100 LINE",
"680 185 OFFCURVE",
"711 275 OFFCURVE",
"711 358 CURVE SMOOTH",
"711 527 OFFCURVE",
"581 666 OFFCURVE",
"354 666 CURVE SMOOTH",
"126 666 OFFCURVE",
"16 527 OFFCURVE",
"16 390 CURVE SMOOTH",
"16 306 OFFCURVE",
"58 223 OFFCURVE",
"140 174 CURVE",
"198 279 LINE",
"175 300 OFFCURVE",
"163 330 OFFCURVE",
"163 363 CURVE SMOOTH",
"163 436 OFFCURVE",
"219 520 OFFCURVE",
"350 520 CURVE SMOOTH"
);
},
{
closed = 1;
nodes = (
"419 -8 OFFCURVE",
"502 68 OFFCURVE",
"502 172 CURVE SMOOTH",
"502 240 OFFCURVE",
"467 302 OFFCURVE",
"380 343 CURVE",
"306 253 LINE",
"349 232 OFFCURVE",
"369 203 OFFCURVE",
"369 175 CURVE SMOOTH",
"369 140 OFFCURVE",
"335 122 OFFCURVE",
"298 122 CURVE SMOOTH",
"256 122 OFFCURVE",
"210 146 OFFCURVE",
"210 200 CURVE SMOOTH",
"210 246 OFFCURVE",
"241 299 OFFCURVE",
"295 346 CURVE",
"227 436 LINE",
"128 370 OFFCURVE",
"76 281 OFFCURVE",
"76 192 CURVE SMOOTH",
"76 76 OFFCURVE",
"163 -8 OFFCURVE",
"294 -8 CURVE SMOOTH"
);
},
{
closed = 1;
nodes = (
"456 354 LINE",
"375 424 LINE",
"229 247 LINE",
"310 177 LINE"
);
}
);
};
guideLines = (
{
position = "{210, 431}";
}
);
layerId = "1E31A9D6-7D63-4C7F-B9D9-3C3708928829";
name = "ExtraCondensed Black ]141]";
paths = (
{
closed = 1;
nodes = (
"356 613 LINE",
"498 613 OFFCURVE",
"569 520 OFFCURVE",
"569 409 CURVE",
"569 358 OFFCURVE",
"554 302 OFFCURVE",
"522 250 CURVE",
"621.756 84.887 LINE",
"759.14 173.109 LINE",
"651 334 LINE",
"624 193 LINE",
"690 278 OFFCURVE",
"721 368 OFFCURVE",
"721 451 CURVE",
"721 620 OFFCURVE",
"591 759 OFFCURVE",
"359 759 CURVE",
"129 759 OFFCURVE",
"16 620 OFFCURVE",
"16 490 CURVE",
"16 408 OFFCURVE",
"61 326 OFFCURVE",
"150 277 CURVE",
"206 372 LINE",
"177 393 OFFCURVE",
"163 423 OFFCURVE",
"163 458 CURVE",
"163 529 OFFCURVE",
"221 613 OFFCURVE",
"356 613 CURVE"
);
},
{
closed = 1;
nodes = (
"304 85 LINE",
"429 85 OFFCURVE",
"512 161 OFFCURVE",
"512 265 CURVE",
"512 333 OFFCURVE",
"477 395 OFFCURVE",
"390 436 CURVE",
"316 346 LINE",
"359 325 OFFCURVE",
"379 296 OFFCURVE",
"379 268 CURVE",
"379 233 OFFCURVE",
"345 215 OFFCURVE",
"308 215 CURVE",
"266 215 OFFCURVE",
"220 239 OFFCURVE",
"220 293 CURVE",
"220 339 OFFCURVE",
"251 392 OFFCURVE",
"305 439 CURVE",
"237 529 LINE",
"138 463 OFFCURVE",
"86 374 OFFCURVE",
"86 285 CURVE",
"86 169 OFFCURVE",
"173 85 OFFCURVE",
"304 85 CURVE"
);
},
{
closed = 1;
nodes = (
"320 270 LINE",
"466 447 LINE",
"385 517 LINE",
"239 340 LINE"
);
}
);
width = 757;
}
);
note = uorya;
rightMetricsKey = "i-oriya";
unicode = 0B09;
},
{
glyphname = "uu-oriya";
lastChange = "2019-12-12 03:39:53 +0000";
layers = (
{
anchors = (
{
name = topright;
position = "{600, 751}";
}
);
guideLines = (
{
position = "{616, -49}";
}
);
layerId = "926CF2F4-31F1-4036-BA3C-0F7EE51EF36A";
paths = (
{
closed = 1;
nodes = (
"153 297 LINE",
"163 321 LINE",
"99 365 OFFCURVE",
"64 426 OFFCURVE",
"64 498 CURVE",
"64 657 OFFCURVE",
"214 735 OFFCURVE",
"361 735 CURVE",
"503 735 OFFCURVE",
"639 663 OFFCURVE",
"639 527 CURVE",
"639 488 OFFCURVE",
"628 446 OFFCURVE",
"605 403 CURVE",
"634 408 LINE",
"655 447 OFFCURVE",
"665 487 OFFCURVE",
"665 525 CURVE",
"665 680 OFFCURVE",
"514 759 OFFCURVE",
"361 759 CURVE",
"201 759 OFFCURVE",
"38 673 OFFCURVE",
"38 505 CURVE",
"38 420 OFFCURVE",
"79 349 OFFCURVE",
"153 297 CURVE"
);
},
{
closed = 1;
nodes = (
"676.046 67.139 LINE",
"696.757 83.152 LINE",
"577 237 LINE",
"578 215 LINE",
"667 215 OFFCURVE",
"750 245 OFFCURVE",
"750 322 CURVE",
"750 385 OFFCURVE",
"694 418 OFFCURVE",
"634 424 CURVE",
"605 403 LINE",
"664 403 OFFCURVE",
"724 379 OFFCURVE",
"724 322 CURVE",
"724 262 OFFCURVE",
"660 238 OFFCURVE",
"573 239 CURVE",
"559 222 LINE"
);
},
{
closed = 1;
nodes = (
"331 85 LINE",
"420 85 OFFCURVE",
"507 135 OFFCURVE",
"507 234 CURVE",
"507 291 OFFCURVE",
"475 349 OFFCURVE",
"408 383 CURVE",
"389 367 LINE",
"449 337 OFFCURVE",
"481 289 OFFCURVE",
"481 235 CURVE",
"481 151 OFFCURVE",
"406 109 OFFCURVE",
"330 109 CURVE",
"251 109 OFFCURVE",
"170 155 OFFCURVE",
"170 250 CURVE",
"170 306 OFFCURVE",
"199 380 OFFCURVE",
"281 450 CURVE",
"265 466 LINE",
"180 395 OFFCURVE",
"144 320 OFFCURVE",
"144 250 CURVE",
"144 139 OFFCURVE",
"238 85 OFFCURVE",
"331 85 CURVE"
);
},
{
closed = 1;
nodes = (
"342 285 LINE",
"479 438 LINE",
"462 453 LINE",
"325 300 LINE"
);
}
);
width = 788;
},
{
anchors = (
{
name = topright;
position = "{676, 751}";
}
);
guideLines = (
{
position = "{596, -49}";
}
);
layerId = "639D56B4-59BE-4993-85FD-8F80ECD3B0F6";
paths = (
{
closed = 1;
nodes = (
"173 263 LINE",
"233 375 LINE",
"203 399 OFFCURVE",
"187 434 OFFCURVE",
"187 466 CURVE",
"187 542 OFFCURVE",
"277 599 OFFCURVE",
"405 599 CURVE",
"532 599 OFFCURVE",
"652 542 OFFCURVE",
"652 439 CURVE",
"652 422 OFFCURVE",
"649 402 OFFCURVE",
"644 380 CURVE",
"798 389 LINE",
"817 420 OFFCURVE",
"826 453 OFFCURVE",
"826 487 CURVE",
"826 635 OFFCURVE",
"653 759 OFFCURVE",
"412 759 CURVE",
"180 759 OFFCURVE",
"22 645 OFFCURVE",
"22 487 CURVE",
"22 397 OFFCURVE",
"74 322 OFFCURVE",
"173 263 CURVE"
);
},
{
closed = 1;
nodes = (
"741.202 43.215 LINE",
"877.296 145.592 LINE",
"756 287 LINE",
"736 218 LINE",
"874 218 OFFCURVE",
"936 287 OFFCURVE",
"936 353 CURVE",
"936 416 OFFCURVE",
"878 468 OFFCURVE",
"763 468 CURVE",
"644 380 LINE",
"730 380 OFFCURVE",
"758 358 OFFCURVE",
"758 339 CURVE",
"758 314 OFFCURVE",
"720 298 OFFCURVE",
"663 296 CURVE",
"611 229 LINE"
);
},
{
closed = 1;
nodes = (
"354 84 LINE",
"473 84 OFFCURVE",
"591 149 OFFCURVE",
"591 279 CURVE",
"591 342 OFFCURVE",
"565 395 OFFCURVE",
"478 441 CURVE",
"370 353 LINE",
"430 321 OFFCURVE",
"447 300 OFFCURVE",
"447 275 CURVE",
"447 241 OFFCURVE",
"412 223 OFFCURVE",
"374 223 CURVE",
"326 223 OFFCURVE",
"273 252 OFFCURVE",
"273 311 CURVE",
"273 354 OFFCURVE",
"301 402 OFFCURVE",
"375 448 CURVE",
"314 535 LINE",
"168 463 OFFCURVE",
"109 370 OFFCURVE",
"109 284 CURVE",
"109 165 OFFCURVE",
"220 84 OFFCURVE",
"354 84 CURVE"
);
},
{
closed = 1;
nodes = (
"387 267 LINE",
"565 437 LINE",
"482 524 LINE",
"304 354 LINE"
);
}
);
width = 958;
},
{
anchors = (
{
name = topright;
position = "{446, 751}";
}
);
layerId = "EAF3E1E9-0001-42EF-B2A4-765526B8C83B";
paths = (
{
closed = 1;
nodes = (
"111 298 LINE",
"118 327 LINE",
"84 371 OFFCURVE",
"54 431 OFFCURVE",
"54 506 CURVE",
"54 631 OFFCURVE",
"138 734 OFFCURVE",
"264 734 CURVE",
"382 734 OFFCURVE",
"465 643 OFFCURVE",
"465 518 CURVE",
"465 478 OFFCURVE",
"456 437 OFFCURVE",
"440 402 CURVE",
"471 412 LINE",
"484 445 OFFCURVE",
"491 481 OFFCURVE",
"491 518 CURVE",
"491 655 OFFCURVE",
"398 759 OFFCURVE",
"263 759 CURVE",
"124 759 OFFCURVE",
"28 647 OFFCURVE",
"28 506 CURVE",
"28 418 OFFCURVE",
"65 343 OFFCURVE",
"111 298 CURVE"
);
},
{
closed = 1;
nodes = (
"489.178 84.79 LINE",
"509.839 98.244 LINE",
"431 237 LINE",
"426 215 LINE",
"510 216 OFFCURVE",
"554 272 OFFCURVE",
"554 327 CURVE",
"554 372 OFFCURVE",
"524 415 OFFCURVE",
"461 424 CURVE",
"440 402 LINE",
"499 402 OFFCURVE",
"529 364 OFFCURVE",
"529 325 CURVE",
"529 283 OFFCURVE",
"495 240 OFFCURVE",
"422 239 CURVE",
"411 222 LINE"
);
},
{
closed = 1;
nodes = (
"246 85 LINE",
"334 85 OFFCURVE",
"381 152 OFFCURVE",
"381 230 CURVE",
"381 283 OFFCURVE",
"359 340 OFFCURVE",
"313 383 CURVE",
"298 364 LINE",
"336 329 OFFCURVE",
"355 279 OFFCURVE",
"355 232 CURVE",
"355 167 OFFCURVE",
"318 110 OFFCURVE",
"246 110 CURVE",
"172 110 OFFCURVE",
"129 170 OFFCURVE",
"129 257 CURVE",
"129 334 OFFCURVE",
"163 388 OFFCURVE",
"222 450 CURVE",
"204 466 LINE",
"139 399 OFFCURVE",
"103 341 OFFCURVE",
"103 257 CURVE",
"103 154 OFFCURVE",
"156 85 OFFCURVE",
"246 85 CURVE"
);
},
{
closed = 1;
nodes = (
"254 291 LINE",
"368 438 LINE",
"350 453 LINE",
"236 306 LINE"
);
}
);
width = 582;
},
{
anchors = (
{
name = topright;
position = "{572, 751}";
}
);
guideLines = (
{
position = "{424, 232}";
}
);
layerId = "A6029D4D-1571-45DB-86AE-EDC9D2308E6F";
paths = (
{
closed = 1;
nodes = (
"139 282 LINE",
"196 379 LINE",
"173 407 OFFCURVE",
"162 432 OFFCURVE",
"162 463 CURVE",
"162 540 OFFCURVE",
"228 613 OFFCURVE",
"355 613 CURVE",
"473 613 OFFCURVE",
"554 549 OFFCURVE",
"554 456 CURVE",
"554 433 OFFCURVE",
"549 407 OFFCURVE",
"537 380 CURVE",
"686 414 LINE",
"697 445 OFFCURVE",
"702 474 OFFCURVE",
"702 502 CURVE",
"702 651 OFFCURVE",
"559 759 OFFCURVE",
"361 759 CURVE",
"137 759 OFFCURVE",
"16 622 OFFCURVE",
"16 485 CURVE",
"16 407 OFFCURVE",
"56 335 OFFCURVE",
"139 282 CURVE"
);
},
{
closed = 1;
nodes = (
"621.756 84.887 LINE",
"756.198 171.22 LINE",
"655 311 LINE",
"605 226 LINE",
"712 226 OFFCURVE",
"767 288 OFFCURVE",
"767 348 CURVE",
"767 406 OFFCURVE",
"717 462 OFFCURVE",
"616 462 CURVE",
"537 380 LINE",
"596 380 OFFCURVE",
"623 357 OFFCURVE",
"623 335 CURVE",
"623 315 OFFCURVE",
"600 296 OFFCURVE",
"557 296 CURVE",
"522 250 LINE"
);
},
{
closed = 1;
nodes = (
"304 85 LINE",
"423 85 OFFCURVE",
"502 160 OFFCURVE",
"502 265 CURVE",
"502 334 OFFCURVE",
"468 397 OFFCURVE",
"390 436 CURVE",
"326 346 LINE",
"362 325 OFFCURVE",
"379 296 OFFCURVE",
"379 270 CURVE",
"379 237 OFFCURVE",
"352 210 OFFCURVE",
"303 210 CURVE",
"247 210 OFFCURVE",
"220 245 OFFCURVE",
"220 291 CURVE",
"220 341 OFFCURVE",
"249 396 OFFCURVE",
"304 448 CURVE",
"237 529 LINE",
"143 462 OFFCURVE",
"96 373 OFFCURVE",
"96 285 CURVE",
"96 168 OFFCURVE",
"179 85 OFFCURVE",
"304 85 CURVE"
);
},
{
closed = 1;
nodes = (
"320 270 LINE",
"466 447 LINE",
"389 515 LINE",
"243 338 LINE"
);
}
);
width = 783;
},
{
anchors = (
{
name = topright;
position = "{676, 751}";
}
);
annotations = (
{
position = "{589.696, 929.297}";
text = "Need a bracket layer for the normal width";
type = Text;
width = 151;
}
);
associatedMasterId = "639D56B4-59BE-4993-85FD-8F80ECD3B0F6";
background = {
paths = (
{
closed = 1;
nodes = (
"233 282 LINE",
"204 302 OFFCURVE",
"186 344 OFFCURVE",
"186 379 CURVE SMOOTH",
"186 461 OFFCURVE",
"280 506 OFFCURVE",
"427 506 CURVE SMOOTH",
"578 506 OFFCURVE",
"666 458 OFFCURVE",
"666 373 CURVE SMOOTH",
"666 347 OFFCURVE",
"658 318 OFFCURVE",
"644 287 CURVE",
"798 321 LINE",
"826 352 OFFCURVE",
"840 384 OFFCURVE",
"840 422 CURVE SMOOTH",
"840 543 OFFCURVE",
"697 666 OFFCURVE",
"428 666 CURVE SMOOTH",
"171 666 OFFCURVE",
"22 554 OFFCURVE",
"22 398 CURVE SMOOTH",
"22 305 OFFCURVE",
"74 229 OFFCURVE",
"173 170 CURVE"
);
},
{
closed = 1;
nodes = (
"727 -71 LINE",
"943 92 LINE",
"961 -26 LINE",
"764 194 LINE",
"744 125 LINE",
"888 125 OFFCURVE",
"936 207 OFFCURVE",
"936 262 CURVE SMOOTH",
"936 324 OFFCURVE",
"877 375 OFFCURVE",
"762 375 CURVE",
"644 287 LINE",
"724 287 OFFCURVE",
"758 269 OFFCURVE",
"758 246 CURVE SMOOTH",
"758 221 OFFCURVE",
"719 204 OFFCURVE",
"671 203 CURVE",
"619 136 LINE",
"796 -108 LINE"
);
},
{
closed = 1;
nodes = (
"470 -8 OFFCURVE",
"583 56 OFFCURVE",
"583 186 CURVE SMOOTH",
"583 249 OFFCURVE",
"557 302 OFFCURVE",
"470 348 CURVE",
"362 260 LINE",
"417 231 OFFCURVE",
"429 209 OFFCURVE",
"429 186 CURVE SMOOTH",
"429 156 OFFCURVE",
"403 140 OFFCURVE",
"363 140 CURVE SMOOTH",
"309 140 OFFCURVE",
"283 179 OFFCURVE",
"283 219 CURVE SMOOTH",
"283 259 OFFCURVE",
"309 305 OFFCURVE",
"379 349 CURVE",
"314 442 LINE",
"166 369 OFFCURVE",
"109 276 OFFCURVE",
"109 190 CURVE SMOOTH",
"109 70 OFFCURVE",
"218 -8 OFFCURVE",
"350 -8 CURVE SMOOTH"
);
},
{
closed = 1;
nodes = (
"565 344 LINE",
"482 431 LINE",
"304 261 LINE",
"387 174 LINE"
);
}
);
};
layerId = "31C9DFF6-DEB8-407B-AE66-A7E5A61C12B5";
name = "Black ]141]";
paths = (
{
closed = 1;
nodes = (
"173 263 LINE",
"233 375 LINE",
"203 399 OFFCURVE",
"187 434 OFFCURVE",
"187 466 CURVE",
"187 542 OFFCURVE",
"277 599 OFFCURVE",
"405 599 CURVE",
"532 599 OFFCURVE",
"652 542 OFFCURVE",
"652 439 CURVE",
"652 422 OFFCURVE",
"649 402 OFFCURVE",
"644 380 CURVE",
"798 389 LINE",
"817 420 OFFCURVE",
"826 453 OFFCURVE",
"826 487 CURVE",
"826 635 OFFCURVE",
"653 759 OFFCURVE",
"412 759 CURVE",
"180 759 OFFCURVE",
"22 645 OFFCURVE",
"22 487 CURVE",
"22 397 OFFCURVE",
"74 322 OFFCURVE",
"173 263 CURVE"
);
},
{
closed = 1;
nodes = (
"741.202 43.215 LINE",
"877.296 145.592 LINE",
"756 287 LINE",
"736 218 LINE",
"874 218 OFFCURVE",
"936 287 OFFCURVE",
"936 353 CURVE",
"936 416 OFFCURVE",
"878 468 OFFCURVE",
"763 468 CURVE",
"644 380 LINE",
"730 380 OFFCURVE",
"758 358 OFFCURVE",
"758 339 CURVE",
"758 314 OFFCURVE",
"720 298 OFFCURVE",
"663 296 CURVE",
"611 229 LINE"
);
},
{
closed = 1;
nodes = (
"350 85 LINE",
"470 85 OFFCURVE",
"583 149 OFFCURVE",
"583 279 CURVE",
"583 342 OFFCURVE",
"557 395 OFFCURVE",
"470 441 CURVE",
"362 353 LINE",
"417 324 OFFCURVE",
"429 302 OFFCURVE",
"429 279 CURVE",
"429 249 OFFCURVE",
"403 233 OFFCURVE",
"363 233 CURVE",
"309 233 OFFCURVE",
"283 272 OFFCURVE",
"283 312 CURVE",
"283 352 OFFCURVE",
"309 398 OFFCURVE",
"379 442 CURVE",
"314 535 LINE",
"166 462 OFFCURVE",
"109 369 OFFCURVE",
"109 283 CURVE",
"109 163 OFFCURVE",
"218 85 OFFCURVE",
"350 85 CURVE"
);
},
{
closed = 1;
nodes = (
"387 267 LINE",
"565 437 LINE",
"482 524 LINE",
"304 354 LINE"
);
}
);
width = 958;
},
{
anchors = (
{
name = topright;
position = "{572, 751}";
}
);
associatedMasterId = "A6029D4D-1571-45DB-86AE-EDC9D2308E6F";
background = {
anchors = (
{
name = bottom;
position = "{239, 0}";
},
{
name = nukta;
position = "{304, 10}";
},
{
name = top;
position = "{653, 658}";
},
{
name = topcenter;
position = "{361, 658}";
}
);
paths = (
{
closed = 1;
nodes = (
"196 286 LINE",
"173 314 OFFCURVE",
"162 339 OFFCURVE",
"162 370 CURVE SMOOTH",
"162 447 OFFCURVE",
"228 520 OFFCURVE",
"355 520 CURVE SMOOTH",
"473 520 OFFCURVE",
"554 456 OFFCURVE",
"554 363 CURVE SMOOTH",
"554 340 OFFCURVE",
"549 314 OFFCURVE",
"537 287 CURVE",
"686 321 LINE",
"697 352 OFFCURVE",
"702 381 OFFCURVE",
"702 409 CURVE SMOOTH",
"702 558 OFFCURVE",
"559 666 OFFCURVE",
"361 666 CURVE SMOOTH",
"137 666 OFFCURVE",
"16 529 OFFCURVE",
"16 392 CURVE SMOOTH",
"16 314 OFFCURVE",
"56 242 OFFCURVE",
"139 189 CURVE"
);
},
{
closed = 1;
nodes = (
"582 -42 LINE",
"804 77 LINE",
"803 -10 LINE",
"665 218 LINE",
"605 133 LINE",
"712 133 OFFCURVE",
"767 195 OFFCURVE",
"767 255 CURVE SMOOTH",
"767 313 OFFCURVE",
"717 369 OFFCURVE",
"616 369 CURVE",
"537 287 LINE",
"596 287 OFFCURVE",
"623 264 OFFCURVE",
"623 242 CURVE SMOOTH",
"623 222 OFFCURVE",
"600 203 OFFCURVE",
"557 203 CURVE",
"522 157 LINE",
"655 -92 LINE"
);
},
{
closed = 1;
nodes = (
"423 -8 OFFCURVE",
"502 67 OFFCURVE",
"502 172 CURVE SMOOTH",
"502 241 OFFCURVE",
"468 304 OFFCURVE",
"390 343 CURVE",
"326 253 LINE",
"362 232 OFFCURVE",
"379 203 OFFCURVE",
"379 177 CURVE SMOOTH",
"379 144 OFFCURVE",
"352 117 OFFCURVE",
"303 117 CURVE SMOOTH",
"247 117 OFFCURVE",
"220 152 OFFCURVE",
"220 198 CURVE SMOOTH",
"220 248 OFFCURVE",
"249 303 OFFCURVE",
"304 355 CURVE",
"237 436 LINE",
"143 369 OFFCURVE",
"96 280 OFFCURVE",
"96 192 CURVE SMOOTH",
"96 75 OFFCURVE",
"179 -8 OFFCURVE",
"304 -8 CURVE SMOOTH"
);
},
{
closed = 1;
nodes = (
"466 354 LINE",
"389 422 LINE",
"243 245 LINE",
"320 177 LINE"
);
}
);
};
layerId = "07A8BF55-3CF9-4D67-A8E5-C461981387B3";
name = "ExtraCondensed Black ]141]";
paths = (
{
closed = 1;
nodes = (
"139 282 LINE",
"196 379 LINE",
"173 407 OFFCURVE",
"162 432 OFFCURVE",
"162 463 CURVE",
"162 540 OFFCURVE",
"228 613 OFFCURVE",
"355 613 CURVE",
"473 613 OFFCURVE",
"554 549 OFFCURVE",
"554 456 CURVE",
"554 433 OFFCURVE",
"549 407 OFFCURVE",
"537 380 CURVE",
"686 414 LINE",
"697 445 OFFCURVE",
"702 474 OFFCURVE",
"702 502 CURVE",
"702 651 OFFCURVE",
"559 759 OFFCURVE",
"361 759 CURVE",
"137 759 OFFCURVE",
"16 622 OFFCURVE",
"16 485 CURVE",
"16 407 OFFCURVE",
"56 335 OFFCURVE",
"139 282 CURVE"
);
},
{
closed = 1;
nodes = (
"621.756 84.887 LINE",
"756.198 171.22 LINE",
"655 311 LINE",
"605 226 LINE",
"712 226 OFFCURVE",
"767 288 OFFCURVE",
"767 348 CURVE",
"767 406 OFFCURVE",
"717 462 OFFCURVE",
"616 462 CURVE",
"537 380 LINE",
"596 380 OFFCURVE",
"623 357 OFFCURVE",
"623 335 CURVE",
"623 315 OFFCURVE",
"600 296 OFFCURVE",
"557 296 CURVE",
"522 250 LINE"
);
},
{
closed = 1;
nodes = (
"304 85 LINE",
"429 85 OFFCURVE",
"512 159 OFFCURVE",
"512 269 CURVE",
"512 333 OFFCURVE",
"474 397 OFFCURVE",
"390 436 CURVE",
"316 346 LINE",
"359 325 OFFCURVE",
"379 293 OFFCURVE",
"379 268 CURVE",
"379 239 OFFCURVE",
"347 215 OFFCURVE",
"304 215 CURVE",
"250 215 OFFCURVE",
"220 246 OFFCURVE",
"220 293 CURVE",
"220 339 OFFCURVE",
"251 392 OFFCURVE",
"305 439 CURVE",
"237 529 LINE",
"140 465 OFFCURVE",
"86 373 OFFCURVE",
"86 289 CURVE",
"86 167 OFFCURVE",
"173 85 OFFCURVE",
"304 85 CURVE"
);
},
{
closed = 1;
nodes = (
"320 270 LINE",
"466 447 LINE",
"385 517 LINE",
"239 340 LINE"
);
}
);
width = 783;
}
);
note = uuorya;
unicode = 0B0A;
},
{
glyphname = "rVocalic-oriya";
lastChange = "2019-12-12 03:39:53 +0000";
layers = (
{
anchors = (
{
name = topright;
position = "{576, 751}";
}
);
guideLines = (
{
position = "{766, -24}";
}
);
layerId = "926CF2F4-31F1-4036-BA3C-0F7EE51EF36A";
paths = (
{
closed = 1;
nodes = (
"153 297 LINE",
"163 321 LINE",
"99 365 OFFCURVE",
"64 426 OFFCURVE",
"64 498 CURVE",
"64 657 OFFCURVE",
"208 735 OFFCURVE",
"349 735 CURVE",
"483 735 OFFCURVE",
"615 664 OFFCURVE",
"615 525 CURVE",
"615 488 OFFCURVE",
"604 446 OFFCURVE",
"581 403 CURVE",
"610 408 LINE",
"631 447 OFFCURVE",
"641 487 OFFCURVE",
"641 524 CURVE",
"641 680 OFFCURVE",
"495 759 OFFCURVE",
"347 759 CURVE",
"194 759 OFFCURVE",
"38 674 OFFCURVE",
"38 501 CURVE",
"38 421 OFFCURVE",
"79 349 OFFCURVE",
"153 297 CURVE"
);
},
{
closed = 1;
nodes = (
"308 85 LINE",
"413 85 OFFCURVE",
"483 162 OFFCURVE",
"483 263 CURVE",
"483 364 OFFCURVE",
"413 440 OFFCURVE",
"308 440 CURVE",
"203 440 OFFCURVE",
"132 364 OFFCURVE",
"132 263 CURVE",
"132 162 OFFCURVE",
"203 85 OFFCURVE",
"308 85 CURVE"
);
},
{
closed = 1;
nodes = (
"308 109 LINE",
"214 109 OFFCURVE",
"158 174 OFFCURVE",
"158 264 CURVE",
"158 353 OFFCURVE",
"214 416 OFFCURVE",
"308 416 CURVE",
"402 416 OFFCURVE",
"457 353 OFFCURVE",
"457 263 CURVE",
"457 173 OFFCURVE",
"402 109 OFFCURVE",
"308 109 CURVE"
);
},
{
closed = 1;
nodes = (
"652.046 67.139 LINE",
"672.757 83.152 LINE",
"553 237 LINE",
"554 215 LINE",
"643 215 OFFCURVE",
"726 245 OFFCURVE",
"726 322 CURVE",
"726 385 OFFCURVE",
"670 418 OFFCURVE",
"610 424 CURVE",
"581 403 LINE",
"640 403 OFFCURVE",
"700 379 OFFCURVE",
"700 322 CURVE",
"700 262 OFFCURVE",
"636 238 OFFCURVE",
"549 239 CURVE",
"535 222 LINE"
);
}
);
width = 764;
},
{
anchors = (
{
name = topright;
position = "{607, 751}";
}
);
guideLines = (
{
position = "{744, -34}";
}
);
layerId = "639D56B4-59BE-4993-85FD-8F80ECD3B0F6";
paths = (
{
closed = 1;
nodes = (
"173 263 LINE",
"232 375 LINE",
"201 402 OFFCURVE",
"186 436 OFFCURVE",
"186 470 CURVE",
"186 551 OFFCURVE",
"273 599 OFFCURVE",
"383 599 CURVE",
"499 599 OFFCURVE",
"583 545 OFFCURVE",
"583 443 CURVE",
"583 427 OFFCURVE",
"581 403 OFFCURVE",
"575 380 CURVE",
"732 414 LINE",
"749 440 OFFCURVE",
"757 465 OFFCURVE",
"757 501 CURVE",
"757 671 OFFCURVE",
"575 759 OFFCURVE",
"392 759 CURVE",
"208 759 OFFCURVE",
"22 670 OFFCURVE",
"22 491 CURVE",
"22 410 OFFCURVE",
"62 328 OFFCURVE",
"173 263 CURVE"
);
},
{
closed = 1;
nodes = (
"321 85 LINE",
"443 85 OFFCURVE",
"522 160 OFFCURVE",
"522 273 CURVE",
"522 386 OFFCURVE",
"443 461 OFFCURVE",
"321 461 CURVE",
"195 461 OFFCURVE",
"114 386 OFFCURVE",
"114 273 CURVE",
"114 160 OFFCURVE",
"195 85 OFFCURVE",
"321 85 CURVE"
);
},
{
closed = 1;
nodes = (
"319 223 LINE",
"290 223 OFFCURVE",
"274 243 OFFCURVE",
"274 273 CURVE",
"274 303 OFFCURVE",
"290 323 OFFCURVE",
"319 323 CURVE",
"347 323 OFFCURVE",
"362 303 OFFCURVE",
"362 273 CURVE",
"362 243 OFFCURVE",
"347 223 OFFCURVE",
"319 223 CURVE"
);
},
{
closed = 1;
nodes = (
"672.202 43.215 LINE",
"808.296 145.592 LINE",
"687 287 LINE",
"667 218 LINE",
"805 218 OFFCURVE",
"867 287 OFFCURVE",
"867 353 CURVE",
"867 416 OFFCURVE",
"809 468 OFFCURVE",
"694 468 CURVE",
"575 380 LINE",
"661 380 OFFCURVE",
"689 358 OFFCURVE",
"689 339 CURVE",
"689 314 OFFCURVE",
"651 298 OFFCURVE",
"594 296 CURVE",
"542 229 LINE"
);
}
);
width = 889;
},
{
anchors = (
{
name = topright;
position = "{440, 751}";
}
);
layerId = "EAF3E1E9-0001-42EF-B2A4-765526B8C83B";
paths = (
{
closed = 1;
nodes = (
"106 306 LINE",
"114 335 LINE",
"77 381 OFFCURVE",
"54 442 OFFCURVE",
"54 507 CURVE",
"54 633 OFFCURVE",
"139 731 OFFCURVE",
"256 734 CURVE",
"370 737 OFFCURVE",
"459 644 OFFCURVE",
"459 518 CURVE",
"459 478 OFFCURVE",
"450 437 OFFCURVE",
"434 402 CURVE",
"465 412 LINE",
"478 445 OFFCURVE",
"485 481 OFFCURVE",
"485 518 CURVE",
"485 657 OFFCURVE",
"389 759 OFFCURVE",
"260 759 CURVE",
"125 759 OFFCURVE",
"28 647 OFFCURVE",
"28 507 CURVE",
"28 430 OFFCURVE",
"58 354 OFFCURVE",
"106 306 CURVE"
);
},
{
closed = 1;
nodes = (
"234 85 LINE",
"316 85 OFFCURVE",
"370 156 OFFCURVE",
"370 263 CURVE",
"370 369 OFFCURVE",
"316 440 OFFCURVE",
"234 440 CURVE",
"152 440 OFFCURVE",
"98 369 OFFCURVE",
"98 263 CURVE",
"98 156 OFFCURVE",
"152 85 OFFCURVE",
"234 85 CURVE"
);
},
{
closed = 1;
nodes = (
"234 110 LINE",
"167 110 OFFCURVE",
"124 171 OFFCURVE",
"124 264 CURVE",
"124 356 OFFCURVE",
"167 415 OFFCURVE",
"234 415 CURVE",
"301 415 OFFCURVE",
"344 355 OFFCURVE",
"344 263 CURVE",
"344 170 OFFCURVE",
"301 110 OFFCURVE",
"234 110 CURVE"
);
},
{
closed = 1;
nodes = (
"478.178 84.79 LINE",
"498.839 98.244 LINE",
"420 237 LINE",
"415 215 LINE",
"503 216 OFFCURVE",
"548 272 OFFCURVE",
"548 327 CURVE",
"548 372 OFFCURVE",
"518 415 OFFCURVE",
"455 424 CURVE",
"434 402 LINE",
"493 402 OFFCURVE",
"523 364 OFFCURVE",
"523 325 CURVE",
"523 283 OFFCURVE",
"488 240 OFFCURVE",
"411 239 CURVE",
"400 222 LINE"
);
}
);
width = 576;
},
{
anchors = (
{
name = topright;
position = "{501, 751}";
}
);
guideLines = (
{
position = "{391, 225}";
}
);
layerId = "A6029D4D-1571-45DB-86AE-EDC9D2308E6F";
paths = (
{
closed = 1;
nodes = (
"142 285 LINE",
"202 381 LINE",
"176 409 OFFCURVE",
"162 436 OFFCURVE",
"162 474 CURVE",
"162 566 OFFCURVE",
"240 613 OFFCURVE",
"319 613 CURVE",
"400 613 OFFCURVE",
"483 563 OFFCURVE",
"483 459 CURVE",
"483 433 OFFCURVE",
"478 407 OFFCURVE",
"466 380 CURVE",
"615 414 LINE",
"626 445 OFFCURVE",
"631 474 OFFCURVE",
"631 505 CURVE",
"631 675 OFFCURVE",
"476 759 OFFCURVE",
"326 759 CURVE",
"167 759 OFFCURVE",
"16 665 OFFCURVE",
"16 497 CURVE",
"16 408 OFFCURVE",
"59 338 OFFCURVE",
"142 285 CURVE"
);
},
{
closed = 1;
nodes = (
"266 85 LINE",
"368 85 OFFCURVE",
"430 157 OFFCURVE",
"430 273 CURVE",
"430 390 OFFCURVE",
"368 461 OFFCURVE",
"268 461 CURVE",
"165 461 OFFCURVE",
"101 390 OFFCURVE",
"101 273 CURVE",
"101 157 OFFCURVE",
"165 85 OFFCURVE",
"266 85 CURVE"
);
},
{
closed = 1;
nodes = (
"266 208 LINE",
"244 208 OFFCURVE",
"234 229 OFFCURVE",
"234 273 CURVE",
"234 317 OFFCURVE",
"244 338 OFFCURVE",
"266 338 CURVE",
"288 338 OFFCURVE",
"297 317 OFFCURVE",
"297 273 CURVE",
"297 229 OFFCURVE",
"287 208 OFFCURVE",
"266 208 CURVE"
);
},
{
closed = 1;
nodes = (
"549.756 84.887 LINE",
"684.198 171.22 LINE",
"583 311 LINE",
"534 226 LINE",
"641 226 OFFCURVE",
"696 288 OFFCURVE",
"696 348 CURVE",
"696 406 OFFCURVE",
"646 462 OFFCURVE",
"545 462 CURVE",
"466 380 LINE",
"525 380 OFFCURVE",
"552 357 OFFCURVE",
"552 335 CURVE",
"552 315 OFFCURVE",
"528 296 OFFCURVE",
"485 296 CURVE",
"450 250 LINE"
);
}
);
width = 712;
}
);
note = rvocalicorya;
rightMetricsKey = "uu-oriya";
unicode = 0B0B;
},
{
glyphname = "lVocalic-oriya";
lastChange = "2019-12-12 03:39:53 +0000";
layers = (
{
anchors = (
{
name = topright;
position = "{268, 751}";
}
);
guideLines = (
{
angle = 90;
position = "{432, 423}";
}
);
layerId = "926CF2F4-31F1-4036-BA3C-0F7EE51EF36A";
paths = (
{
closed = 1;
nodes = (
"68 274 LINE",
"68 370 OFFCURVE",
"142 395 OFFCURVE",
"230 423 CURVE",
"286 441 LINE SMOOTH",
"343 459 OFFCURVE",
"432 489 OFFCURVE",
"432 606 CURVE",
"432 704 OFFCURVE",
"370 759 OFFCURVE",
"268 759 CURVE",
"162 759 OFFCURVE",
"100 699 OFFCURVE",
"100 599 CURVE",
"100 565 OFFCURVE",
"108 537 OFFCURVE",
"121 509 CURVE",
"145.902 519.625 LINE",
"130.81 549.148 OFFCURVE",
"126 576.143 OFFCURVE",
"126 601 CURVE",
"126 684 OFFCURVE",
"178 736 OFFCURVE",
"269 736 CURVE",
"354 736 OFFCURVE",
"406 690 OFFCURVE",
"406 603 CURVE",
"406 502 OFFCURVE",
"335 481 OFFCURVE",
"274 462 CURVE",
"229 448 LINE SMOOTH",
"147 422 OFFCURVE",
"42 396 OFFCURVE",
"42 272 CURVE",
"42 163 OFFCURVE",
"123 85 OFFCURVE",
"294 85 CURVE",
"447 85 OFFCURVE",
"536 147 OFFCURVE",
"536 250 CURVE",
"536 328 OFFCURVE",
"486 375 OFFCURVE",
"404 375 CURVE",
"317 375 OFFCURVE",
"268 322 OFFCURVE",
"268 244 CURVE",
"268 198 OFFCURVE",
"287 142 OFFCURVE",
"345 92 CURVE",
"375 94 LINE",
"317 144 OFFCURVE",
"294 197 OFFCURVE",
"294 244 CURVE",
"294 305 OFFCURVE",
"333 351 OFFCURVE",
"404 351 CURVE",
"470 351 OFFCURVE",
"510 312 OFFCURVE",
"510 249 CURVE",
"510 159 OFFCURVE",
"427 109 OFFCURVE",
"297 109 CURVE",
"149 109 OFFCURVE",
"68 174 OFFCURVE",
"68 274 CURVE"
);
}
);
width = 574;
},
{
anchors = (
{
name = topright;
position = "{300, 751}";
}
);
layerId = "639D56B4-59BE-4993-85FD-8F80ECD3B0F6";
paths = (
{
closed = 1;
nodes = (
"176 284 LINE",
"176 331 OFFCURVE",
"224 346 OFFCURVE",
"305 371 CURVE",
"361 388 LINE SMOOTH",
"413 404 OFFCURVE",
"518 436 OFFCURVE",
"518 572 CURVE",
"518 689 OFFCURVE",
"441 759 OFFCURVE",
"300 759 CURVE",
"158 759 OFFCURVE",
"65 692 OFFCURVE",
"65 587 CURVE",
"65 555 OFFCURVE",
"74 514 OFFCURVE",
"86 487 CURVE",
"250.153 529.011 LINE",
"242.51 545.759 OFFCURVE",
"239 561.336 OFFCURVE",
"239 572 CURVE",
"239 602 OFFCURVE",
"265 617 OFFCURVE",
"293 617 CURVE",
"330 617 OFFCURVE",
"344 593 OFFCURVE",
"344 566 CURVE",
"344 521 OFFCURVE",
"304 511 OFFCURVE",
"267 499 CURVE",
"193 476 LINE SMOOTH",
"120 453 OFFCURVE",
"26 421 OFFCURVE",
"26 290 CURVE",
"26 155 OFFCURVE",
"127 85 OFFCURVE",
"326 85 CURVE",
"514 85 OFFCURVE",
"608 147 OFFCURVE",
"608 253 CURVE",
"608 346 OFFCURVE",
"535 389 OFFCURVE",
"446 389 CURVE",
"339 389 OFFCURVE",
"262 327 OFFCURVE",
"262 240 CURVE",
"262 192 OFFCURVE",
"286 138 OFFCURVE",
"339 92 CURVE",
"455 118 LINE",
"409 164 OFFCURVE",
"392 201 OFFCURVE",
"392 228 CURVE",
"392 259 OFFCURVE",
"418 273 OFFCURVE",
"439 273 CURVE",
"455 273 OFFCURVE",
"468 266 OFFCURVE",
"468 253 CURVE",
"468 228 OFFCURVE",
"422 213 OFFCURVE",
"335 213 CURVE",
"225 213 OFFCURVE",
"176 237 OFFCURVE",
"176 284 CURVE"
);
}
);
width = 630;
},
{
anchors = (
{
name = topright;
position = "{209, 751}";
}
);
layerId = "EAF3E1E9-0001-42EF-B2A4-765526B8C83B";
paths = (
{
closed = 1;
nodes = (
"58 261 LINE",
"58 364 OFFCURVE",
"135 397 OFFCURVE",
"179 419 CURVE",
"189 424 LINE SMOOTH",
"270 460 OFFCURVE",
"340 487 OFFCURVE",
"340 601 CURVE",
"340 700 OFFCURVE",
"292 759 OFFCURVE",
"209 759 CURVE",
"121 759 OFFCURVE",
"76 692 OFFCURVE",
"76 607 CURVE",
"76 577 OFFCURVE",
"81 544 OFFCURVE",
"93 512 CURVE",
"117.239 521.003 LINE",
"107.08 548.093 OFFCURVE",
"102 577.316 OFFCURVE",
"102 604 CURVE",
"102 674 OFFCURVE",
"136 734 OFFCURVE",
"210 734 CURVE",
"277 734 OFFCURVE",
"314 684 OFFCURVE",
"314 601 CURVE",
"314 504 OFFCURVE",
"258 481 OFFCURVE",
"176 445 CURVE",
"170 442 LINE SMOOTH",
"117 416 OFFCURVE",
"32 381 OFFCURVE",
"32 261 CURVE",
"32 140 OFFCURVE",
"125 85 OFFCURVE",
"218 85 CURVE",
"314 85 OFFCURVE",
"411 143 OFFCURVE",
"411 256 CURVE",
"411 331 OFFCURVE",
"368 372 OFFCURVE",
"310 372 CURVE",
"241 372 OFFCURVE",
"208 314 OFFCURVE",
"208 246 CURVE",
"208 195 OFFCURVE",
"226 138 OFFCURVE",
"259 95 CURVE",
"281 108 LINE",
"252 143 OFFCURVE",
"234 198 OFFCURVE",
"234 246 CURVE",
"234 301 OFFCURVE",
"258 347 OFFCURVE",
"311 347 CURVE",
"357 347 OFFCURVE",
"385 311 OFFCURVE",
"385 255 CURVE",
"385 159 OFFCURVE",
"302 110 OFFCURVE",
"219 110 CURVE",
"138 110 OFFCURVE",
"58 156 OFFCURVE",
"58 261 CURVE"
);
}
);
width = 439;
},
{
anchors = (
{
name = topright;
position = "{247, 751}";
}
);
layerId = "A6029D4D-1571-45DB-86AE-EDC9D2308E6F";
paths = (
{
closed = 1;
nodes = (
"172 274 LINE",
"172 324 OFFCURVE",
"202 347 OFFCURVE",
"271 381 CURVE",
"285 388 LINE SMOOTH",
"369 430 OFFCURVE",
"438 474 OFFCURVE",
"438 579 CURVE",
"438 698 OFFCURVE",
"365 759 OFFCURVE",
"247 759 CURVE",
"119 759 OFFCURVE",
"48 687 OFFCURVE",
"48 583 CURVE",
"48 552 OFFCURVE",
"54 521 OFFCURVE",
"65 487 CURVE",
"207.862 529.997 LINE",
"200.974 546.31 OFFCURVE",
"197 562.149 OFFCURVE",
"197 576 CURVE",
"197 602 OFFCURVE",
"211 623 OFFCURVE",
"246 623 CURVE",
"282 623 OFFCURVE",
"290 601 OFFCURVE",
"290 581 CURVE",
"289 539 OFFCURVE",
"244 519 OFFCURVE",
"185 490 CURVE",
"177 486 LINE SMOOTH",
"101 448 OFFCURVE",
"24 406 OFFCURVE",
"24 285 CURVE",
"24 147 OFFCURVE",
"135 85 OFFCURVE",
"264 85 CURVE",
"388 85 OFFCURVE",
"491 143 OFFCURVE",
"491 258 CURVE",
"491 347 OFFCURVE",
"430 389 OFFCURVE",
"359 389 CURVE",
"276 389 OFFCURVE",
"219 331 OFFCURVE",
"219 243 CURVE",
"219 192 OFFCURVE",
"238 138 OFFCURVE",
"278 92 CURVE",
"376 118 LINE",
"347 147 OFFCURVE",
"325 207 OFFCURVE",
"325 248 CURVE",
"325 269 OFFCURVE",
"331 285 OFFCURVE",
"347 285 CURVE",
"360 285 OFFCURVE",
"365 274 OFFCURVE",
"365 257 CURVE",
"365 218 OFFCURVE",
"338 201 OFFCURVE",
"280 201 CURVE",
"210 201 OFFCURVE",
"172 225 OFFCURVE",
"172 274 CURVE"
);
}
);
width = 507;
}
);
note = lvocalicorya;
unicode = 0B0C;
},
{
glyphname = "e-oriya";
lastChange = "2019-12-12 03:39:53 +0000";
layers = (
{
anchors = (
{
name = topright;
position = "{571, 751}";
}
);
layerId = "926CF2F4-31F1-4036-BA3C-0F7EE51EF36A";
paths = (
{
closed = 1;
nodes = (
"313 510 LINE",
"327 494 LINE",
"327 609 OFFCURVE",
"424 727 OFFCURVE",
"573 727 CURVE",
"558 736 LINE",
"558 105 LINE",
"577 108 LINE",
"377.367 249.768 OFFCURVE",
"189.825 413.859 OFFCURVE",
"20.653 585.023 CURVE",
"1.58 566.981 LINE",
"164.261 401.488 OFFCURVE",
"350.854 238.432 OFFCURVE",
"556 93 CURVE",
"584 93 LINE",
"584 751 LINE",
"567 751 LINE SMOOTH",
"387 751 OFFCURVE",
"301 598 OFFCURVE",
"301 508 CURVE",
"301 470 OFFCURVE",
"318 444 OFFCURVE",
"344 444 CURVE",
"365 444 OFFCURVE",
"379 458 OFFCURVE",
"379 480 CURVE",
"379 499 OFFCURVE",
"366 519 OFFCURVE",
"339 519 CURVE",
"329 519 OFFCURVE",
"320 516 OFFCURVE",
"313 510 CURVE"
);
}
);
width = 654;
},
{
anchors = (
{
name = topright;
position = "{617, 751}";
}
);
layerId = "639D56B4-59BE-4993-85FD-8F80ECD3B0F6";
paths = (
{
closed = 1;
nodes = (
"329 583 LINE",
"414 517 LINE",
"414 583 OFFCURVE",
"465 611 OFFCURVE",
"550 611 CURVE",
"532 664 LINE",
"532 208 LINE",
"586 227 LINE",
"425.481 319.391 OFFCURVE",
"260.608 449.234 OFFCURVE",
"106.011 602.709 CURVE",
"-15.671 473.245 LINE",
"140.731 329.906 OFFCURVE",
"314.082 199.456 OFFCURVE",
"502 93 CURVE",
"702 93 LINE",
"702 751 LINE",
"609 751 LINE SMOOTH",
"394 751 OFFCURVE",
"289 627 OFFCURVE",
"289 530 CURVE",
"289 467 OFFCURVE",
"329 418 OFFCURVE",
"394 418 CURVE",
"452 418 OFFCURVE",
"496 458 OFFCURVE",
"496 510 CURVE",
"496 561 OFFCURVE",
"452 601 OFFCURVE",
"393 601 CURVE",
"368 601 OFFCURVE",
"346 594 OFFCURVE",
"329 583 CURVE"
);
}
);
width = 748;
},
{
anchors = (
{
name = topright;
position = "{428, 751}";
}
);
layerId = "EAF3E1E9-0001-42EF-B2A4-765526B8C83B";
paths = (
{
closed = 1;
nodes = (
"227 507 LINE",
"240 493 LINE",
"240 615 OFFCURVE",
"312 727 OFFCURVE",
"422 726 CURVE",
"415 738 LINE",
"415 102 LINE",
"437 105 LINE",
"278.165 249.218 OFFCURVE",
"141.17 410.528 OFFCURVE",
"5.658 588.93 CURVE",
"-16.155 572.492 LINE",
"111.448 405.906 OFFCURVE",
"248.083 243.338 OFFCURVE",
"412 93 CURVE",
"441 93 LINE",
"441 751 LINE",
"425 751 LINE SMOOTH",
"298 751 OFFCURVE",
"215 623 OFFCURVE",
"215 509 CURVE",
"215 455 OFFCURVE",
"235 444 OFFCURVE",
"249 444 CURVE",
"269 444 OFFCURVE",
"279 463 OFFCURVE",
"279 481 CURVE",
"279 500 OFFCURVE",
"269 519 OFFCURVE",
"250 519 CURVE",
"242 519 OFFCURVE",
"234 516 OFFCURVE",
"227 507 CURVE"
);
}
);
width = 493;
},
{
anchors = (
{
name = topright;
position = "{482, 751}";
}
);
layerId = "A6029D4D-1571-45DB-86AE-EDC9D2308E6F";
paths = (
{
closed = 1;
nodes = (
"252 583 LINE",
"323 517 LINE",
"323 583 OFFCURVE",
"363 611 OFFCURVE",
"440 611 CURVE",
"408 664 LINE",
"408 208 LINE",
"457 217 LINE",
"337.612 305.204 OFFCURVE",
"215.05 445.005 OFFCURVE",
"99.213 592.554 CURVE",
"-19.649 488.965 LINE",
"102.492 342.427 OFFCURVE",
"233.026 199.975 OFFCURVE",
"380 93 CURVE",
"555 93 LINE",
"555 751 LINE",
"490 751 LINE SMOOTH",
"299 751 OFFCURVE",
"216 627 OFFCURVE",
"216 529 CURVE",
"216 456 OFFCURVE",
"263 418 OFFCURVE",
"310 418 CURVE",
"362 418 OFFCURVE",
"389 463 OFFCURVE",
"389 508 CURVE",
"389 554 OFFCURVE",
"361 601 OFFCURVE",
"304 601 CURVE",
"286 601 OFFCURVE",
"268 595 OFFCURVE",
"252 583 CURVE"
);
}
);
width = 589;
},
{
anchors = (
{
name = topright;
position = "{617, 751}";
}
);
associatedMasterId = "639D56B4-59BE-4993-85FD-8F80ECD3B0F6";
background = {
paths = (
{
closed = 1;
nodes = (
"414 424 LINE",
"414 490 OFFCURVE",
"465 518 OFFCURVE",
"550 518 CURVE",
"532 571 LINE",
"532 115 LINE",
"586 134 LINE",
"414 233 OFFCURVE",
"237 375 OFFCURVE",
"73 543 CURVE",
"142 548 LINE",
"-30 365 LINE",
"-53 415 LINE",
"113 258 OFFCURVE",
"299 115 OFFCURVE",
"502 0 CURVE",
"702 0 LINE",
"702 658 LINE",
"609 658 LINE SMOOTH",
"394 658 OFFCURVE",
"289 534 OFFCURVE",
"289 437 CURVE SMOOTH",
"289 374 OFFCURVE",
"329 325 OFFCURVE",
"394 325 CURVE SMOOTH",
"452 325 OFFCURVE",
"496 365 OFFCURVE",
"496 417 CURVE SMOOTH",
"496 468 OFFCURVE",
"452 508 OFFCURVE",
"393 508 CURVE SMOOTH",
"368 508 OFFCURVE",
"346 501 OFFCURVE",
"329 490 CURVE"
);
}
);
};
layerId = "FFCFADEA-5C03-43B6-A6ED-A2DAF54706CE";
name = "Black ]141]";
paths = (
{
closed = 1;
nodes = (
"329 583 LINE",
"414 507 LINE",
"414 573 OFFCURVE",
"486 591 OFFCURVE",
"550 591 CURVE",
"532 664 LINE",
"532 208 LINE",
"586 227 LINE",
"425.481 319.391 OFFCURVE",
"260.608 449.234 OFFCURVE",
"106.011 602.709 CURVE",
"-15.671 473.245 LINE",
"140.731 329.906 OFFCURVE",
"314.082 199.456 OFFCURVE",
"502 93 CURVE",
"702 93 LINE",
"702 751 LINE",
"609 751 LINE SMOOTH",
"394 751 OFFCURVE",
"289 627 OFFCURVE",
"289 530 CURVE",
"289 467 OFFCURVE",
"329 418 OFFCURVE",
"394 418 CURVE",
"452 418 OFFCURVE",
"496 458 OFFCURVE",
"496 510 CURVE",
"496 561 OFFCURVE",
"452 601 OFFCURVE",
"393 601 CURVE",
"368 601 OFFCURVE",
"346 594 OFFCURVE",
"329 583 CURVE"
);
}
);
width = 748;
},
{
anchors = (
{
name = topright;
position = "{482, 751}";
}
);
associatedMasterId = "A6029D4D-1571-45DB-86AE-EDC9D2308E6F";
background = {
paths = (
{
closed = 1;
nodes = (
"342 441 LINE",
"342 488 OFFCURVE",
"375 508 OFFCURVE",
"430 508 CURVE",
"398 571 LINE",
"398 115 LINE",
"447 124 LINE",
"313 223 OFFCURVE",
"175 387 OFFCURVE",
"47 554 CURVE",
"122 532 LINE",
"-42 362 LINE",
"-57 429 LINE",
"73 271 OFFCURVE",
"212 115 OFFCURVE",
"370 0 CURVE",
"545 0 LINE",
"545 658 LINE",
"480 658 LINE SMOOTH",
"289 658 OFFCURVE",
"206 534 OFFCURVE",
"206 437 CURVE SMOOTH",
"206 363 OFFCURVE",
"253 327 OFFCURVE",
"298 327 CURVE SMOOTH",
"345 327 OFFCURVE",
"380 364 OFFCURVE",
"380 416 CURVE SMOOTH",
"380 468 OFFCURVE",
"344 508 OFFCURVE",
"297 508 CURVE SMOOTH",
"278 508 OFFCURVE",
"261 501 OFFCURVE",
"248 490 CURVE"
);
}
);
};
layerId = "0DE3EAFD-8B16-4A4B-B824-39CB0F6A93B1";
name = "ExtraCondensed Black ]141]";
paths = (
{
closed = 1;
nodes = (
"252 583 LINE",
"338 517 LINE",
"338 580 OFFCURVE",
"373 602 OFFCURVE",
"440 602 CURVE",
"408 664 LINE",
"408 208 LINE",
"457 217 LINE",
"337.612 305.204 OFFCURVE",
"215.05 445.005 OFFCURVE",
"99.213 592.554 CURVE",
"-19.649 488.965 LINE",
"102.492 342.427 OFFCURVE",
"233.026 199.975 OFFCURVE",
"380 93 CURVE",
"555 93 LINE",
"555 751 LINE",
"490 751 LINE SMOOTH",
"299 751 OFFCURVE",
"216 627 OFFCURVE",
"216 529 CURVE",
"216 456 OFFCURVE",
"263 418 OFFCURVE",
"310 418 CURVE",
"362 418 OFFCURVE",
"389 463 OFFCURVE",
"389 508 CURVE",
"389 554 OFFCURVE",
"361 601 OFFCURVE",
"304 601 CURVE",
"286 601 OFFCURVE",
"268 595 OFFCURVE",
"252 583 CURVE"
);
}
);
width = 589;
}
);
note = eorya;
rightMetricsKey = "aaMatra-oriya";
unicode = 0B0F;
},
{
glyphname = "ai-oriya";
lastChange = "2019-12-12 03:39:53 +0000";
layers = (
{
guideLines = (
{
angle = 32.7352;
position = "{356, 858}";
},
{
angle = 32.7352;
position = "{356, 699}";
}
);
layerId = "926CF2F4-31F1-4036-BA3C-0F7EE51EF36A";
paths = (
{
closed = 1;
nodes = (
"652 421 LINE",
"678 421 OFFCURVE",
"708 427 OFFCURVE",
"733 441 CURVE",
"733 467 LINE",
"708 451 OFFCURVE",
"679 445 OFFCURVE",
"652 445 CURVE",
"625 445 OFFCURVE",
"596 451 OFFCURVE",
"571 467 CURVE",
"571 441 LINE",
"596 427 OFFCURVE",
"626 421 OFFCURVE",
"652 421 CURVE"
);
},
{
closed = 1;
nodes = (
"313 510 LINE",
"327 494 LINE",
"327 609 OFFCURVE",
"424 727 OFFCURVE",
"573 727 CURVE",
"558 736 LINE",
"558 105 LINE",
"577 108 LINE",
"377.367 249.768 OFFCURVE",
"189.825 413.859 OFFCURVE",
"20.653 585.023 CURVE",
"1.58 566.981 LINE",
"164.261 401.488 OFFCURVE",
"350.854 238.432 OFFCURVE",
"556 93 CURVE",
"584 93 LINE",
"584 751 LINE",
"567 751 LINE SMOOTH",
"387 751 OFFCURVE",
"301 598 OFFCURVE",
"301 508 CURVE",
"301 470 OFFCURVE",
"318 444 OFFCURVE",
"344 444 CURVE",
"365 444 OFFCURVE",
"379 458 OFFCURVE",
"379 480 CURVE",
"379 499 OFFCURVE",
"366 519 OFFCURVE",
"339 519 CURVE",
"329 519 OFFCURVE",
"320 516 OFFCURVE",
"313 510 CURVE"
);
},
{
closed = 1;
nodes = (
"741 770 LINE",
"793 792 OFFCURVE",
"821 827 OFFCURVE",
"821 874 CURVE",
"821 933 OFFCURVE",
"772 969 OFFCURVE",
"703 969 CURVE",
"612 969 OFFCURVE",
"505 909 OFFCURVE",
"430 909 CURVE",
"388.295 909 OFFCURVE",
"350.305 924.48 OFFCURVE",
"326.262 965.671 CURVE",
"302.706 951.249 LINE",
"329.639 901.714 OFFCURVE",
"380.409 885 OFFCURVE",
"429 885 CURVE",
"521 885 OFFCURVE",
"624 945 OFFCURVE",
"700 945 CURVE",
"758 945 OFFCURVE",
"795 919 OFFCURVE",
"795 871 CURVE",
"795 832 OFFCURVE",
"770 803 OFFCURVE",
"724 786 CURVE",
"724 93 LINE",
"750 93 LINE",
"750 786 LINE"
);
}
);
width = 820;
},
{
guideLines = (
{
angle = 32.7352;
position = "{348, 805}";
},
{
angle = 32.7352;
position = "{358, 655}";
}
);
layerId = "639D56B4-59BE-4993-85FD-8F80ECD3B0F6";
paths = (
{
closed = 1;
nodes = (
"750 363 LINE",
"778 363 OFFCURVE",
"795 367 OFFCURVE",
"812 375 CURVE",
"812 526 LINE",
"795 518 OFFCURVE",
"778 513 OFFCURVE",
"751 513 CURVE",
"724 513 OFFCURVE",
"706 518 OFFCURVE",
"685 526 CURVE",
"685 375 LINE",
"704 367 OFFCURVE",
"722 363 OFFCURVE",
"750 363 CURVE"
);
},
{
closed = 1;
nodes = (
"329 583 LINE",
"414 517 LINE",
"414 583 OFFCURVE",
"465 611 OFFCURVE",
"550 611 CURVE",
"532 664 LINE",
"532 208 LINE",
"586 227 LINE",
"425.481 319.391 OFFCURVE",
"260.608 449.234 OFFCURVE",
"106.011 602.709 CURVE",
"-15.671 473.245 LINE",
"140.731 329.906 OFFCURVE",
"314.082 199.456 OFFCURVE",
"502 93 CURVE",
"702 93 LINE",
"702 751 LINE",
"609 751 LINE SMOOTH",
"394 751 OFFCURVE",
"289 627 OFFCURVE",
"289 530 CURVE",
"289 467 OFFCURVE",
"329 418 OFFCURVE",
"394 418 CURVE",
"452 418 OFFCURVE",
"496 458 OFFCURVE",
"496 510 CURVE",
"496 561 OFFCURVE",
"452 601 OFFCURVE",
"393 601 CURVE",
"368 601 OFFCURVE",
"346 594 OFFCURVE",
"329 583 CURVE"
);
},
{
closed = 1;
nodes = (
"908 739 LINE",
"987 773 OFFCURVE",
"1025 828 OFFCURVE",
"1025 885 CURVE",
"1025 967 OFFCURVE",
"967 1034 OFFCURVE",
"857 1034 CURVE",
"758 1034 OFFCURVE",
"633 977 OFFCURVE",
"572 977 CURVE",
"548.734 977 OFFCURVE",
"526.526 990.744 OFFCURVE",
"506.912 1023.612 CURVE",
"366.211 936.512 LINE",
"404.057 838.044 OFFCURVE",
"481.446 817 OFFCURVE",
"542 817 CURVE",
"650 817 OFFCURVE",
"751 874 OFFCURVE",
"809 874 CURVE",
"835 874 OFFCURVE",
"851 862 OFFCURVE",
"851 846 CURVE",
"851 829 OFFCURVE",
"831 802 OFFCURVE",
"794 789 CURVE",
"794 93 LINE",
"964 93 LINE",
"964 848 LINE"
);
}
);
width = 1010;
},
{
guideLines = (
{
angle = 32.7352;
position = "{293, 858}";
},
{
angle = 32.7352;
position = "{350, 699}";
}
);
layerId = "EAF3E1E9-0001-42EF-B2A4-765526B8C83B";
paths = (
{
closed = 1;
nodes = (
"493 421 LINE",
"513 421 OFFCURVE",
"545 427 OFFCURVE",
"564 441 CURVE",
"564 467 LINE",
"545 451 OFFCURVE",
"513 445 OFFCURVE",
"493 445 CURVE",
"473 445 OFFCURVE",
"441 451 OFFCURVE",
"422 467 CURVE",
"422 441 LINE",
"441 427 OFFCURVE",
"473 421 OFFCURVE",
"493 421 CURVE"
);
},
{
closed = 1;
nodes = (
"227 507 LINE",
"240 493 LINE",
"240 615 OFFCURVE",
"312 727 OFFCURVE",
"422 726 CURVE",
"415 738 LINE",
"415 102 LINE",
"437 105 LINE",
"278.165 249.218 OFFCURVE",
"141.17 410.528 OFFCURVE",
"5.658 588.93 CURVE",
"-16.155 572.492 LINE",
"111.448 405.906 OFFCURVE",
"248.083 243.338 OFFCURVE",
"412 93 CURVE",
"441 93 LINE",
"441 751 LINE",
"425 751 LINE SMOOTH",
"298 751 OFFCURVE",
"215 623 OFFCURVE",
"215 509 CURVE",
"215 455 OFFCURVE",
"235 444 OFFCURVE",
"249 444 CURVE",
"269 444 OFFCURVE",
"279 463 OFFCURVE",
"279 481 CURVE",
"279 500 OFFCURVE",
"269 519 OFFCURVE",
"250 519 CURVE",
"242 519 OFFCURVE",
"234 516 OFFCURVE",
"227 507 CURVE"
);
},
{
closed = 1;
nodes = (
"564 768 LINE",
"606 803 OFFCURVE",
"624 839 OFFCURVE",
"624 878 CURVE",
"624 930 OFFCURVE",
"588 969 OFFCURVE",
"533 969 CURVE",
"464 969 OFFCURVE",
"386 909 OFFCURVE",
"321 909 CURVE",
"287.651 909 OFFCURVE",
"260.558 924.292 OFFCURVE",
"237.982 966.467 CURVE",
"218.337 954.738 LINE",
"244.984 901.455 OFFCURVE",
"281.699 884 OFFCURVE",
"320 884 CURVE",
"390 884 OFFCURVE",
"466 944 OFFCURVE",
"529 944 CURVE",
"577 944 OFFCURVE",
"598 909 OFFCURVE",
"598 874 CURVE",
"598 842 OFFCURVE",
"583 812 OFFCURVE",
"545 786 CURVE",
"545 93 LINE",
"571 93 LINE",
"571 786 LINE"
);
}
);
width = 623;
},
{
layerId = "A6029D4D-1571-45DB-86AE-EDC9D2308E6F";
paths = (
{
closed = 1;
nodes = (
"594 363 LINE",
"616 363 OFFCURVE",
"639 367 OFFCURVE",
"651 375 CURVE",
"651 526 LINE",
"639 518 OFFCURVE",
"616 513 OFFCURVE",
"595 513 CURVE",
"575 513 OFFCURVE",
"551 518 OFFCURVE",
"535 526 CURVE",
"535 375 LINE",
"550 367 OFFCURVE",
"573 363 OFFCURVE",
"594 363 CURVE"
);
},
{
closed = 1;
nodes = (
"252 583 LINE",
"323 517 LINE",
"323 583 OFFCURVE",
"363 611 OFFCURVE",
"440 611 CURVE",
"408 664 LINE",
"408 208 LINE",
"457 217 LINE",
"337.612 305.204 OFFCURVE",
"215.05 445.005 OFFCURVE",
"99.213 592.554 CURVE",
"-19.649 488.965 LINE",
"102.492 342.427 OFFCURVE",
"233.026 199.975 OFFCURVE",
"380 93 CURVE",
"555 93 LINE",
"555 751 LINE",
"490 751 LINE SMOOTH",
"299 751 OFFCURVE",
"216 627 OFFCURVE",
"216 529 CURVE",
"216 456 OFFCURVE",
"263 418 OFFCURVE",
"310 418 CURVE",
"362 418 OFFCURVE",
"389 463 OFFCURVE",
"389 508 CURVE",
"389 554 OFFCURVE",
"361 601 OFFCURVE",
"304 601 CURVE",
"286 601 OFFCURVE",
"268 595 OFFCURVE",
"252 583 CURVE"
);
},
{
closed = 1;
nodes = (
"733 722 LINE",
"793 761 OFFCURVE",
"820 830 OFFCURVE",
"820 885 CURVE",
"820 964 OFFCURVE",
"767 1034 OFFCURVE",
"674 1034 CURVE",
"594 1034 OFFCURVE",
"491 983 OFFCURVE",
"440 983 CURVE",
"413.946 983 OFFCURVE",
"393.987 996.299 OFFCURVE",
"376 1025.373 CURVE",
"260.221 938.221 LINE",
"303.015 849.628 OFFCURVE",
"358.454 837 OFFCURVE",
"408 837 CURVE",
"507 837 OFFCURVE",
"580 888 OFFCURVE",
"628 888 CURVE",
"655 888 OFFCURVE",
"669 872 OFFCURVE",
"669 852 CURVE",
"669 831 OFFCURVE",
"654 805 OFFCURVE",
"623 789 CURVE",
"623 93 LINE",
"770 93 LINE",
"770 820 LINE"
);
}
);
width = 804;
}
);
note = aiorya;
rightMetricsKey = "auLength-oriya";
unicode = 0B10;
},
{
glyphname = "o-oriya";
lastChange = "2019-12-12 03:39:53 +0000";
layers = (
{
anchors = (
{
name = topright;
position = "{528, 751}";
}
);
layerId = "926CF2F4-31F1-4036-BA3C-0F7EE51EF36A";
paths = (
{
closed = 1;
nodes = (
"368 85 LINE",
"520 85 OFFCURVE",
"604 169 OFFCURVE",
"604 272 CURVE",
"604 370 OFFCURVE",
"538 433 OFFCURVE",
"422 433 CURVE",
"363 407 LINE",
"384 413 LINE SMOOTH",
"460 435 OFFCURVE",
"593 477 OFFCURVE",
"593 611 CURVE",
"593 699 OFFCURVE",
"531 759 OFFCURVE",
"435 759 CURVE",
"339 759 OFFCURVE",
"274 699 OFFCURVE",
"274 605 CURVE",
"274 578 OFFCURVE",
"281 548 OFFCURVE",
"294 519 CURVE",
"318 528 LINE",
"307 552 OFFCURVE",
"300 574 OFFCURVE",
"300 604 CURVE",
"300 683 OFFCURVE",
"354 735 OFFCURVE",
"436 735 CURVE",
"514 735 OFFCURVE",
"567 687 OFFCURVE",
"567 610 CURVE",
"567 497 OFFCURVE",
"455 459 OFFCURVE",
"371 434 CURVE",
"315 417 LINE",
"324 390 LINE",
"353 403 OFFCURVE",
"391 409 OFFCURVE",
"422 409 CURVE",
"522 409 OFFCURVE",
"578 354 OFFCURVE",
"578 271 CURVE",
"578 180 OFFCURVE",
"495 109 OFFCURVE",
"362 109 CURVE",
"179 109 OFFCURVE",
"64 252 OFFCURVE",
"64 435 CURVE",
"64 587 OFFCURVE",
"144 728 OFFCURVE",
"244 795 CURVE",
"228 815 LINE",
"117 741 OFFCURVE",
"38 594 OFFCURVE",
"38 432 CURVE",
"38 222 OFFCURVE",
"173 85 OFFCURVE",
"368 85 CURVE"
);
}
);
width = 644;
},
{
anchors = (
{
name = topright;
position = "{606, 751}";
}
);
layerId = "639D56B4-59BE-4993-85FD-8F80ECD3B0F6";
paths = (
{
closed = 1;
nodes = (
"457 85 LINE",
"653 85 OFFCURVE",
"768 157 OFFCURVE",
"768 285 CURVE",
"768 390 OFFCURVE",
"690 456 OFFCURVE",
"519 456 CURVE",
"463 367 LINE",
"572 403 LINE SMOOTH",
"634 423 OFFCURVE",
"756 469 OFFCURVE",
"756 590 CURVE",
"756 683 OFFCURVE",
"684 759 OFFCURVE",
"531 759 CURVE",
"391 759 OFFCURVE",
"299 696 OFFCURVE",
"299 592 CURVE",
"299 559 OFFCURVE",
"308 522 OFFCURVE",
"328 482 CURVE",
"485 532 LINE",
"478 545 OFFCURVE",
"474 557 OFFCURVE",
"474 567 CURVE",
"474 592 OFFCURVE",
"494 609 OFFCURVE",
"528 609 CURVE",
"564 609 OFFCURVE",
"582 593 OFFCURVE",
"582 568 CURVE",
"582 528 OFFCURVE",
"536 509 OFFCURVE",
"501 497 CURVE",
"340 441 LINE",
"404 312 LINE",
"443 328 OFFCURVE",
"481 336 OFFCURVE",
"516 336 CURVE",
"562 336 OFFCURVE",
"594 323 OFFCURVE",
"594 297 CURVE",
"594 265 OFFCURVE",
"546 245 OFFCURVE",
"462 245 CURVE",
"297 245 OFFCURVE",
"196 323 OFFCURVE",
"196 456 CURVE",
"196 567 OFFCURVE",
"260 683 OFFCURVE",
"338 751 CURVE",
"217 860 LINE",
"90 749 OFFCURVE",
"22 613 OFFCURVE",
"22 459 CURVE",
"22 224 OFFCURVE",
"184 85 OFFCURVE",
"457 85 CURVE"
);
}
);
width = 798;
},
{
anchors = (
{
name = topright;
position = "{401, 759}";
}
);
layerId = "EAF3E1E9-0001-42EF-B2A4-765526B8C83B";
paths = (
{
closed = 1;
nodes = (
"272 85 LINE",
"387 85 OFFCURVE",
"454 169 OFFCURVE",
"454 272 CURVE",
"454 362 OFFCURVE",
"404 431 OFFCURVE",
"312 431 CURVE",
"267 407 LINE",
"282 412 LINE SMOOTH",
"417 457 OFFCURVE",
"446 537 OFFCURVE",
"446 609 CURVE",
"446 700 OFFCURVE",
"400 759 OFFCURVE",
"325 759 CURVE",
"245 759 OFFCURVE",
"202 690 OFFCURVE",
"202 607 CURVE",
"202 579 OFFCURVE",
"207 548 OFFCURVE",
"218 519 CURVE",
"242 528 LINE",
"233 555 OFFCURVE",
"228 582 OFFCURVE",
"228 609 CURVE",
"228 677 OFFCURVE",
"261 734 OFFCURVE",
"326 734 CURVE",
"386 734 OFFCURVE",
"420 686 OFFCURVE",
"420 611 CURVE",
"420 484 OFFCURVE",
"324 453 OFFCURVE",
"275 434 CURVE",
"233 418 LINE",
"239 391 LINE",
"261 401 OFFCURVE",
"290 409 OFFCURVE",
"314 409 CURVE",
"382 409 OFFCURVE",
"428 350 OFFCURVE",
"428 271 CURVE",
"428 184 OFFCURVE",
"368 110 OFFCURVE",
"271 110 CURVE",
"127 110 OFFCURVE",
"54 271 OFFCURVE",
"54 443 CURVE",
"54 579 OFFCURVE",
"100 723 OFFCURVE",
"192 799 CURVE",
"176 819 LINE",
"78 735 OFFCURVE",
"28 583 OFFCURVE",
"28 440 CURVE",
"28 256 OFFCURVE",
"108 85 OFFCURVE",
"272 85 CURVE"
);
}
);
width = 484;
},
{
anchors = (
{
name = topright;
position = "{452, 751}";
}
);
layerId = "A6029D4D-1571-45DB-86AE-EDC9D2308E6F";
paths = (
{
closed = 1;
nodes = (
"346 85 LINE",
"519 85 OFFCURVE",
"586 186 OFFCURVE",
"586 277 CURVE",
"586 370 OFFCURVE",
"516 455 OFFCURVE",
"383 455 CURVE",
"340 366 LINE",
"379 383 LINE SMOOTH",
"450 414 OFFCURVE",
"582 471 OFFCURVE",
"582 599 CURVE",
"582 704 OFFCURVE",
"492 759 OFFCURVE",
"402 759 CURVE",
"311 759 OFFCURVE",
"220 703 OFFCURVE",
"220 590 CURVE",
"220 558 OFFCURVE",
"227 525 OFFCURVE",
"242 492 CURVE",
"374 542 LINE",
"368 554 OFFCURVE",
"365 569 OFFCURVE",
"365 581 CURVE",
"365 609 OFFCURVE",
"382 623 OFFCURVE",
"399 623 CURVE",
"416 623 OFFCURVE",
"432 611 OFFCURVE",
"432 582 CURVE",
"432 549 OFFCURVE",
"410 518 OFFCURVE",
"362 496 CURVE",
"253 446 LINE",
"297 329 LINE",
"327 345 OFFCURVE",
"357 353 OFFCURVE",
"378 353 CURVE",
"418 353 OFFCURVE",
"434 323 OFFCURVE",
"434 294 CURVE",
"434 258 OFFCURVE",
"408 231 OFFCURVE",
"345 231 CURVE",
"219 231 OFFCURVE",
"168 341 OFFCURVE",
"168 467 CURVE",
"168 577 OFFCURVE",
"209 697 OFFCURVE",
"271 770 CURVE",
"164 860 LINE",
"66 743 OFFCURVE",
"16 592 OFFCURVE",
"16 454 CURVE",
"16 256 OFFCURVE",
"120 85 OFFCURVE",
"346 85 CURVE"
);
}
);
width = 608;
}
);
note = oorya;
unicode = 0B13;
},
{
glyphname = "au-oriya";
lastChange = "2019-12-12 03:39:53 +0000";
layers = (
{
layerId = "926CF2F4-31F1-4036-BA3C-0F7EE51EF36A";
paths = (
{
closed = 1;
nodes = (
"654 333 LINE",
"691 333 OFFCURVE",
"716 339 OFFCURVE",
"743 353 CURVE",
"743 379 LINE",
"716 363 OFFCURVE",
"692 357 OFFCURVE",
"654 357 CURVE",
"601 357 OFFCURVE",
"552 383 OFFCURVE",
"520 409 CURVE",
"512 400 LINE",
"548 363 LINE",
"574 351 OFFCURVE",
"611 333 OFFCURVE",
"654 333 CURVE"
);
},
{
closed = 1;
nodes = (
"368 85 LINE",
"520 85 OFFCURVE",
"604 169 OFFCURVE",
"604 272 CURVE",
"604 370 OFFCURVE",
"538 433 OFFCURVE",
"422 433 CURVE",
"363 407 LINE",
"384 413 LINE SMOOTH",
"460 435 OFFCURVE",
"593 477 OFFCURVE",
"593 611 CURVE",
"593 699 OFFCURVE",
"531 759 OFFCURVE",
"435 759 CURVE",
"339 759 OFFCURVE",
"274 699 OFFCURVE",
"274 605 CURVE",
"274 578 OFFCURVE",
"281 548 OFFCURVE",
"294 519 CURVE",
"318 528 LINE",
"307 552 OFFCURVE",
"300 574 OFFCURVE",
"300 604 CURVE",
"300 683 OFFCURVE",
"354 735 OFFCURVE",
"436 735 CURVE",
"514 735 OFFCURVE",
"567 687 OFFCURVE",
"567 610 CURVE",
"567 497 OFFCURVE",
"455 459 OFFCURVE",
"371 434 CURVE",
"315 417 LINE",
"324 390 LINE",
"353 403 OFFCURVE",
"391 409 OFFCURVE",
"422 409 CURVE",
"522 409 OFFCURVE",
"578 354 OFFCURVE",
"578 271 CURVE",
"578 180 OFFCURVE",
"495 109 OFFCURVE",
"362 109 CURVE",
"179 109 OFFCURVE",
"64 252 OFFCURVE",
"64 435 CURVE",
"64 587 OFFCURVE",
"144 728 OFFCURVE",
"244 795 CURVE",
"228 815 LINE",
"117 741 OFFCURVE",
"38 594 OFFCURVE",
"38 432 CURVE",
"38 222 OFFCURVE",
"173 85 OFFCURVE",
"368 85 CURVE"
);
},
{
closed = 1;
nodes = (
"752 770 LINE",
"804 792 OFFCURVE",
"832 827 OFFCURVE",
"832 874 CURVE",
"832 933 OFFCURVE",
"783 969 OFFCURVE",
"714 969 CURVE",
"623 969 OFFCURVE",
"516 909 OFFCURVE",
"441 909 CURVE",
"399.295 909 OFFCURVE",
"361.305 924.48 OFFCURVE",
"337.262 965.671 CURVE",
"313.706 951.249 LINE",
"340.639 901.714 OFFCURVE",
"391.409 885 OFFCURVE",
"440 885 CURVE",
"532 885 OFFCURVE",
"635 945 OFFCURVE",
"711 945 CURVE",
"769 945 OFFCURVE",
"806 919 OFFCURVE",
"806 871 CURVE",
"806 832 OFFCURVE",
"781 803 OFFCURVE",
"735 786 CURVE",
"735 93 LINE",
"761 93 LINE",
"761 786 LINE"
);
}
);
width = 831;
},
{
layerId = "639D56B4-59BE-4993-85FD-8F80ECD3B0F6";
paths = (
{
closed = 1;
nodes = (
"751 265 LINE",
"817 265 OFFCURVE",
"837 279 OFFCURVE",
"854 291 CURVE",
"854 442 LINE",
"837 430 OFFCURVE",
"803 413 OFFCURVE",
"751 415 CURVE",
"687 418 OFFCURVE",
"663 439 OFFCURVE",
"645 447 CURVE",
"621 440 LINE",
"645 296 LINE",
"662 288 OFFCURVE",
"685 265 OFFCURVE",
"751 265 CURVE"
);
},
{
closed = 1;
nodes = (
"457 85 LINE",
"653 85 OFFCURVE",
"768 157 OFFCURVE",
"768 285 CURVE",
"768 390 OFFCURVE",
"690 456 OFFCURVE",
"519 456 CURVE",
"463 367 LINE",
"572 403 LINE SMOOTH",
"634 423 OFFCURVE",
"756 469 OFFCURVE",
"756 590 CURVE",
"756 683 OFFCURVE",
"684 759 OFFCURVE",
"531 759 CURVE",
"391 759 OFFCURVE",
"299 696 OFFCURVE",
"299 592 CURVE",
"299 559 OFFCURVE",
"308 522 OFFCURVE",
"328 482 CURVE",
"485 532 LINE",
"478 545 OFFCURVE",
"474 557 OFFCURVE",
"474 567 CURVE",
"474 592 OFFCURVE",
"494 609 OFFCURVE",
"528 609 CURVE",
"564 609 OFFCURVE",
"582 593 OFFCURVE",
"582 568 CURVE",
"582 528 OFFCURVE",
"536 509 OFFCURVE",
"501 497 CURVE",
"340 441 LINE",
"404 312 LINE",
"443 328 OFFCURVE",
"481 336 OFFCURVE",
"516 336 CURVE",
"562 336 OFFCURVE",
"594 323 OFFCURVE",
"594 297 CURVE",
"594 265 OFFCURVE",
"546 245 OFFCURVE",
"462 245 CURVE",
"297 245 OFFCURVE",
"196 323 OFFCURVE",
"196 456 CURVE",
"196 567 OFFCURVE",
"260 683 OFFCURVE",
"338 751 CURVE",
"217 860 LINE",
"90 749 OFFCURVE",
"22 613 OFFCURVE",
"22 459 CURVE",
"22 224 OFFCURVE",
"184 85 OFFCURVE",
"457 85 CURVE"
);
},
{
closed = 1;
nodes = (
"942 739 LINE",
"1021 773 OFFCURVE",
"1059 828 OFFCURVE",
"1059 885 CURVE",
"1059 967 OFFCURVE",
"1001 1034 OFFCURVE",
"891 1034 CURVE",
"792 1034 OFFCURVE",
"667 977 OFFCURVE",
"606 977 CURVE",
"582.734 977 OFFCURVE",
"560.526 990.744 OFFCURVE",
"540.912 1023.612 CURVE",
"400.211 936.512 LINE",
"438.057 838.044 OFFCURVE",
"515.446 817 OFFCURVE",
"576 817 CURVE",
"684 817 OFFCURVE",
"785 874 OFFCURVE",
"843 874 CURVE",
"869 874 OFFCURVE",
"885 862 OFFCURVE",
"885 846 CURVE",
"885 829 OFFCURVE",
"865 802 OFFCURVE",
"828 789 CURVE",
"828 93 LINE",
"998 93 LINE",
"998 848 LINE"
);
}
);
width = 1044;
},
{
layerId = "EAF3E1E9-0001-42EF-B2A4-765526B8C83B";
paths = (
{
closed = 1;
nodes = (
"492 334 LINE",
"515 334 OFFCURVE",
"537 339 OFFCURVE",
"560 347 CURVE",
"560 372 LINE",
"537 363 OFFCURVE",
"515 358 OFFCURVE",
"492 358 CURVE",
"467 358 OFFCURVE",
"442 364 OFFCURVE",
"415 376 CURVE",
"409 372 LINE",
"425 347 LINE",
"448 339 OFFCURVE",
"470 334 OFFCURVE",
"492 334 CURVE"
);
},
{
closed = 1;
nodes = (
"272 85 LINE",
"387 85 OFFCURVE",
"454 169 OFFCURVE",
"454 272 CURVE",
"454 362 OFFCURVE",
"404 431 OFFCURVE",
"312 431 CURVE",
"267 407 LINE",
"282 412 LINE SMOOTH",
"417 457 OFFCURVE",
"446 537 OFFCURVE",
"446 609 CURVE",
"446 700 OFFCURVE",
"400 759 OFFCURVE",
"325 759 CURVE",
"245 759 OFFCURVE",
"202 690 OFFCURVE",
"202 607 CURVE",
"202 579 OFFCURVE",
"207 548 OFFCURVE",
"218 519 CURVE",
"242 528 LINE",
"233 555 OFFCURVE",
"228 582 OFFCURVE",
"228 609 CURVE",
"228 677 OFFCURVE",
"261 734 OFFCURVE",
"326 734 CURVE",
"386 734 OFFCURVE",
"420 686 OFFCURVE",
"420 611 CURVE",
"420 484 OFFCURVE",
"324 453 OFFCURVE",
"275 434 CURVE",
"233 418 LINE",
"239 391 LINE",
"261 401 OFFCURVE",
"290 409 OFFCURVE",
"314 409 CURVE",
"382 409 OFFCURVE",
"428 350 OFFCURVE",
"428 271 CURVE",
"428 184 OFFCURVE",
"368 110 OFFCURVE",
"271 110 CURVE",
"127 110 OFFCURVE",
"54 271 OFFCURVE",
"54 443 CURVE",
"54 579 OFFCURVE",
"100 723 OFFCURVE",
"192 799 CURVE",
"176 819 LINE",
"78 735 OFFCURVE",
"28 583 OFFCURVE",
"28 440 CURVE",
"28 256 OFFCURVE",
"108 85 OFFCURVE",
"272 85 CURVE"
);
},
{
closed = 1;
nodes = (
"571 767 LINE",
"613 802 OFFCURVE",
"631 838 OFFCURVE",
"631 877 CURVE",
"631 929 OFFCURVE",
"595 968 OFFCURVE",
"540 968 CURVE",
"471 968 OFFCURVE",
"393 908 OFFCURVE",
"328 908 CURVE",
"294.651 908 OFFCURVE",
"267.558 923.292 OFFCURVE",
"244.982 965.467 CURVE",
"225.337 953.738 LINE",
"251.984 900.455 OFFCURVE",
"288.699 883 OFFCURVE",
"327 883 CURVE",
"397 883 OFFCURVE",
"473 943 OFFCURVE",
"536 943 CURVE",
"584 943 OFFCURVE",
"605 908 OFFCURVE",
"605 873 CURVE",
"605 841 OFFCURVE",
"590 811 OFFCURVE",
"552 785 CURVE",
"552 92 LINE",
"578 92 LINE",
"578 785 LINE"
);
}
);
width = 630;
},
{
layerId = "A6029D4D-1571-45DB-86AE-EDC9D2308E6F";
paths = (
{
closed = 1;
nodes = (
"562 265 LINE",
"621 265 OFFCURVE",
"641 279 OFFCURVE",
"658 291 CURVE",
"658 442 LINE",
"641 430 OFFCURVE",
"607 413 OFFCURVE",
"562 415 CURVE",
"504 417 OFFCURVE",
"482 439 OFFCURVE",
"466 447 CURVE",
"433 427 LINE",
"466 296 LINE",
"481 288 OFFCURVE",
"502 265 OFFCURVE",
"562 265 CURVE"
);
},
{
closed = 1;
nodes = (
"346 85 LINE",
"519 85 OFFCURVE",
"586 186 OFFCURVE",
"586 277 CURVE",
"586 370 OFFCURVE",
"516 455 OFFCURVE",
"383 455 CURVE",
"340 366 LINE",
"379 383 LINE SMOOTH",
"450 414 OFFCURVE",
"582 471 OFFCURVE",
"582 599 CURVE",
"582 704 OFFCURVE",
"492 759 OFFCURVE",
"402 759 CURVE",
"311 759 OFFCURVE",
"220 703 OFFCURVE",
"220 590 CURVE",
"220 558 OFFCURVE",
"227 525 OFFCURVE",
"242 492 CURVE",
"374 542 LINE",
"368 554 OFFCURVE",
"365 569 OFFCURVE",
"365 581 CURVE",
"365 609 OFFCURVE",
"382 623 OFFCURVE",
"399 623 CURVE",
"416 623 OFFCURVE",
"432 611 OFFCURVE",
"432 582 CURVE",
"432 549 OFFCURVE",
"410 518 OFFCURVE",
"362 496 CURVE",
"253 446 LINE",
"297 329 LINE",
"327 345 OFFCURVE",
"357 353 OFFCURVE",
"378 353 CURVE",
"418 353 OFFCURVE",
"434 323 OFFCURVE",
"434 294 CURVE",
"434 258 OFFCURVE",
"408 231 OFFCURVE",
"345 231 CURVE",
"219 231 OFFCURVE",
"168 341 OFFCURVE",
"168 467 CURVE",
"168 577 OFFCURVE",
"209 697 OFFCURVE",
"271 770 CURVE",
"164 860 LINE",
"66 743 OFFCURVE",
"16 592 OFFCURVE",
"16 454 CURVE",
"16 256 OFFCURVE",
"120 85 OFFCURVE",
"346 85 CURVE"
);
},
{
closed = 1;
nodes = (
"757 722 LINE",
"817 761 OFFCURVE",
"844 830 OFFCURVE",
"844 885 CURVE",
"844 964 OFFCURVE",
"791 1034 OFFCURVE",
"698 1034 CURVE",
"618 1034 OFFCURVE",
"515 983 OFFCURVE",
"464 983 CURVE",
"437.946 983 OFFCURVE",
"417.987 996.299 OFFCURVE",
"400 1025.373 CURVE",
"284.221 938.221 LINE",
"327.015 849.628 OFFCURVE",
"382.454 837 OFFCURVE",
"432 837 CURVE",
"531 837 OFFCURVE",
"604 888 OFFCURVE",
"652 888 CURVE",
"679 888 OFFCURVE",
"693 872 OFFCURVE",
"693 852 CURVE",
"693 831 OFFCURVE",
"678 805 OFFCURVE",
"647 789 CURVE",
"647 93 LINE",
"794 93 LINE",
"794 820 LINE"
);
}
);
width = 828;
}
);
leftMetricsKey = "o-oriya";
note = auorya;
rightMetricsKey = "auLength-oriya";
unicode = 0B14;
},
{
glyphname = "ka-oriya";
lastChange = "2019-12-12 03:39:53 +0000";
layers = (
{
anchors = (
{
name = bottom;
position = "{517, 93}";
},
{
name = bottom_ra;
position = "{543, 93}";
},
{
name = bottom_ta;
position = "{543, 103}";
},
{
name = top;
position = "{350, 751}";
},
{
name = topright;
position = "{614, 751}";
}
);
layerId = "926CF2F4-31F1-4036-BA3C-0F7EE51EF36A";
paths = (
{
closed = 1;
nodes = (
"140 311 LINE",
"147 337 LINE",
"91 392 OFFCURVE",
"64 446 OFFCURVE",
"64 510 CURVE",
"64 644 OFFCURVE",
"184 735 OFFCURVE",
"349 735 CURVE",
"503 735 OFFCURVE",
"653 655 OFFCURVE",
"653 496 CURVE",
"653 434.886 OFFCURVE",
"631.116 383.803 OFFCURVE",
"595.184 342.749 CURVE",
"615.318 326.854 LINE",
"655.134 371.967 OFFCURVE",
"679 428.935 OFFCURVE",
"679 496 CURVE",
"679 671 OFFCURVE",
"517 759 OFFCURVE",
"350 759 CURVE",
"168 759 OFFCURVE",
"38 655 OFFCURVE",
"38 510 CURVE",
"38 436 OFFCURVE",
"71 372 OFFCURVE",
"140 311 CURVE"
);
},
{
closed = 1;
nodes = (
"239 177 LINE",
"308 177 OFFCURVE",
"353 233 OFFCURVE",
"353 309 CURVE",
"353 383 OFFCURVE",
"309 439 OFFCURVE",
"240 439 CURVE",
"170 439 OFFCURVE",
"122 383 OFFCURVE",
"122 309 CURVE",
"122 233 OFFCURVE",
"169 177 OFFCURVE",
"239 177 CURVE"
);
},
{
closed = 1;
nodes = (
"239 201 LINE",
"184 201 OFFCURVE",
"148 247 OFFCURVE",
"148 308 CURVE",
"148 368 OFFCURVE",
"184 415 OFFCURVE",
"240 415 CURVE",
"293 415 OFFCURVE",
"330 368 OFFCURVE",
"330 309 CURVE",
"330 248 OFFCURVE",
"294 201 OFFCURVE",
"239 201 CURVE"
);
},
{
closed = 1;
nodes = (
"330 93 LINE",
"356 93 LINE",
"356 312 LINE SMOOTH",
"356 377 OFFCURVE",
"385 416 OFFCURVE",
"437 416 CURVE",
"487 416 OFFCURVE",
"517 378 OFFCURVE",
"517 312 CURVE",
"517 93 LINE",
"543 93 LINE",
"543 313 LINE SMOOTH",
"543 394 OFFCURVE",
"505 440 OFFCURVE",
"438 440 CURVE",
"371 440 OFFCURVE",
"334 394 OFFCURVE",
"334 313 CURVE",
"330 254 LINE"
);
}
);
width = 717;
},
{
anchors = (
{
name = bottom;
position = "{459, 93}";
},
{
name = bottom_ra;
position = "{629, 93}";
},
{
name = bottom_ta;
position = "{629, 103}";
},
{
name = top;
position = "{398, 751}";
},
{
name = topright;
position = "{643, 751}";
}
);
layerId = "639D56B4-59BE-4993-85FD-8F80ECD3B0F6";
paths = (
{
closed = 1;
nodes = (
"173 263 LINE",
"233 375 LINE",
"204 395 OFFCURVE",
"187 437 OFFCURVE",
"187 472 CURVE",
"187 557 OFFCURVE",
"287 599 OFFCURVE",
"399 599 CURVE",
"506 599 OFFCURVE",
"618 558 OFFCURVE",
"618 475 CURVE",
"618 459.248 OFFCURVE",
"614.566 443.497 OFFCURVE",
"608.493 428.54 CURVE",
"770.72 371.441 LINE",
"785.668 402.464 OFFCURVE",
"793 436.222 OFFCURVE",
"793 473 CURVE",
"793 663 OFFCURVE",
"594 759 OFFCURVE",
"398 759 CURVE",
"205 759 OFFCURVE",
"22 666 OFFCURVE",
"22 492 CURVE",
"22 406 OFFCURVE",
"67 326 OFFCURVE",
"173 263 CURVE"
);
},
{
closed = 1;
nodes = (
"253 149 LINE",
"350 149 OFFCURVE",
"409 210 OFFCURVE",
"409 306 CURVE",
"409 403 OFFCURVE",
"351 463 OFFCURVE",
"255 463 CURVE",
"157 463 OFFCURVE",
"101 400 OFFCURVE",
"101 304 CURVE",
"101 208 OFFCURVE",
"156 149 OFFCURVE",
"253 149 CURVE"
);
},
{
closed = 1;
nodes = (
"256 267 LINE",
"235 267 OFFCURVE",
"223 285 OFFCURVE",
"223 306 CURVE",
"223 327 OFFCURVE",
"235 345 OFFCURVE",
"256 345 CURVE",
"278 345 OFFCURVE",
"289 327 OFFCURVE",
"289 306 CURVE",
"289 285 OFFCURVE",
"278 267 OFFCURVE",
"256 267 CURVE"
);
},
{
closed = 1;
nodes = (
"279 93 LINE",
"429 93 LINE",
"429 307 LINE SMOOTH",
"429 329 OFFCURVE",
"435 335 OFFCURVE",
"444 335 CURVE",
"454 335 OFFCURVE",
"459 329 OFFCURVE",
"459 307 CURVE",
"459 93 LINE",
"629 93 LINE",
"629 319 LINE SMOOTH",
"629 346 OFFCURVE",
"629 463 OFFCURVE",
"485 463 CURVE",
"384 463 OFFCURVE",
"338 406 OFFCURVE",
"339 319 CURVE",
"299 218 LINE"
);
}
);
width = 815;
},
{
anchors = (
{
name = bottom;
position = "{388, 93}";
},
{
name = bottom_ra;
position = "{414, 93}";
},
{
name = bottom_ta;
position = "{414, 103}";
},
{
name = top;
position = "{274, 751}";
},
{
name = topright;
position = "{471, 751}";
}
);
layerId = "EAF3E1E9-0001-42EF-B2A4-765526B8C83B";
paths = (
{
closed = 1;
nodes = (
"97 322 LINE",
"103 358 LINE",
"73 399 OFFCURVE",
"54 450 OFFCURVE",
"54 506 CURVE",
"54 632 OFFCURVE",
"148 734 OFFCURVE",
"272 734 CURVE",
"399 734 OFFCURVE",
"490 634 OFFCURVE",
"490 499 CURVE",
"490 443.532 OFFCURVE",
"475.367 384.406 OFFCURVE",
"444.35 340.864 CURVE",
"464.205 325.712 LINE",
"496.675 371.299 OFFCURVE",
"516 433.809 OFFCURVE",
"516 500 CURVE",
"516 654 OFFCURVE",
"412 759 OFFCURVE",
"274 759 CURVE",
"131 759 OFFCURVE",
"28 647 OFFCURVE",
"28 507 CURVE",
"28 436 OFFCURVE",
"55 368 OFFCURVE",
"97 322 CURVE"
);
},
{
closed = 1;
nodes = (
"184 177 LINE",
"239 177 OFFCURVE",
"273 226 OFFCURVE",
"273 309 CURVE",
"273 391 OFFCURVE",
"239 439 OFFCURVE",
"184 439 CURVE",
"128 439 OFFCURVE",
"93 390 OFFCURVE",
"93 308 CURVE",
"93 226 OFFCURVE",
"128 177 OFFCURVE",
"184 177 CURVE"
);
},
{
closed = 1;
nodes = (
"185 202 LINE",
"145 202 OFFCURVE",
"119 241 OFFCURVE",
"119 307 CURVE",
"119 374 OFFCURVE",
"144 414 OFFCURVE",
"184 414 CURVE",
"224 414 OFFCURVE",
"249 375 OFFCURVE",
"249 308 CURVE",
"249 241 OFFCURVE",
"224 202 OFFCURVE",
"185 202 CURVE"
);
},
{
closed = 1;
nodes = (
"249 93 LINE",
"275 93 LINE",
"275 319 LINE SMOOTH",
"275 381 OFFCURVE",
"294 414 OFFCURVE",
"331 414 CURVE",
"368 414 OFFCURVE",
"388 381 OFFCURVE",
"388 319 CURVE",
"388 93 LINE",
"414 93 LINE",
"414 319 LINE SMOOTH",
"414 398 OFFCURVE",
"387 439 OFFCURVE",
"334 439 CURVE",
"279 439 OFFCURVE",
"251 398 OFFCURVE",
"251 319 CURVE",
"249 254 LINE"
);
}
);
width = 544;
},
{
anchors = (
{
name = bottom;
position = "{386, 93}";
},
{
name = bottom_ra;
position = "{533, 93}";
},
{
name = bottom_ta;
position = "{533, 103}";
},
{
name = top;
position = "{338, 751}";
},
{
name = topright;
position = "{542, 751}";
}
);
guideLines = (
{
position = "{391, 225}";
}
);
layerId = "A6029D4D-1571-45DB-86AE-EDC9D2308E6F";
paths = (
{
closed = 1;
nodes = (
"140 272 LINE",
"199 377 LINE",
"174 408 OFFCURVE",
"163 440 OFFCURVE",
"163 473 CURVE",
"163 564 OFFCURVE",
"250 613 OFFCURVE",
"340 613 CURVE",
"430 613 OFFCURVE",
"520 563 OFFCURVE",
"520 468 CURVE",
"520 452.678 OFFCURVE",
"517.707 437.585 OFFCURVE",
"513.561 422.94 CURVE",
"656.342 377.25 LINE",
"666.224 407.399 OFFCURVE",
"672 436.312 OFFCURVE",
"672 471 CURVE",
"672 662 OFFCURVE",
"503 759 OFFCURVE",
"337 759 CURVE",
"175 759 OFFCURVE",
"16 666 OFFCURVE",
"16 493 CURVE",
"16 409 OFFCURVE",
"54 333 OFFCURVE",
"140 272 CURVE"
);
},
{
closed = 1;
nodes = (
"211 149 LINE",
"291 149 OFFCURVE",
"337 210 OFFCURVE",
"337 306 CURVE",
"337 403 OFFCURVE",
"291 463 OFFCURVE",
"213 463 CURVE",
"133 463 OFFCURVE",
"86 400 OFFCURVE",
"86 304 CURVE",
"86 209 OFFCURVE",
"132 149 OFFCURVE",
"211 149 CURVE"
);
},
{
closed = 1;
nodes = (
"216 260 LINE",
"201 260 OFFCURVE",
"194 273 OFFCURVE",
"194 306 CURVE",
"194 340 OFFCURVE",
"201 353 OFFCURVE",
"216 353 CURVE",
"231 353 OFFCURVE",
"238 340 OFFCURVE",
"238 306 CURVE",
"238 273 OFFCURVE",
"231 260 OFFCURVE",
"216 260 CURVE"
);
},
{
closed = 1;
nodes = (
"222 93 LINE",
"360 93 LINE",
"360 310 LINE SMOOTH",
"360 328 OFFCURVE",
"362 335 OFFCURVE",
"373 335 CURVE",
"384 335 OFFCURVE",
"386 328 OFFCURVE",
"386 310 CURVE",
"386 93 LINE",
"533 93 LINE",
"533 319 LINE SMOOTH",
"533 414 OFFCURVE",
"479 463 OFFCURVE",
"409 463 CURVE",
"335 463 OFFCURVE",
"270 408 OFFCURVE",
"270 298 CURVE",
"233 218 LINE"
);
}
);
width = 688;
},
{
anchors = (
{
name = bottom;
position = "{459, 93}";
},
{
name = bottom_ra;
position = "{629, 93}";
},
{
name = bottom_ta;
position = "{629, 103}";
},
{
name = top;
position = "{398, 751}";
},
{
name = topright;
position = "{643, 751}";
}
);
associatedMasterId = "639D56B4-59BE-4993-85FD-8F80ECD3B0F6";
background = {
paths = (
{
closed = 1;
nodes = (
"233 282 LINE",
"204 302 OFFCURVE",
"187 344 OFFCURVE",
"187 379 CURVE SMOOTH",
"187 464 OFFCURVE",
"287 506 OFFCURVE",
"399 506 CURVE SMOOTH",
"506 506 OFFCURVE",
"618 465 OFFCURVE",
"618 382 CURVE SMOOTH",
"618 365 OFFCURVE",
"614 348 OFFCURVE",
"607 332 CURVE",
"769 275 LINE",
"785 307 OFFCURVE",
"793 342 OFFCURVE",
"793 380 CURVE SMOOTH",
"793 570 OFFCURVE",
"594 666 OFFCURVE",
"398 666 CURVE SMOOTH",
"205 666 OFFCURVE",
"22 573 OFFCURVE",
"22 399 CURVE SMOOTH",
"22 313 OFFCURVE",
"67 233 OFFCURVE",
"173 170 CURVE"
);
},
{
closed = 1;
nodes = (
"350 56 OFFCURVE",
"409 117 OFFCURVE",
"409 213 CURVE SMOOTH",
"409 310 OFFCURVE",
"351 370 OFFCURVE",
"255 370 CURVE SMOOTH",
"157 370 OFFCURVE",
"101 307 OFFCURVE",
"101 211 CURVE SMOOTH",
"101 115 OFFCURVE",
"156 56 OFFCURVE",
"253 56 CURVE SMOOTH"
);
},
{
closed = 1;
nodes = (
"235 174 OFFCURVE",
"223 192 OFFCURVE",
"223 213 CURVE SMOOTH",
"223 234 OFFCURVE",
"235 252 OFFCURVE",
"256 252 CURVE SMOOTH",
"278 252 OFFCURVE",
"289 234 OFFCURVE",
"289 213 CURVE SMOOTH",
"289 192 OFFCURVE",
"278 174 OFFCURVE",
"256 174 CURVE SMOOTH"
);
},
{
closed = 1;
nodes = (
"429 0 LINE",
"429 214 LINE SMOOTH",
"429 236 OFFCURVE",
"435 242 OFFCURVE",
"444 242 CURVE SMOOTH",
"454 242 OFFCURVE",
"459 236 OFFCURVE",
"459 214 CURVE SMOOTH",
"459 0 LINE",
"629 0 LINE",
"629 226 LINE SMOOTH",
"629 253 OFFCURVE",
"629 370 OFFCURVE",
"485 370 CURVE SMOOTH",
"384 370 OFFCURVE",
"338 313 OFFCURVE",
"339 226 CURVE",
"299 125 LINE",
"279 0 LINE"
);
}
);
};
layerId = "4ED2E369-9181-489D-947E-E880A21D76EF";
name = "Black ]141]";
paths = (
{
closed = 1;
nodes = (
"173 263 LINE",
"233 375 LINE",
"204 395 OFFCURVE",
"187 437 OFFCURVE",
"187 472 CURVE",
"187 557 OFFCURVE",
"287 599 OFFCURVE",
"399 599 CURVE",
"506 599 OFFCURVE",
"618 558 OFFCURVE",
"618 475 CURVE",
"618 459.248 OFFCURVE",
"614.566 443.497 OFFCURVE",
"608.493 428.54 CURVE",
"770.72 371.441 LINE",
"785.668 402.464 OFFCURVE",
"793 436.222 OFFCURVE",
"793 473 CURVE",
"793 663 OFFCURVE",
"594 759 OFFCURVE",
"398 759 CURVE",
"205 759 OFFCURVE",
"22 666 OFFCURVE",
"22 492 CURVE",
"22 406 OFFCURVE",
"67 326 OFFCURVE",
"173 263 CURVE"
);
},
{
closed = 1;
nodes = (
"253 149 LINE",
"350 149 OFFCURVE",
"409 210 OFFCURVE",
"409 306 CURVE",
"409 403 OFFCURVE",
"351 463 OFFCURVE",
"255 463 CURVE",
"157 463 OFFCURVE",
"101 401 OFFCURVE",
"101 301 CURVE",
"101 208 OFFCURVE",
"156 149 OFFCURVE",
"253 149 CURVE"
);
},
{
closed = 1;
nodes = (
"255 277 LINE",
"239 277 OFFCURVE",
"231 290 OFFCURVE",
"231 306 CURVE",
"231 322 OFFCURVE",
"239 335 OFFCURVE",
"255 335 CURVE",
"271 335 OFFCURVE",
"279 322 OFFCURVE",
"279 306 CURVE",
"279 290 OFFCURVE",
"271 277 OFFCURVE",
"255 277 CURVE"
);
},
{
closed = 1;
nodes = (
"259 93 LINE",
"429 93 LINE",
"429 305 LINE SMOOTH",
"429 323 OFFCURVE",
"434 335 OFFCURVE",
"444 335 CURVE",
"455 335 OFFCURVE",
"459 323 OFFCURVE",
"459 305 CURVE",
"459 93 LINE",
"629 93 LINE",
"629 319 LINE SMOOTH",
"629 406 OFFCURVE",
"589 463 OFFCURVE",
"478 463 CURVE",
"388 463 OFFCURVE",
"338 406 OFFCURVE",
"338 319 CURVE",
"279 218 LINE"
);
}
);
width = 815;
},
{
anchors = (
{
name = bottom;
position = "{386, 93}";
},
{
name = bottom_ra;
position = "{533, 93}";
},
{
name = bottom_ta;
position = "{533, 103}";
},
{
name = top;
position = "{338, 751}";
},
{
name = topright;
position = "{542, 751}";
}
);
annotations = (
{
position = "{238.175, 216.215}";
type = Arrow;
}
);
associatedMasterId = "A6029D4D-1571-45DB-86AE-EDC9D2308E6F";
background = {
paths = (
{
closed = 1;
nodes = (
"199 284 LINE",
"174 315 OFFCURVE",
"163 347 OFFCURVE",
"163 377 CURVE SMOOTH",
"163 457 OFFCURVE",
"239 520 OFFCURVE",
"341 520 CURVE SMOOTH",
"439 520 OFFCURVE",
"520 461 OFFCURVE",
"520 372 CURVE SMOOTH",
"520 358 OFFCURVE",
"518 343 OFFCURVE",
"514 328 CURVE",
"660 287 LINE",
"667 316 OFFCURVE",
"672 344 OFFCURVE",
"672 374 CURVE SMOOTH",
"672 534 OFFCURVE",
"534 666 OFFCURVE",
"339 666 CURVE SMOOTH",
"143 666 OFFCURVE",
"16 534 OFFCURVE",
"16 395 CURVE SMOOTH",
"16 318 OFFCURVE",
"54 240 OFFCURVE",
"140 179 CURVE"
);
},
{
closed = 1;
nodes = (
"293 56 OFFCURVE",
"341 117 OFFCURVE",
"341 213 CURVE SMOOTH",
"341 310 OFFCURVE",
"293 370 OFFCURVE",
"214 370 CURVE SMOOTH",
"133 370 OFFCURVE",
"86 307 OFFCURVE",
"86 210 CURVE SMOOTH",
"86 115 OFFCURVE",
"132 56 OFFCURVE",
"212 56 CURVE SMOOTH"
);
},
{
closed = 1;
nodes = (
"203 181 OFFCURVE",
"198 191 OFFCURVE",
"198 213 CURVE SMOOTH",
"198 235 OFFCURVE",
"203 245 OFFCURVE",
"214 245 CURVE SMOOTH",
"225 245 OFFCURVE",
"230 235 OFFCURVE",
"230 213 CURVE SMOOTH",
"230 191 OFFCURVE",
"225 181 OFFCURVE",
"214 181 CURVE SMOOTH"
);
},
{
closed = 1;
nodes = (
"364 0 LINE",
"364 217 LINE SMOOTH",
"364 235 OFFCURVE",
"367 242 OFFCURVE",
"375 242 CURVE SMOOTH",
"383 242 OFFCURVE",
"386 235 OFFCURVE",
"386 217 CURVE SMOOTH",
"386 0 LINE",
"533 0 LINE",
"533 226 LINE SMOOTH",
"533 313 OFFCURVE",
"479 370 OFFCURVE",
"403 370 CURVE SMOOTH",
"326 370 OFFCURVE",
"269 313 OFFCURVE",
"269 226 CURVE",
"227 125 LINE",
"217 0 LINE"
);
}
);
};
layerId = "DE474BF4-6C0C-4FBD-9186-A355B469949F";
name = "ExtraCondensed Black ]141]";
paths = (
{
closed = 1;
nodes = (
"140 272 LINE",
"199 377 LINE",
"174 408 OFFCURVE",
"163 440 OFFCURVE",
"163 473 CURVE",
"163 564 OFFCURVE",
"250 613 OFFCURVE",
"340 613 CURVE",
"430 613 OFFCURVE",
"520 563 OFFCURVE",
"520 468 CURVE",
"520 452.678 OFFCURVE",
"517.707 437.585 OFFCURVE",
"513.561 422.94 CURVE",
"656.342 377.25 LINE",
"666.224 407.399 OFFCURVE",
"672 436.312 OFFCURVE",
"672 471 CURVE",
"672 662 OFFCURVE",
"503 759 OFFCURVE",
"337 759 CURVE",
"175 759 OFFCURVE",
"16 666 OFFCURVE",
"16 493 CURVE",
"16 409 OFFCURVE",
"54 333 OFFCURVE",
"140 272 CURVE"
);
},
{
closed = 1;
nodes = (
"211 149 LINE",
"291 149 OFFCURVE",
"337 210 OFFCURVE",
"337 306 CURVE",
"337 403 OFFCURVE",
"291 463 OFFCURVE",
"213 463 CURVE",
"133 463 OFFCURVE",
"86 400 OFFCURVE",
"86 304 CURVE",
"86 209 OFFCURVE",
"132 149 OFFCURVE",
"211 149 CURVE"
);
},
{
closed = 1;
nodes = (
"216 274 LINE",
"205 274 OFFCURVE",
"200 284 OFFCURVE",
"200 306 CURVE",
"200 328 OFFCURVE",
"205 338 OFFCURVE",
"216 338 CURVE",
"227 338 OFFCURVE",
"232 328 OFFCURVE",
"232 306 CURVE",
"232 284 OFFCURVE",
"227 274 OFFCURVE",
"216 274 CURVE"
);
},
{
closed = 1;
nodes = (
"212 93 LINE",
"360 93 LINE",
"360 310 LINE SMOOTH",
"360 328 OFFCURVE",
"362 335 OFFCURVE",
"373 335 CURVE",
"384 335 OFFCURVE",
"386 328 OFFCURVE",
"386 310 CURVE",
"386 93 LINE",
"533 93 LINE",
"533 319 LINE SMOOTH",
"533 415 OFFCURVE",
"479 464 OFFCURVE",
"409 464 CURVE",
"335 464 OFFCURVE",
"270 409 OFFCURVE",
"270 298 CURVE",
"223 218 LINE"
);
}
);
width = 688;
}
);
note = kaorya;
unicode = 0B15;
},
{
glyphname = "kha-oriya";
lastChange = "2019-12-12 03:39:53 +0000";
layers = (
{
anchors = (
{
name = bottom;
position = "{613, 93}";
},
{
name = bottom_ra;
position = "{639, 93}";
},
{
name = top;
position = "{370, 751}";
},
{
name = topright;
position = "{626, 751}";
}
);
layerId = "926CF2F4-31F1-4036-BA3C-0F7EE51EF36A";
paths = (
{
closed = 1;
nodes = (
"142 307 LINE",
"152 331 LINE",
"100 370 OFFCURVE",
"64 436 OFFCURVE",
"64 509 CURVE",
"64 619 OFFCURVE",
"145 735 OFFCURVE",
"368 735 CURVE",
"384 735 OFFCURVE",
"385 735 OFFCURVE",
"406 735 CURVE",
"423 759 LINE",
"399 759 OFFCURVE",
"387 759 OFFCURVE",
"370 759 CURVE",
"130 759 OFFCURVE",
"38 633 OFFCURVE",
"38 509 CURVE",
"38 428 OFFCURVE",
"78 353 OFFCURVE",
"142 307 CURVE"
);
},
{
closed = 1;
nodes = (
"304 85 LINE",
"391 85 OFFCURVE",
"477 145 OFFCURVE",
"477 263 CURVE",
"477 381 OFFCURVE",
"391 440 OFFCURVE",
"304 440 CURVE",
"218 440 OFFCURVE",
"131 381 OFFCURVE",
"131 263 CURVE",
"131 145 OFFCURVE",
"218 85 OFFCURVE",
"304 85 CURVE"
);
},
{
closed = 1;
nodes = (
"304 109 LINE",
"231 109 OFFCURVE",
"157 160 OFFCURVE",
"157 264 CURVE",
"157 365 OFFCURVE",
"230 416 OFFCURVE",
"304 416 CURVE",
"377 416 OFFCURVE",
"451 365 OFFCURVE",
"451 263 CURVE",
"451 160 OFFCURVE",
"378 109 OFFCURVE",
"304 109 CURVE"
);
},
{
closed = 1;
nodes = (
"613 93 LINE",
"639 93 LINE",
"639 751 LINE",
"613 751 LINE"
);
},
{
closed = 1;
nodes = (
"507 475 LINE",
"564 475 OFFCURVE",
"605 490 OFFCURVE",
"629 511 CURVE",
"621 537 LINE",
"603 516 OFFCURVE",
"564 499 OFFCURVE",
"507 499 CURVE",
"416 499 OFFCURVE",
"377 548 OFFCURVE",
"377 607 CURVE",
"377 651 OFFCURVE",
"398 701 OFFCURVE",
"435 741 CURVE",
"423 759 LINE",
"378 715 OFFCURVE",
"352 657 OFFCURVE",
"352 605 CURVE",
"352 535 OFFCURVE",
"398 475 OFFCURVE",
"507 475 CURVE"
);
}
);
width = 709;
},
{
anchors = (
{
name = bottom;
position = "{582, 93}";
},
{
name = bottom_ra;
position = "{752, 93}";
},
{
name = top;
position = "{386, 751}";
},
{
name = topright;
position = "{667, 751}";
}
);
layerId = "639D56B4-59BE-4993-85FD-8F80ECD3B0F6";
paths = (
{
closed = 1;
nodes = (
"173 263 LINE",
"233 375 LINE",
"201 410 OFFCURVE",
"187 439 OFFCURVE",
"187 473 CURVE",
"187 547 OFFCURVE",
"234 599 OFFCURVE",
"370 599 CURVE",
"412 599 OFFCURVE",
"454 594 OFFCURVE",
"469 589 CURVE",
"418 759 LINE",
"408 759 OFFCURVE",
"402 759 OFFCURVE",
"386 759 CURVE",
"140 759 OFFCURVE",
"22 649 OFFCURVE",
"22 494 CURVE",
"22 396 OFFCURVE",
"77 323 OFFCURVE",
"173 263 CURVE"
);
},
{
closed = 1;
nodes = (
"326 85 LINE",
"451 85 OFFCURVE",
"538 160 OFFCURVE",
"538 273 CURVE",
"538 386 OFFCURVE",
"451 461 OFFCURVE",
"326 461 CURVE",
"201 461 OFFCURVE",
"118 386 OFFCURVE",
"118 273 CURVE",
"118 160 OFFCURVE",
"201 85 OFFCURVE",
"326 85 CURVE"
);
},
{
closed = 1;
nodes = (
"328 223 LINE",
"293 223 OFFCURVE",
"272 243 OFFCURVE",
"272 273 CURVE",
"272 303 OFFCURVE",
"293 323 OFFCURVE",
"328 323 CURVE",
"363 323 OFFCURVE",
"384 303 OFFCURVE",
"384 273 CURVE",
"384 243 OFFCURVE",
"363 223 OFFCURVE",
"328 223 CURVE"
);
},
{
closed = 1;
nodes = (
"582 93 LINE",
"752 93 LINE",
"752 751 LINE",
"582 751 LINE"
);
},
{
closed = 1;
nodes = (
"538 442 LINE",
"601 442 OFFCURVE",
"652 465 OFFCURVE",
"682 512 CURVE",
"604 605 LINE",
"594 590 OFFCURVE",
"575 580 OFFCURVE",
"548 580 CURVE",
"513 580 OFFCURVE",
"486 599 OFFCURVE",
"486 634 CURVE",
"486 647 OFFCURVE",
"489 661 OFFCURVE",
"496 681 CURVE",
"418 759 LINE",
"350 737 OFFCURVE",
"331 679 OFFCURVE",
"331 623 CURVE",
"331 498 OFFCURVE",
"438 442 OFFCURVE",
"538 442 CURVE"
);
}
);
width = 798;
},
{
anchors = (
{
name = bottom;
position = "{456, 93}";
},
{
name = bottom_ra;
position = "{482, 93}";
},
{
name = top;
position = "{281, 751}";
},
{
name = topright;
position = "{469, 751}";
}
);
layerId = "EAF3E1E9-0001-42EF-B2A4-765526B8C83B";
paths = (
{
closed = 1;
nodes = (
"113 301 LINE",
"123 327 LINE",
"76 370 OFFCURVE",
"54 431 OFFCURVE",
"54 499 CURVE",
"54 635 OFFCURVE",
"141 735 OFFCURVE",
"279 735 CURVE",
"289 735 OFFCURVE",
"299 735 OFFCURVE",
"306 735 CURVE",
"299 759 LINE",
"289 759 OFFCURVE",
"291 759 OFFCURVE",
"281 759 CURVE",
"122 759 OFFCURVE",
"28 645 OFFCURVE",
"28 503 CURVE",
"28 420 OFFCURVE",
"60 349 OFFCURVE",
"113 301 CURVE"
);
},
{
closed = 1;
nodes = (
"234 85 LINE",
"316 85 OFFCURVE",
"370 156 OFFCURVE",
"370 263 CURVE",
"370 369 OFFCURVE",
"316 440 OFFCURVE",
"234 440 CURVE",
"152 440 OFFCURVE",
"98 369 OFFCURVE",
"98 263 CURVE",
"98 156 OFFCURVE",
"152 85 OFFCURVE",
"234 85 CURVE"
);
},
{
closed = 1;
nodes = (
"234 110 LINE",
"167 110 OFFCURVE",
"124 171 OFFCURVE",
"124 264 CURVE",
"124 356 OFFCURVE",
"167 415 OFFCURVE",
"234 415 CURVE",
"301 415 OFFCURVE",
"344 355 OFFCURVE",
"344 263 CURVE",
"344 170 OFFCURVE",
"301 110 OFFCURVE",
"234 110 CURVE"
);
},
{
closed = 1;
nodes = (
"456 93 LINE",
"482 93 LINE",
"482 751 LINE",
"456 751 LINE"
);
},
{
closed = 1;
nodes = (
"372 475 LINE",
"404 475 OFFCURVE",
"439 486 OFFCURVE",
"471 508 CURVE",
"469 537 LINE",
"439 513 OFFCURVE",
"405 500 OFFCURVE",
"374 500 CURVE",
"302 500 OFFCURVE",
"273 555 OFFCURVE",
"273 616 CURVE",
"273 659 OFFCURVE",
"287 705 OFFCURVE",
"311 738 CURVE",
"299 759 LINE",
"266 721 OFFCURVE",
"247 665 OFFCURVE",
"247 613 CURVE",
"247 540 OFFCURVE",
"284 475 OFFCURVE",
"372 475 CURVE"
);
}
);
width = 534;
},
{
anchors = (
{
name = bottom;
position = "{465, 93}";
},
{
name = bottom_ra;
position = "{612, 93}";
},
{
name = top;
position = "{312, 751}";
},
{
name = topright;
position = "{539, 751}";
}
);
layerId = "A6029D4D-1571-45DB-86AE-EDC9D2308E6F";
paths = (
{
closed = 1;
nodes = (
"143 289 LINE",
"204 383 LINE",
"175 409 OFFCURVE",
"163 442 OFFCURVE",
"163 477 CURVE",
"163 566 OFFCURVE",
"239 613 OFFCURVE",
"314 613 CURVE",
"326 613 OFFCURVE",
"342 613 OFFCURVE",
"357 613 CURVE",
"326 759 LINE",
"311 759 OFFCURVE",
"325 759 OFFCURVE",
"312 759 CURVE",
"104 759 OFFCURVE",
"16 632 OFFCURVE",
"16 508 CURVE",
"16 417 OFFCURVE",
"63 327 OFFCURVE",
"143 289 CURVE"
);
},
{
closed = 1;
nodes = (
"266 85 LINE",
"366 85 OFFCURVE",
"430 158 OFFCURVE",
"430 273 CURVE",
"430 388 OFFCURVE",
"367 461 OFFCURVE",
"268 461 CURVE",
"166 461 OFFCURVE",
"101 388 OFFCURVE",
"101 273 CURVE",
"101 158 OFFCURVE",
"165 85 OFFCURVE",
"266 85 CURVE"
);
},
{
closed = 1;
nodes = (
"266 208 LINE",
"244 208 OFFCURVE",
"234 229 OFFCURVE",
"234 273 CURVE",
"234 317 OFFCURVE",
"244 338 OFFCURVE",
"266 338 CURVE",
"287 338 OFFCURVE",
"297 317 OFFCURVE",
"297 273 CURVE",
"297 229 OFFCURVE",
"287 208 OFFCURVE",
"266 208 CURVE"
);
},
{
closed = 1;
nodes = (
"465 93 LINE",
"612 93 LINE",
"612 751 LINE",
"465 751 LINE"
);
},
{
closed = 1;
nodes = (
"424 447 LINE",
"526 447 OFFCURVE",
"580 518 OFFCURVE",
"580 599 CURVE",
"482 594 LINE",
"469 577 OFFCURVE",
"456 570 OFFCURVE",
"439 570 CURVE",
"411 570 OFFCURVE",
"392 589 OFFCURVE",
"392 636 CURVE",
"392 648 OFFCURVE",
"394 662 OFFCURVE",
"399 681 CURVE",
"326 759 LINE",
"280 723 OFFCURVE",
"264 677 OFFCURVE",
"264 620 CURVE",
"264 509 OFFCURVE",
"325 447 OFFCURVE",
"424 447 CURVE"
);
}
);
width = 646;
}
);
note = khaorya;
rightMetricsKey = "aaMatra-oriya";
unicode = 0B16;
},
{
glyphname = "ga-oriya";
lastChange = "2019-12-12 03:39:53 +0000";
layers = (
{
anchors = (
{
name = bottom;
position = "{612, 93}";
},
{
name = bottom_ra;
position = "{638, 93}";
},
{
name = top;
position = "{330, 751}";
},
{
name = topright;
position = "{625, 751}";
}
);
layerId = "926CF2F4-31F1-4036-BA3C-0F7EE51EF36A";
paths = (
{
closed = 1;
nodes = (
"303 85 LINE",
"403 85 OFFCURVE",
"477 162 OFFCURVE",
"477 263 CURVE",
"477 364 OFFCURVE",
"403 440 OFFCURVE",
"303 440 CURVE",
"201 440 OFFCURVE",
"130 364 OFFCURVE",
"130 263 CURVE",
"130 162 OFFCURVE",
"201 85 OFFCURVE",
"303 85 CURVE"
);
},
{
closed = 1;
nodes = (
"303 109 LINE",
"216 109 OFFCURVE",
"156 171 OFFCURVE",
"156 264 CURVE",
"156 353 OFFCURVE",
"213 416 OFFCURVE",
"303 416 CURVE",
"391 416 OFFCURVE",
"451 353 OFFCURVE",
"451 263 CURVE",
"451 171 OFFCURVE",
"389 109 OFFCURVE",
"303 109 CURVE"
);
},
{
closed = 1;
nodes = (
"612 93 LINE",
"638 93 LINE",
"638 751 LINE",
"612 751 LINE",
"612 586 LINE",
"612 574 LINE"
);
},
{
closed = 1;
nodes = (
"331 735 LINE",
"472 735 OFFCURVE",
"614 643 OFFCURVE",
"614 471 CURVE",
"638 471 LINE",
"638 659 OFFCURVE",
"481 759 OFFCURVE",
"328 759 CURVE",
"181 759 OFFCURVE",
"38 672 OFFCURVE",
"38 509 CURVE",
"38 427 OFFCURVE",
"74 353 OFFCURVE",
"141 307 CURVE",
"151 331 LINE",
"96 371 OFFCURVE",
"64 436 OFFCURVE",
"64 508 CURVE",
"64 655 OFFCURVE",
"195 735 OFFCURVE",
"331 735 CURVE"
);
}
);
width = 708;
},
{
anchors = (
{
name = bottom;
position = "{582, 93}";
},
{
name = bottom_ra;
position = "{752, 93}";
},
{
name = top;
position = "{347, 751}";
},
{
name = topright;
position = "{667, 751}";
}
);
layerId = "639D56B4-59BE-4993-85FD-8F80ECD3B0F6";
paths = (
{
closed = 1;
nodes = (
"326 85 LINE",
"451 85 OFFCURVE",
"538 160 OFFCURVE",
"538 273 CURVE",
"538 386 OFFCURVE",
"451 461 OFFCURVE",
"326 461 CURVE",
"201 461 OFFCURVE",
"118 386 OFFCURVE",
"118 273 CURVE",
"118 160 OFFCURVE",
"201 85 OFFCURVE",
"326 85 CURVE"
);
},
{
closed = 1;
nodes = (
"329 223 LINE",
"294 223 OFFCURVE",
"272 243 OFFCURVE",
"272 273 CURVE",
"272 303 OFFCURVE",
"294 323 OFFCURVE",
"329 323 CURVE",
"364 323 OFFCURVE",
"384 303 OFFCURVE",
"384 273 CURVE",
"384 243 OFFCURVE",
"364 223 OFFCURVE",
"329 223 CURVE"
);
},
{
closed = 1;
nodes = (
"582 93 LINE",
"752 93 LINE",
"752 751 LINE",
"582 751 LINE",
"592 640 LINE",
"582 558 LINE"
);
},
{
closed = 1;
nodes = (
"373 599 LINE",
"493 599 OFFCURVE",
"606 530 OFFCURVE",
"606 378 CURVE",
"734 386 LINE",
"734 640 OFFCURVE",
"544 759 OFFCURVE",
"347 759 CURVE",
"180 759 OFFCURVE",
"22 667 OFFCURVE",
"22 493 CURVE",
"22 410 OFFCURVE",
"62 328 OFFCURVE",
"173 263 CURVE",
"232 375 LINE",
"201 402 OFFCURVE",
"186 436 OFFCURVE",
"186 470 CURVE",
"186 553 OFFCURVE",
"276 599 OFFCURVE",
"373 599 CURVE"
);
}
);
width = 798;
},
{
anchors = (
{
name = bottom;
position = "{456, 93}";
},
{
name = bottom_ra;
position = "{482, 93}";
},
{
name = top;
position = "{253, 751}";
},
{
name = topright;
position = "{469, 751}";
}
);
layerId = "EAF3E1E9-0001-42EF-B2A4-765526B8C83B";
paths = (
{
closed = 1;
nodes = (
"234 85 LINE",
"316 85 OFFCURVE",
"370 156 OFFCURVE",
"370 263 CURVE",
"370 369 OFFCURVE",
"316 440 OFFCURVE",
"234 440 CURVE",
"152 440 OFFCURVE",
"98 369 OFFCURVE",
"98 263 CURVE",
"98 156 OFFCURVE",
"152 85 OFFCURVE",
"234 85 CURVE"
);
},
{
closed = 1;
nodes = (
"234 110 LINE",
"167 110 OFFCURVE",
"124 171 OFFCURVE",
"124 264 CURVE",
"124 356 OFFCURVE",
"167 415 OFFCURVE",
"234 415 CURVE",
"301 415 OFFCURVE",
"344 355 OFFCURVE",
"344 263 CURVE",
"344 170 OFFCURVE",
"301 110 OFFCURVE",
"234 110 CURVE"
);
},
{
closed = 1;
nodes = (
"456 93 LINE",
"482 93 LINE",
"482 751 LINE",
"456 751 LINE",
"456 588 LINE",
"456 573 LINE"
);
},
{
closed = 1;
nodes = (
"254 734 LINE",
"357 734 OFFCURVE",
"460 654 OFFCURVE",
"460 491 CURVE",
"482 491 LINE",
"482 670 OFFCURVE",
"366 759 OFFCURVE",
"252 759 CURVE",
"139 759 OFFCURVE",
"28 673 OFFCURVE",
"28 504 CURVE",
"28 427 OFFCURVE",
"53 359 OFFCURVE",
"106 307 CURVE",
"116 333 LINE",
"74 378 OFFCURVE",
"54 436 OFFCURVE",
"54 503 CURVE",
"54 657 OFFCURVE",
"154 734 OFFCURVE",
"254 734 CURVE"
);
}
);
width = 534;
},
{
anchors = (
{
name = bottom;
position = "{464, 93}";
},
{
name = bottom_ra;
position = "{611, 93}";
},
{
name = top;
position = "{289, 751}";
},
{
name = topright;
position = "{538, 751}";
}
);
guideLines = (
{
position = "{396, 225}";
}
);
layerId = "A6029D4D-1571-45DB-86AE-EDC9D2308E6F";
paths = (
{
closed = 1;
nodes = (
"266 85 LINE",
"368 85 OFFCURVE",
"430 157 OFFCURVE",
"430 273 CURVE",
"430 390 OFFCURVE",
"368 461 OFFCURVE",
"268 461 CURVE",
"165 461 OFFCURVE",
"101 390 OFFCURVE",
"101 273 CURVE",
"101 157 OFFCURVE",
"165 85 OFFCURVE",
"266 85 CURVE"
);
},
{
closed = 1;
nodes = (
"266 208 LINE",
"244 208 OFFCURVE",
"234 229 OFFCURVE",
"234 273 CURVE",
"234 317 OFFCURVE",
"244 338 OFFCURVE",
"266 338 CURVE",
"287 338 OFFCURVE",
"297 317 OFFCURVE",
"297 273 CURVE",
"297 229 OFFCURVE",
"287 208 OFFCURVE",
"266 208 CURVE"
);
},
{
closed = 1;
nodes = (
"464 93 LINE",
"611 93 LINE",
"611 751 LINE",
"464 751 LINE",
"472 668 LINE",
"464 591 LINE"
);
},
{
closed = 1;
nodes = (
"316 613 LINE",
"396 613 OFFCURVE",
"476 564 OFFCURVE",
"476 465 CURVE",
"589 464 LINE",
"589 662 OFFCURVE",
"437 759 OFFCURVE",
"289 759 CURVE",
"151 759 OFFCURVE",
"16 673 OFFCURVE",
"16 508 CURVE",
"16 423 OFFCURVE",
"56 334 OFFCURVE",
"140 289 CURVE",
"205 382 LINE",
"177 406 OFFCURVE",
"163 437 OFFCURVE",
"163 475 CURVE",
"163 566 OFFCURVE",
"239 613 OFFCURVE",
"316 613 CURVE"
);
}
);
width = 645;
}
);
note = gaorya;
rightMetricsKey = "aaMatra-oriya";
unicode = 0B17;
},
{
glyphname = "gha-oriya";
lastChange = "2019-12-12 03:39:53 +0000";
layers = (
{
anchors = (
{
name = bottom;
position = "{612, 93}";
},
{
name = bottom_ra;
position = "{638, 93}";
},
{
name = top;
position = "{324, 751}";
},
{
name = topright;
position = "{625, 751}";
}
);
layerId = "926CF2F4-31F1-4036-BA3C-0F7EE51EF36A";
paths = (
{
closed = 1;
nodes = (
"141 307 LINE",
"151 331 LINE",
"96 371 OFFCURVE",
"64 436 OFFCURVE",
"64 507 CURVE",
"64 640 OFFCURVE",
"177 735 OFFCURVE",
"325 735 CURVE",
"466 735 OFFCURVE",
"614 649 OFFCURVE",
"614 471 CURVE",
"638 471 LINE",
"638 644 OFFCURVE",
"502 759 OFFCURVE",
"324 759 CURVE",
"154 759 OFFCURVE",
"38 653 OFFCURVE",
"38 509 CURVE",
"38 430 OFFCURVE",
"73 354 OFFCURVE",
"141 307 CURVE"
);
},
{
closed = 1;
nodes = (
"272 85 LINE",
"341 85 OFFCURVE",
"406 130 OFFCURVE",
"406 217 CURVE",
"392 217 LINE",
"392 129 OFFCURVE",
"455 85 OFFCURVE",
"515 85 CURVE",
"575 85 OFFCURVE",
"632 129 OFFCURVE",
"632 217 CURVE",
"612 217 LINE",
"612 146 OFFCURVE",
"566 109 OFFCURVE",
"518 109 CURVE",
"466 109 OFFCURVE",
"412 152 OFFCURVE",
"412 243 CURVE",
"412 320 LINE",
"386 320 LINE",
"386 243 LINE SMOOTH",
"386 154 OFFCURVE",
"335 109 OFFCURVE",
"270 109 CURVE",
"199 109 OFFCURVE",
"156 169 OFFCURVE",
"156 241 CURVE",
"156 318 OFFCURVE",
"205 409 OFFCURVE",
"305 452 CURVE",
"296 474 LINE",
"184 427 OFFCURVE",
"130 326 OFFCURVE",
"130 239 CURVE",
"130 156 OFFCURVE",
"180 85 OFFCURVE",
"272 85 CURVE"
);
},
{
closed = 1;
nodes = (
"612 93 LINE",
"638 93 LINE",
"638 751 LINE",
"612 751 LINE",
"612 581 LINE",
"612 566 LINE",
"612 157 LINE",
"612 141 LINE"
);
}
);
width = 708;
},
{
anchors = (
{
name = bottom;
position = "{582, 93}";
},
{
name = bottom_ra;
position = "{752, 93}";
},
{
name = top;
position = "{356, 751}";
},
{
name = topright;
position = "{667, 751}";
}
);
layerId = "639D56B4-59BE-4993-85FD-8F80ECD3B0F6";
paths = (
{
closed = 1;
nodes = (
"173 263 LINE",
"232 375 LINE",
"200 407 OFFCURVE",
"186 437 OFFCURVE",
"186 469 CURVE",
"186 540 OFFCURVE",
"256 599 OFFCURVE",
"372 599 CURVE",
"508 599 OFFCURVE",
"606 517 OFFCURVE",
"606 378 CURVE",
"734 386 LINE",
"734 640 OFFCURVE",
"542 759 OFFCURVE",
"347 759 CURVE",
"167 759 OFFCURVE",
"22 657 OFFCURVE",
"22 494 CURVE",
"22 398 OFFCURVE",
"73 318 OFFCURVE",
"173 263 CURVE"
);
},
{
closed = 1;
nodes = (
"303 85 LINE",
"382 85 OFFCURVE",
"457 131 OFFCURVE",
"457 217 CURVE",
"410 217 LINE",
"410 131 OFFCURVE",
"457 85 OFFCURVE",
"508 85 CURVE",
"567 85 OFFCURVE",
"631 148 OFFCURVE",
"631 286 CURVE",
"582 286 LINE",
"582 246 OFFCURVE",
"567 223 OFFCURVE",
"541 223 CURVE",
"516 223 OFFCURVE",
"502 245 OFFCURVE",
"502 282 CURVE",
"502 340 LINE",
"372 340 LINE",
"372 282 LINE SMOOTH",
"372 241 OFFCURVE",
"348 223 OFFCURVE",
"323 223 CURVE",
"298 223 OFFCURVE",
"272 240 OFFCURVE",
"272 276 CURVE",
"272 314 OFFCURVE",
"300 363 OFFCURVE",
"366 387 CURVE",
"314 504 LINE",
"191 462 OFFCURVE",
"118 373 OFFCURVE",
"118 266 CURVE",
"118 144 OFFCURVE",
"214 85 OFFCURVE",
"303 85 CURVE"
);
},
{
closed = 1;
nodes = (
"582 93 LINE",
"752 93 LINE",
"752 751 LINE",
"582 751 LINE",
"592 640 LINE",
"582 558 LINE",
"582 205 LINE",
"592 157 LINE"
);
}
);
width = 798;
},
{
anchors = (
{
name = bottom;
position = "{456, 93}";
},
{
name = bottom_ra;
position = "{482, 93}";
},
{
name = top;
position = "{254, 751}";
},
{
name = topright;
position = "{469, 751}";
}
);
layerId = "EAF3E1E9-0001-42EF-B2A4-765526B8C83B";
paths = (
{
closed = 1;
nodes = (
"106 307 LINE",
"116 333 LINE",
"74 379 OFFCURVE",
"54 438 OFFCURVE",
"54 506 CURVE",
"54 657 OFFCURVE",
"154 734 OFFCURVE",
"255 734 CURVE",
"357 734 OFFCURVE",
"460 655 OFFCURVE",
"460 491 CURVE",
"482 491 LINE",
"482 672 OFFCURVE",
"368 759 OFFCURVE",
"254 759 CURVE",
"139 759 OFFCURVE",
"28 671 OFFCURVE",
"28 507 CURVE",
"28 429 OFFCURVE",
"53 358 OFFCURVE",
"106 307 CURVE"
);
},
{
closed = 1;
nodes = (
"207 85 LINE",
"256 85 OFFCURVE",
"295 121 OFFCURVE",
"306 174 CURVE",
"302 174 LINE",
"313 120 OFFCURVE",
"342 85 OFFCURVE",
"387 85 CURVE",
"446 85 OFFCURVE",
"474 139 OFFCURVE",
"474 217 CURVE",
"456 217 LINE",
"456 153 OFFCURVE",
"431 110 OFFCURVE",
"390 110 CURVE",
"342 110 OFFCURVE",
"318 164 OFFCURVE",
"318 243 CURVE",
"318 320 LINE",
"292 320 LINE",
"292 243 LINE SMOOTH",
"292 164 OFFCURVE",
"260 110 OFFCURVE",
"209 110 CURVE",
"158 110 OFFCURVE",
"124 162 OFFCURVE",
"124 244 CURVE",
"124 340 OFFCURVE",
"171 415 OFFCURVE",
"237 452 CURVE",
"225 474 LINE",
"150 435 OFFCURVE",
"98 353 OFFCURVE",
"98 246 CURVE",
"98 147 OFFCURVE",
"142 85 OFFCURVE",
"207 85 CURVE"
);
},
{
closed = 1;
nodes = (
"456 93 LINE",
"482 93 LINE",
"482 751 LINE",
"456 751 LINE",
"456 588 LINE",
"456 573 LINE",
"456 167 LINE",
"456 151 LINE"
);
}
);
width = 534;
},
{
anchors = (
{
name = bottom;
position = "{464, 93}";
},
{
name = bottom_ra;
position = "{611, 93}";
},
{
name = top;
position = "{284, 751}";
},
{
name = topright;
position = "{538, 751}";
}
);
layerId = "A6029D4D-1571-45DB-86AE-EDC9D2308E6F";
paths = (
{
closed = 1;
nodes = (
"140 289 LINE",
"205 382 LINE",
"177 406 OFFCURVE",
"163 437 OFFCURVE",
"163 478 CURVE",
"163 567 OFFCURVE",
"230 613 OFFCURVE",
"311 613 CURVE",
"380 613 OFFCURVE",
"476 579 OFFCURVE",
"476 465 CURVE",
"589 464 LINE",
"589 694 OFFCURVE",
"402 759 OFFCURVE",
"284 759 CURVE",
"139 759 OFFCURVE",
"16 662 OFFCURVE",
"16 504 CURVE",
"16 414 OFFCURVE",
"56 334 OFFCURVE",
"140 289 CURVE"
);
},
{
closed = 1;
nodes = (
"249 85 LINE",
"317 85 OFFCURVE",
"383 136 OFFCURVE",
"383 235 CURVE",
"334 235 LINE",
"334 136 OFFCURVE",
"375 85 OFFCURVE",
"416 85 CURVE",
"461 85 OFFCURVE",
"507 143 OFFCURVE",
"507 262 CURVE",
"464 262 LINE",
"464 227 OFFCURVE",
"456 215 OFFCURVE",
"442 215 CURVE",
"428 215 OFFCURVE",
"420 227 OFFCURVE",
"420 262 CURVE",
"420 340 LINE",
"302 340 LINE",
"302 262 LINE SMOOTH",
"302 227 OFFCURVE",
"289 215 OFFCURVE",
"274 215 CURVE",
"255 215 OFFCURVE",
"244 232 OFFCURVE",
"244 269 CURVE",
"244 317 OFFCURVE",
"263 362 OFFCURVE",
"310 395 CURVE",
"242 504 LINE",
"157 462 OFFCURVE",
"101 367 OFFCURVE",
"101 266 CURVE",
"101 144 OFFCURVE",
"177 85 OFFCURVE",
"249 85 CURVE"
);
},
{
closed = 1;
nodes = (
"464 93 LINE",
"611 93 LINE",
"611 751 LINE",
"464 751 LINE",
"472 668 LINE",
"464 592 LINE",
"464 204 LINE",
"474 157 LINE"
);
}
);
width = 645;
}
);
note = ghaorya;
rightMetricsKey = "aaMatra-oriya";
unicode = 0B18;
},
{
glyphname = "nga-oriya";
lastChange = "2019-12-12 03:39:53 +0000";
layers = (
{
anchors = (
{
name = bottom;
position = "{334, 93}";
},
{
name = bottom_ra;
position = "{579, 93}";
},
{
name = top;
position = "{333, 751}";
},
{
name = topright;
position = "{559, 751}";
}
);
layerId = "926CF2F4-31F1-4036-BA3C-0F7EE51EF36A";
paths = (
{
closed = 1;
nodes = (
"165 303 LINE",
"174 329 LINE",
"95 373 OFFCURVE",
"64 450 OFFCURVE",
"64 515 CURVE",
"64 625 OFFCURVE",
"151 735 OFFCURVE",
"334 735 CURVE",
"392 735 OFFCURVE",
"446 724 OFFCURVE",
"498 701 CURVE",
"513 719 LINE",
"457 746 OFFCURVE",
"397 759 OFFCURVE",
"333 759 CURVE",
"135 759 OFFCURVE",
"38 638 OFFCURVE",
"38 518 CURVE",
"38 437 OFFCURVE",
"77 349 OFFCURVE",
"165 303 CURVE"
);
},
{
closed = 1;
nodes = (
"352 285 LINE",
"489 438 LINE",
"472 453 LINE",
"335 300 LINE"
);
},
{
closed = 1;
nodes = (
"593 501 LINE",
"668 501 OFFCURVE",
"706 564 OFFCURVE",
"706 626 CURVE",
"706 689 OFFCURVE",
"667 751 OFFCURVE",
"591 751 CURVE",
"523 751 OFFCURVE",
"474 700 OFFCURVE",
"474 625 CURVE",
"474 543 OFFCURVE",
"531 501 OFFCURVE",
"593 501 CURVE"
);
},
{
closed = 1;
nodes = (
"591 525 LINE",
"544 525 OFFCURVE",
"500 558 OFFCURVE",
"500 625 CURVE",
"500 692 OFFCURVE",
"544 727 OFFCURVE",
"592 727 CURVE",
"649 727 OFFCURVE",
"680 677 OFFCURVE",
"680 626 CURVE",
"680 576 OFFCURVE",
"650 525 OFFCURVE",
"591 525 CURVE"
);
},
{
closed = 1;
nodes = (
"334 85 LINE",
"430 85 OFFCURVE",
"517 139 OFFCURVE",
"517 234 CURVE",
"517 291 OFFCURVE",
"485 349 OFFCURVE",
"418 383 CURVE",
"399 367 LINE",
"459 337 OFFCURVE",
"491 289 OFFCURVE",
"491 235 CURVE",
"491 152 OFFCURVE",
"414 109 OFFCURVE",
"336 109 CURVE",
"245 109 OFFCURVE",
"180 167 OFFCURVE",
"180 250 CURVE",
"180 306 OFFCURVE",
"209 380 OFFCURVE",
"291 450 CURVE",
"275 466 LINE",
"190 395 OFFCURVE",
"154 320 OFFCURVE",
"154 250 CURVE",
"154 148 OFFCURVE",
"231 85 OFFCURVE",
"334 85 CURVE"
);
}
);
width = 718;
},
{
anchors = (
{
name = bottom;
position = "{336, 93}";
},
{
name = bottom_ra;
position = "{726, 93}";
},
{
name = top;
position = "{371, 751}";
},
{
name = topright;
position = "{647, 751}";
}
);
layerId = "639D56B4-59BE-4993-85FD-8F80ECD3B0F6";
paths = (
{
closed = 1;
nodes = (
"173 263 LINE",
"233 375 LINE",
"205 395 OFFCURVE",
"186 433 OFFCURVE",
"186 475 CURVE",
"186 559 OFFCURVE",
"263 621 OFFCURVE",
"383 621 CURVE",
"460 621 OFFCURVE",
"511 596 OFFCURVE",
"556 559 CURVE",
"616 691 LINE",
"553 735 OFFCURVE",
"477 759 OFFCURVE",
"370 759 CURVE",
"161 759 OFFCURVE",
"22 647 OFFCURVE",
"22 492 CURVE",
"22 398 OFFCURVE",
"74 322 OFFCURVE",
"173 263 CURVE"
);
},
{
closed = 1;
nodes = (
"397 267 LINE",
"575 437 LINE",
"492 524 LINE",
"314 354 LINE"
);
},
{
closed = 1;
nodes = (
"646 457 LINE",
"743 457 OFFCURVE",
"801 518 OFFCURVE",
"801 604 CURVE",
"801 691 OFFCURVE",
"744 751 OFFCURVE",
"648 751 CURVE",
"550 751 OFFCURVE",
"495 688 OFFCURVE",
"495 602 CURVE",
"495 516 OFFCURVE",
"549 457 OFFCURVE",
"646 457 CURVE"
);
},
{
closed = 1;
nodes = (
"648 565 LINE",
"628 565 OFFCURVE",
"617 583 OFFCURVE",
"617 604 CURVE",
"617 625 OFFCURVE",
"628 643 OFFCURVE",
"648 643 CURVE",
"669 643 OFFCURVE",
"679 625 OFFCURVE",
"679 604 CURVE",
"679 583 OFFCURVE",
"669 565 OFFCURVE",
"648 565 CURVE"
);
},
{
closed = 1;
nodes = (
"371 85 LINE",
"490 85 OFFCURVE",
"603 149 OFFCURVE",
"603 279 CURVE",
"603 342 OFFCURVE",
"577 388 OFFCURVE",
"490 441 CURVE",
"382 353 LINE",
"442 321 OFFCURVE",
"459 300 OFFCURVE",
"459 275 CURVE",
"459 241 OFFCURVE",
"427 223 OFFCURVE",
"383 223 CURVE",
"334 223 OFFCURVE",
"293 251 OFFCURVE",
"293 305 CURVE",
"293 352 OFFCURVE",
"318 398 OFFCURVE",
"383 442 CURVE",
"318 535 LINE",
"186 472 OFFCURVE",
"139 365 OFFCURVE",
"139 291 CURVE",
"139 147 OFFCURVE",
"258 85 OFFCURVE",
"371 85 CURVE"
);
}
);
width = 807;
},
{
anchors = (
{
name = bottom;
position = "{246, 93}";
},
{
name = bottom_ra;
position = "{467, 93}";
},
{
name = top;
position = "{256, 751}";
},
{
name = topright;
position = "{417, 751}";
}
);
layerId = "EAF3E1E9-0001-42EF-B2A4-765526B8C83B";
paths = (
{
closed = 1;
nodes = (
"116 300 LINE",
"124 327 LINE",
"84 371 OFFCURVE",
"54 436 OFFCURVE",
"54 503 CURVE",
"54 632 OFFCURVE",
"139 734 OFFCURVE",
"256 734 CURVE",
"299 734 OFFCURVE",
"338 721 OFFCURVE",
"369 698 CURVE",
"385 718 LINE",
"349 744 OFFCURVE",
"305 759 OFFCURVE",
"256 759 CURVE",
"120 759 OFFCURVE",
"28 645 OFFCURVE",
"28 506 CURVE",
"28 424 OFFCURVE",
"64 345 OFFCURVE",
"116 300 CURVE"
);
},
{
closed = 1;
nodes = (
"254 291 LINE",
"368 438 LINE",
"350 453 LINE",
"236 306 LINE"
);
},
{
closed = 1;
nodes = (
"438 501 LINE",
"495 501 OFFCURVE",
"524 564 OFFCURVE",
"524 626 CURVE",
"524 689 OFFCURVE",
"494 751 OFFCURVE",
"437 751 CURVE",
"385 751 OFFCURVE",
"348 700 OFFCURVE",
"348 625 CURVE",
"348 543 OFFCURVE",
"391 501 OFFCURVE",
"438 501 CURVE"
);
},
{
closed = 1;
nodes = (
"437 526 LINE",
"404 526 OFFCURVE",
"374 559 OFFCURVE",
"374 625 CURVE",
"374 691 OFFCURVE",
"404 726 OFFCURVE",
"438 726 CURVE",
"478 726 OFFCURVE",
"499 676 OFFCURVE",
"499 626 CURVE",
"499 576 OFFCURVE",
"478 526 OFFCURVE",
"437 526 CURVE"
);
},
{
closed = 1;
nodes = (
"246 85 LINE",
"334 85 OFFCURVE",
"381 152 OFFCURVE",
"381 230 CURVE",
"381 283 OFFCURVE",
"359 340 OFFCURVE",
"313 383 CURVE",
"298 364 LINE",
"336 329 OFFCURVE",
"355 279 OFFCURVE",
"355 232 CURVE",
"355 167 OFFCURVE",
"318 110 OFFCURVE",
"246 110 CURVE",
"172 110 OFFCURVE",
"131 170 OFFCURVE",
"131 257 CURVE",
"131 329 OFFCURVE",
"161 388 OFFCURVE",
"215 450 CURVE",
"197 466 LINE",
"137 399 OFFCURVE",
"105 327 OFFCURVE",
"105 257 CURVE",
"105 154 OFFCURVE",
"156 85 OFFCURVE",
"246 85 CURVE"
);
}
);
width = 530;
},
{
anchors = (
{
name = bottom;
position = "{270, 93}";
},
{
name = bottom_ra;
position = "{622, 93}";
},
{
name = top;
position = "{318, 751}";
},
{
name = topright;
position = "{545, 751}";
}
);
layerId = "A6029D4D-1571-45DB-86AE-EDC9D2308E6F";
paths = (
{
closed = 1;
nodes = (
"141 289 LINE",
"202 383 LINE",
"176 409 OFFCURVE",
"164 442 OFFCURVE",
"164 479 CURVE",
"164 563 OFFCURVE",
"237 613 OFFCURVE",
"326 613 CURVE",
"370 613 OFFCURVE",
"428 595 OFFCURVE",
"461 566 CURVE",
"510 702 LINE",
"455 740 OFFCURVE",
"384 759 OFFCURVE",
"318 759 CURVE",
"161 759 OFFCURVE",
"16 667 OFFCURVE",
"16 498 CURVE",
"16 412 OFFCURVE",
"54 337 OFFCURVE",
"141 289 CURVE"
);
},
{
closed = 1;
nodes = (
"321 267 LINE",
"469 456 LINE",
"392 524 LINE",
"244 335 LINE"
);
},
{
closed = 1;
nodes = (
"541 457 LINE",
"625 457 OFFCURVE",
"675 519 OFFCURVE",
"675 607 CURVE",
"675 692 OFFCURVE",
"627 751 OFFCURVE",
"544 751 CURVE",
"460 751 OFFCURVE",
"411 690 OFFCURVE",
"411 604 CURVE",
"411 517 OFFCURVE",
"458 457 OFFCURVE",
"541 457 CURVE"
);
},
{
closed = 1;
nodes = (
"542 562 LINE",
"521 562 OFFCURVE",
"515 581 OFFCURVE",
"515 605 CURVE",
"515 628 OFFCURVE",
"521 646 OFFCURVE",
"542 646 CURVE",
"564 646 OFFCURVE",
"571 628 OFFCURVE",
"571 606 CURVE",
"571 582 OFFCURVE",
"563 562 OFFCURVE",
"542 562 CURVE"
);
},
{
closed = 1;
nodes = (
"300 85 LINE",
"410 85 OFFCURVE",
"500 145 OFFCURVE",
"500 276 CURVE",
"500 334 OFFCURVE",
"470 406 OFFCURVE",
"390 436 CURVE",
"326 346 LINE",
"362 325 OFFCURVE",
"378 296 OFFCURVE",
"378 270 CURVE",
"378 237 OFFCURVE",
"352 210 OFFCURVE",
"304 210 CURVE",
"249 210 OFFCURVE",
"220 246 OFFCURVE",
"220 292 CURVE",
"220 342 OFFCURVE",
"249 401 OFFCURVE",
"304 448 CURVE",
"237 529 LINE",
"148 468 OFFCURVE",
"96 372 OFFCURVE",
"96 285 CURVE",
"96 163 OFFCURVE",
"189 85 OFFCURVE",
"300 85 CURVE"
);
}
);
width = 675;
},
{
anchors = (
{
name = bottom;
position = "{336, 93}";
},
{
name = bottom_ra;
position = "{726, 93}";
},
{
name = top;
position = "{371, 751}";
},
{
name = topright;
position = "{647, 751}";
}
);
associatedMasterId = "639D56B4-59BE-4993-85FD-8F80ECD3B0F6";
background = {
paths = (
{
closed = 1;
nodes = (
"233 282 LINE",
"205 302 OFFCURVE",
"186 340 OFFCURVE",
"186 382 CURVE SMOOTH",
"186 466 OFFCURVE",
"263 528 OFFCURVE",
"383 528 CURVE SMOOTH",
"460 528 OFFCURVE",
"511 503 OFFCURVE",
"556 466 CURVE",
"616 598 LINE",
"553 642 OFFCURVE",
"477 666 OFFCURVE",
"370 666 CURVE SMOOTH",
"161 666 OFFCURVE",
"22 554 OFFCURVE",
"22 399 CURVE SMOOTH",
"22 305 OFFCURVE",
"74 229 OFFCURVE",
"173 170 CURVE"
);
},
{
closed = 1;
nodes = (
"743 364 OFFCURVE",
"801 425 OFFCURVE",
"801 511 CURVE SMOOTH",
"801 598 OFFCURVE",
"744 658 OFFCURVE",
"648 658 CURVE SMOOTH",
"550 658 OFFCURVE",
"494 595 OFFCURVE",
"494 509 CURVE SMOOTH",
"494 423 OFFCURVE",
"549 364 OFFCURVE",
"646 364 CURVE SMOOTH"
);
},
{
closed = 1;
nodes = (
"627 472 OFFCURVE",
"616 490 OFFCURVE",
"616 511 CURVE SMOOTH",
"616 532 OFFCURVE",
"627 550 OFFCURVE",
"648 550 CURVE SMOOTH",
"669 550 OFFCURVE",
"679 532 OFFCURVE",
"679 511 CURVE SMOOTH",
"679 490 OFFCURVE",
"669 472 OFFCURVE",
"648 472 CURVE SMOOTH"
);
},
{
closed = 1;
nodes = (
"490 -8 OFFCURVE",
"603 56 OFFCURVE",
"603 186 CURVE SMOOTH",
"603 249 OFFCURVE",
"577 295 OFFCURVE",
"490 348 CURVE",
"382 260 LINE",
"442 228 OFFCURVE",
"459 207 OFFCURVE",
"459 182 CURVE SMOOTH",
"459 148 OFFCURVE",
"427 130 OFFCURVE",
"383 130 CURVE SMOOTH",
"334 130 OFFCURVE",
"293 158 OFFCURVE",
"293 212 CURVE SMOOTH",
"293 259 OFFCURVE",
"318 305 OFFCURVE",
"383 349 CURVE",
"318 442 LINE",
"186 379 OFFCURVE",
"139 272 OFFCURVE",
"139 198 CURVE SMOOTH",
"139 54 OFFCURVE",
"258 -8 OFFCURVE",
"371 -8 CURVE SMOOTH"
);
},
{
closed = 1;
nodes = (
"575 344 LINE",
"492 431 LINE",
"314 261 LINE",
"397 174 LINE"
);
}
);
};
layerId = "042E1C75-B9B9-432A-B881-27AA258611E2";
name = "Black ]141]";
paths = (
{
closed = 1;
nodes = (
"173 263 LINE",
"233 375 LINE",
"205 395 OFFCURVE",
"186 433 OFFCURVE",
"186 475 CURVE",
"186 559 OFFCURVE",
"263 621 OFFCURVE",
"383 621 CURVE",
"460 621 OFFCURVE",
"511 596 OFFCURVE",
"556 559 CURVE",
"616 691 LINE",
"553 735 OFFCURVE",
"477 759 OFFCURVE",
"370 759 CURVE",
"161 759 OFFCURVE",
"22 647 OFFCURVE",
"22 492 CURVE",
"22 398 OFFCURVE",
"74 322 OFFCURVE",
"173 263 CURVE"
);
},
{
closed = 1;
nodes = (
"397 267 LINE",
"575 437 LINE",
"492 524 LINE",
"314 354 LINE"
);
},
{
closed = 1;
nodes = (
"646 457 LINE",
"743 457 OFFCURVE",
"801 518 OFFCURVE",
"801 604 CURVE",
"801 691 OFFCURVE",
"744 751 OFFCURVE",
"648 751 CURVE",
"550 751 OFFCURVE",
"494 688 OFFCURVE",
"494 602 CURVE",
"494 516 OFFCURVE",
"549 457 OFFCURVE",
"646 457 CURVE"
);
},
{
closed = 1;
nodes = (
"648 569 LINE",
"629 569 OFFCURVE",
"620 585 OFFCURVE",
"620 604 CURVE",
"620 623 OFFCURVE",
"629 639 OFFCURVE",
"648 639 CURVE",
"667 639 OFFCURVE",
"675 623 OFFCURVE",
"675 604 CURVE",
"675 585 OFFCURVE",
"667 569 OFFCURVE",
"648 569 CURVE"
);
},
{
closed = 1;
nodes = (
"372 85 LINE",
"487 85 OFFCURVE",
"603 149 OFFCURVE",
"603 279 CURVE",
"603 340 OFFCURVE",
"577 392 OFFCURVE",
"490 437 CURVE",
"382 337 LINE",
"434 311 OFFCURVE",
"449 293 OFFCURVE",
"449 273 CURVE",
"449 245 OFFCURVE",
"418 233 OFFCURVE",
"382 233 CURVE",
"350 233 OFFCURVE",
"304 250 OFFCURVE",
"304 306 CURVE",
"304 348 OFFCURVE",
"330 396 OFFCURVE",
"387 437 CURVE",
"318 535 LINE",
"182 469 OFFCURVE",
"139 365 OFFCURVE",
"139 286 CURVE",
"139 160 OFFCURVE",
"247 85 OFFCURVE",
"372 85 CURVE"
);
}
);
width = 807;
},
{
anchors = (
{
name = bottom;
position = "{270, 93}";
},
{
name = bottom_ra;
position = "{622, 93}";
},
{
name = top;
position = "{318, 751}";
},
{
name = topright;
position = "{545, 751}";
}
);
associatedMasterId = "A6029D4D-1571-45DB-86AE-EDC9D2308E6F";
background = {
paths = (
{
closed = 1;
nodes = (
"207 290 LINE",
"181 316 OFFCURVE",
"168 349 OFFCURVE",
"168 386 CURVE SMOOTH",
"168 470 OFFCURVE",
"235 520 OFFCURVE",
"319 520 CURVE SMOOTH",
"370 520 OFFCURVE",
"428 502 OFFCURVE",
"461 473 CURVE",
"509 602 LINE",
"454 645 OFFCURVE",
"383 666 OFFCURVE",
"312 666 CURVE SMOOTH",
"166 666 OFFCURVE",
"21 574 OFFCURVE",
"21 405 CURVE SMOOTH",
"21 319 OFFCURVE",
"59 244 OFFCURVE",
"146 196 CURVE"
);
},
{
closed = 1;
nodes = (
"625 365 OFFCURVE",
"675 427 OFFCURVE",
"675 514 CURVE SMOOTH",
"675 599 OFFCURVE",
"627 658 OFFCURVE",
"544 658 CURVE SMOOTH",
"460 658 OFFCURVE",
"410 597 OFFCURVE",
"410 511 CURVE SMOOTH",
"410 425 OFFCURVE",
"458 365 OFFCURVE",
"541 365 CURVE SMOOTH"
);
},
{
closed = 1;
nodes = (
"521 470 OFFCURVE",
"514 489 OFFCURVE",
"514 512 CURVE SMOOTH",
"514 535 OFFCURVE",
"521 553 OFFCURVE",
"542 553 CURVE SMOOTH",
"564 553 OFFCURVE",
"571 535 OFFCURVE",
"571 513 CURVE SMOOTH",
"571 490 OFFCURVE",
"563 470 OFFCURVE",
"542 470 CURVE SMOOTH"
);
},
{
closed = 1;
nodes = (
"418 -8 OFFCURVE",
"497 67 OFFCURVE",
"497 172 CURVE SMOOTH",
"497 241 OFFCURVE",
"463 304 OFFCURVE",
"385 343 CURVE",
"321 253 LINE",
"357 232 OFFCURVE",
"374 203 OFFCURVE",
"374 177 CURVE SMOOTH",
"374 144 OFFCURVE",
"347 117 OFFCURVE",
"298 117 CURVE SMOOTH",
"242 117 OFFCURVE",
"215 152 OFFCURVE",
"215 198 CURVE SMOOTH",
"215 248 OFFCURVE",
"244 303 OFFCURVE",
"299 355 CURVE",
"232 436 LINE",
"138 369 OFFCURVE",
"91 280 OFFCURVE",
"91 192 CURVE SMOOTH",
"91 75 OFFCURVE",
"174 -8 OFFCURVE",
"299 -8 CURVE SMOOTH"
);
},
{
closed = 1;
nodes = (
"461 354 LINE",
"384 422 LINE",
"238 245 LINE",
"315 177 LINE"
);
}
);
};
layerId = "B349C759-DE3D-4DEC-AD73-DE789CD92118";
name = "ExtraCondensed Black ]141]";
paths = (
{
closed = 1;
nodes = (
"141 289 LINE",
"202 383 LINE",
"176 409 OFFCURVE",
"164 442 OFFCURVE",
"164 479 CURVE",
"164 563 OFFCURVE",
"237 613 OFFCURVE",
"326 613 CURVE",
"370 613 OFFCURVE",
"428 595 OFFCURVE",
"461 566 CURVE",
"510 702 LINE",
"455 740 OFFCURVE",
"384 759 OFFCURVE",
"318 759 CURVE",
"161 759 OFFCURVE",
"16 667 OFFCURVE",
"16 498 CURVE",
"16 412 OFFCURVE",
"54 337 OFFCURVE",
"141 289 CURVE"
);
},
{
closed = 1;
nodes = (
"321 267 LINE",
"469 456 LINE",
"392 524 LINE",
"244 335 LINE"
);
},
{
closed = 1;
nodes = (
"541 458 LINE",
"625 458 OFFCURVE",
"675 520 OFFCURVE",
"675 607 CURVE",
"675 692 OFFCURVE",
"627 751 OFFCURVE",
"544 751 CURVE",
"460 751 OFFCURVE",
"410 690 OFFCURVE",
"410 604 CURVE",
"410 518 OFFCURVE",
"458 458 OFFCURVE",
"541 458 CURVE"
);
},
{
closed = 1;
nodes = (
"542 568 LINE",
"523 568 OFFCURVE",
"517 585 OFFCURVE",
"517 605 CURVE",
"517 625 OFFCURVE",
"523 641 OFFCURVE",
"542 641 CURVE",
"562 641 OFFCURVE",
"568 625 OFFCURVE",
"568 606 CURVE",
"568 585 OFFCURVE",
"561 568 OFFCURVE",
"542 568 CURVE"
);
},
{
closed = 1;
nodes = (
"300 85 LINE",
"410 85 OFFCURVE",
"500 145 OFFCURVE",
"500 276 CURVE",
"500 334 OFFCURVE",
"470 406 OFFCURVE",
"390 436 CURVE",
"326 320 LINE",
"354 304 OFFCURVE",
"366 284 OFFCURVE",
"366 265 CURVE",
"366 242 OFFCURVE",
"345 223 OFFCURVE",
"306 223 CURVE",
"255 223 OFFCURVE",
"228 255 OFFCURVE",
"228 296 CURVE",
"228 343 OFFCURVE",
"256 395 OFFCURVE",
"308 443 CURVE",
"237 529 LINE",
"148 468 OFFCURVE",
"96 372 OFFCURVE",
"96 285 CURVE",
"96 163 OFFCURVE",
"189 85 OFFCURVE",
"300 85 CURVE"
);
}
);
width = 675;
}
);
note = ngaorya;
rightMetricsKey = "pha-oriya";
unicode = 0B19;
},
{
glyphname = "ca-oriya";
lastChange = "2019-12-12 03:39:53 +0000";
layers = (
{
anchors = (
{
name = bottom;
position = "{303, 93}";
},
{
name = bottom_ra;
position = "{588, 93}";
},
{
name = top;
position = "{334, 751}";
},
{
name = topright;
position = "{574, 751}";
}
);
layerId = "926CF2F4-31F1-4036-BA3C-0F7EE51EF36A";
paths = (
{
closed = 1;
nodes = (
"142 307 LINE",
"152 331 LINE",
"92 380 OFFCURVE",
"64 439 OFFCURVE",
"64 511 CURVE",
"64 659 OFFCURVE",
"197 735 OFFCURVE",
"333 735 CURVE",
"472 735 OFFCURVE",
"613 656 OFFCURVE",
"613 496 CURVE",
"613 434.706 OFFCURVE",
"590.576 382.9 OFFCURVE",
"555.339 342.182 CURVE",
"575.289 326.952 LINE",
"614.616 371.892 OFFCURVE",
"639 428.527 OFFCURVE",
"639 496 CURVE",
"639 672 OFFCURVE",
"485 759 OFFCURVE",
"334 759 CURVE",
"185 759 OFFCURVE",
"38 675 OFFCURVE",
"38 514 CURVE",
"38 430 OFFCURVE",
"71 358 OFFCURVE",
"142 307 CURVE"
);
},
{
closed = 1;
nodes = (
"303 85 LINE",
"403 85 OFFCURVE",
"477 162 OFFCURVE",
"477 263 CURVE",
"477 364 OFFCURVE",
"403 440 OFFCURVE",
"303 440 CURVE",
"201 440 OFFCURVE",
"130 364 OFFCURVE",
"130 263 CURVE",
"130 162 OFFCURVE",
"201 85 OFFCURVE",
"303 85 CURVE"
);
},
{
closed = 1;
nodes = (
"303 109 LINE",
"216 109 OFFCURVE",
"156 171 OFFCURVE",
"156 264 CURVE",
"156 353 OFFCURVE",
"213 416 OFFCURVE",
"303 416 CURVE",
"391 416 OFFCURVE",
"451 353 OFFCURVE",
"451 263 CURVE",
"451 171 OFFCURVE",
"389 109 OFFCURVE",
"303 109 CURVE"
);
}
);
width = 677;
},
{
anchors = (
{
name = bottom;
position = "{285, 93}";
},
{
name = bottom_ra;
position = "{707, 93}";
},
{
name = top;
position = "{360, 751}";
},
{
name = topright;
position = "{564, 751}";
}
);
layerId = "639D56B4-59BE-4993-85FD-8F80ECD3B0F6";
paths = (
{
closed = 1;
nodes = (
"173 263 LINE",
"233 375 LINE",
"202 402 OFFCURVE",
"187 436 OFFCURVE",
"187 470 CURVE",
"187 544 OFFCURVE",
"258 599 OFFCURVE",
"363 599 CURVE",
"455 599 OFFCURVE",
"539 558 OFFCURVE",
"539 474 CURVE",
"539 452.209 OFFCURVE",
"532.444 430.418 OFFCURVE",
"518.634 407.057 CURVE",
"675.899 334.018 LINE",
"698.892 373.602 OFFCURVE",
"714 425.067 OFFCURVE",
"714 472 CURVE",
"714 664 OFFCURVE",
"537 759 OFFCURVE",
"360 759 CURVE",
"189 759 OFFCURVE",
"22 677 OFFCURVE",
"22 493 CURVE",
"22 410 OFFCURVE",
"62 328 OFFCURVE",
"173 263 CURVE"
);
},
{
closed = 1;
nodes = (
"329 85 LINE",
"435 85 OFFCURVE",
"538 148 OFFCURVE",
"538 273 CURVE",
"538 399 OFFCURVE",
"435 461 OFFCURVE",
"329 461 CURVE",
"214 461 OFFCURVE",
"118 399 OFFCURVE",
"118 273 CURVE",
"118 148 OFFCURVE",
"214 85 OFFCURVE",
"329 85 CURVE"
);
},
{
closed = 1;
nodes = (
"329 223 LINE",
"301 223 OFFCURVE",
"272 240 OFFCURVE",
"272 273 CURVE",
"272 306 OFFCURVE",
"301 323 OFFCURVE",
"329 323 CURVE",
"358 323 OFFCURVE",
"384 306 OFFCURVE",
"384 273 CURVE",
"384 240 OFFCURVE",
"358 223 OFFCURVE",
"329 223 CURVE"
);
}
);
width = 736;
},
{
anchors = (
{
name = bottom;
position = "{234, 93}";
},
{
name = bottom_ra;
position = "{440, 93}";
},
{
name = top;
position = "{259, 751}";
},
{
name = topright;
position = "{445, 751}";
}
);
guideLines = (
{
position = "{262, 217}";
}
);
layerId = "EAF3E1E9-0001-42EF-B2A4-765526B8C83B";
paths = (
{
closed = 1;
nodes = (
"113 300 LINE",
"121 327 LINE",
"81 371 OFFCURVE",
"54 435 OFFCURVE",
"54 505 CURVE",
"54 633 OFFCURVE",
"141 734 OFFCURVE",
"261 734 CURVE",
"378 734 OFFCURVE",
"464 635 OFFCURVE",
"464 500 CURVE",
"464 444.466 OFFCURVE",
"449.332 386.183 OFFCURVE",
"418.24 340.948 CURVE",
"438.205 325.712 LINE",
"470.675 371.301 OFFCURVE",
"490 433.85 OFFCURVE",
"490 501 CURVE",
"490 654 OFFCURVE",
"390 759 OFFCURVE",
"259 759 CURVE",
"125 759 OFFCURVE",
"28 648 OFFCURVE",
"28 507 CURVE",
"28 423 OFFCURVE",
"62 345 OFFCURVE",
"113 300 CURVE"
);
},
{
closed = 1;
nodes = (
"234 85 LINE",
"316 85 OFFCURVE",
"370 156 OFFCURVE",
"370 263 CURVE",
"370 369 OFFCURVE",
"316 440 OFFCURVE",
"234 440 CURVE",
"152 440 OFFCURVE",
"98 369 OFFCURVE",
"98 263 CURVE",
"98 156 OFFCURVE",
"152 85 OFFCURVE",
"234 85 CURVE"
);
},
{
closed = 1;
nodes = (
"234 110 LINE",
"167 110 OFFCURVE",
"124 171 OFFCURVE",
"124 264 CURVE",
"124 356 OFFCURVE",
"167 415 OFFCURVE",
"234 415 CURVE",
"301 415 OFFCURVE",
"344 355 OFFCURVE",
"344 263 CURVE",
"344 170 OFFCURVE",
"301 110 OFFCURVE",
"234 110 CURVE"
);
}
);
width = 518;
},
{
anchors = (
{
name = bottom;
position = "{221, 93}";
},
{
name = bottom_ra;
position = "{570, 93}";
},
{
name = top;
position = "{291, 751}";
},
{
name = topright;
position = "{444, 751}";
}
);
guideLines = (
{
position = "{391, 225}";
}
);
layerId = "A6029D4D-1571-45DB-86AE-EDC9D2308E6F";
paths = (
{
closed = 1;
nodes = (
"141 289 LINE",
"202 383 LINE",
"176 409 OFFCURVE",
"163 442 OFFCURVE",
"163 481 CURVE",
"163 559 OFFCURVE",
"215 613 OFFCURVE",
"292 613 CURVE",
"370 613 OFFCURVE",
"422 558 OFFCURVE",
"422 478 CURVE",
"422 455.794 OFFCURVE",
"418.055 432.798 OFFCURVE",
"409.464 409.014 CURVE",
"550.051 355.819 LINE",
"564.382 389.495 OFFCURVE",
"574 436.31 OFFCURVE",
"574 484 CURVE",
"574 648 OFFCURVE",
"462 759 OFFCURVE",
"291 759 CURVE",
"126 759 OFFCURVE",
"16 654 OFFCURVE",
"16 501 CURVE",
"16 411 OFFCURVE",
"54 337 OFFCURVE",
"141 289 CURVE"
);
},
{
closed = 1;
nodes = (
"266 85 LINE",
"368 85 OFFCURVE",
"430 157 OFFCURVE",
"430 273 CURVE",
"430 390 OFFCURVE",
"368 461 OFFCURVE",
"268 461 CURVE",
"165 461 OFFCURVE",
"101 390 OFFCURVE",
"101 273 CURVE",
"101 157 OFFCURVE",
"165 85 OFFCURVE",
"266 85 CURVE"
);
},
{
closed = 1;
nodes = (
"266 208 LINE",
"244 208 OFFCURVE",
"234 229 OFFCURVE",
"234 273 CURVE",
"234 317 OFFCURVE",
"244 338 OFFCURVE",
"266 338 CURVE",
"287 338 OFFCURVE",
"297 317 OFFCURVE",
"297 273 CURVE",
"297 229 OFFCURVE",
"287 208 OFFCURVE",
"266 208 CURVE"
);
}
);
width = 590;
}
);
note = caorya;
unicode = 0B1A;
},
{
glyphname = "cha-oriya";
lastChange = "2019-12-12 03:39:53 +0000";
layers = (
{
anchors = (
{
name = bottom;
position = "{489, 93}";
},
{
name = bottom_ra;
position = "{563, 93}";
},
{
name = top;
position = "{334, 751}";
},
{
name = topright;
position = "{574, 751}";
}
);
guideLines = (
{
position = "{190, 171}";
},
{
position = "{182, 77}";
},
{
angle = 90;
position = "{336, 396}";
}
);
layerId = "926CF2F4-31F1-4036-BA3C-0F7EE51EF36A";
paths = (
{
closed = 1;
nodes = (
"168 377 LINE",
"166 403 LINE",
"101 432 OFFCURVE",
"64 490 OFFCURVE",
"64 553 CURVE",
"64 661 OFFCURVE",
"177 735 OFFCURVE",
"332 735 CURVE",
"476 735 OFFCURVE",
"613 668 OFFCURVE",
"613 534 CURVE",
"613 505.086 OFFCURVE",
"606.566 479.2 OFFCURVE",
"596.493 457.738 CURVE",
"620.344 447.917 LINE",
"633.587 477.509 OFFCURVE",
"639 508.238 OFFCURVE",
"639 537 CURVE",
"639 684 OFFCURVE",
"497 759 OFFCURVE",
"334 759 CURVE",
"179 759 OFFCURVE",
"38 689 OFFCURVE",
"38 555 CURVE",
"38 479 OFFCURVE",
"84 410 OFFCURVE",
"168 377 CURVE"
);
},
{
closed = 1;
nodes = (
"165 109 LINE",
"116 109 OFFCURVE",
"83 141 OFFCURVE",
"83 187 CURVE",
"83 233 OFFCURVE",
"117 262 OFFCURVE",
"167 262 CURVE",
"225 262 OFFCURVE",
"276 226 OFFCURVE",
"318 182 CURVE",
"268 135 OFFCURVE",
"214 109 OFFCURVE",
"165 109 CURVE"
);
},
{
closed = 1;
nodes = (
"164 85 LINE",
"220 85 OFFCURVE",
"279 112 OFFCURVE",
"338 167 CURVE",
"398 109 OFFCURVE",
"455 85 OFFCURVE",
"505 85 CURVE",
"568 85 OFFCURVE",
"614 124 OFFCURVE",
"614 186 CURVE",
"614 246 OFFCURVE",
"571 286 OFFCURVE",
"500 286 CURVE",
"454 286 OFFCURVE",
"414 269 OFFCURVE",
"336 199 CURVE",
"287 248 OFFCURVE",
"164 325 OFFCURVE",
"42 339 CURVE",
"38 314 LINE",
"92 304 OFFCURVE",
"138 292 OFFCURVE",
"178 275 CURVE",
"164 286 LINE",
"100 286 OFFCURVE",
"57 247 OFFCURVE",
"57 188 CURVE",
"57 127 OFFCURVE",
"100 85 OFFCURVE",
"164 85 CURVE"
);
},
{
closed = 1;
nodes = (
"504 109 LINE",
"464 109 OFFCURVE",
"408 130 OFFCURVE",
"353 182 CURVE",
"426 248 OFFCURVE",
"451 262 OFFCURVE",
"496 262 CURVE",
"556 262 OFFCURVE",
"588 232 OFFCURVE",
"588 187 CURVE",
"588 140 OFFCURVE",
"553 109 OFFCURVE",
"504 109 CURVE"
);
},
{
closed = 1;
nodes = (
"333 243 LINE",
"251 243 OFFCURVE",
"179 293 OFFCURVE",
"179 387 CURVE",
"179 475 OFFCURVE",
"248 531 OFFCURVE",
"330 531 CURVE",
"413 531 OFFCURVE",
"483 475 OFFCURVE",
"483 383 CURVE",
"483 290 OFFCURVE",
"413 243 OFFCURVE",
"333 243 CURVE"
);
},
{
closed = 1;
nodes = (
"333 219 LINE",
"423 219 OFFCURVE",
"509 280 OFFCURVE",
"509 387 CURVE",
"509 487 OFFCURVE",
"434 555 OFFCURVE",
"332 555 CURVE",
"238 555 OFFCURVE",
"154 497 OFFCURVE",
"154 393 CURVE",
"154 292 OFFCURVE",
"234 219 OFFCURVE",
"333 219 CURVE"
);
}
);
width = 677;
},
{
anchors = (
{
name = bottom;
position = "{502, 93}";
},
{
name = bottom_ra;
position = "{663, 93}";
},
{
name = top;
position = "{385, 751}";
},
{
name = topright;
position = "{617, 751}";
}
);
guideLines = (
{
position = "{401, 241}";
}
);
layerId = "639D56B4-59BE-4993-85FD-8F80ECD3B0F6";
paths = (
{
closed = 1;
nodes = (
"225 345 LINE",
"253 428 LINE",
"211 438 OFFCURVE",
"186 466 OFFCURVE",
"186 501 CURVE",
"186 563 OFFCURVE",
"264 609 OFFCURVE",
"385 609 CURVE",
"515 609 OFFCURVE",
"603 556 OFFCURVE",
"603 487 CURVE",
"603 472.021 OFFCURVE",
"598.798 455.175 OFFCURVE",
"591.521 438.265 CURVE",
"745.517 399.448 LINE",
"759.958 435.74 OFFCURVE",
"767 470.376 OFFCURVE",
"767 503 CURVE",
"767 657 OFFCURVE",
"620 759 OFFCURVE",
"385 759 CURVE",
"165 759 OFFCURVE",
"22 670 OFFCURVE",
"22 532 CURVE",
"22 437 OFFCURVE",
"94 358 OFFCURVE",
"225 345 CURVE"
);
},
{
closed = 1;
nodes = (
"219 190 LINE",
"199 190 OFFCURVE",
"190 203 OFFCURVE",
"190 217 CURVE",
"190 232 OFFCURVE",
"199 245 OFFCURVE",
"222 245 CURVE",
"243 245 OFFCURVE",
"273 234 OFFCURVE",
"300 221 CURVE",
"266 202 OFFCURVE",
"239 190 OFFCURVE",
"219 190 CURVE"
);
},
{
closed = 1;
nodes = (
"188 85 LINE",
"251 85 OFFCURVE",
"319 119 OFFCURVE",
"382 171 CURVE",
"461 108 OFFCURVE",
"527 85 OFFCURVE",
"578 85 CURVE",
"665 85 OFFCURVE",
"706 149 OFFCURVE",
"706 214 CURVE",
"706 281 OFFCURVE",
"662 350 OFFCURVE",
"565 350 CURVE",
"517 350 OFFCURVE",
"472 332 OFFCURVE",
"383 281 CURVE",
"283 339 OFFCURVE",
"153 363 OFFCURVE",
"32 371 CURVE",
"23 265 LINE",
"88 265 OFFCURVE",
"168 264 OFFCURVE",
"195 262 CURVE",
"207 334 LINE",
"83 334 OFFCURVE",
"60 267 OFFCURVE",
"60 214 CURVE",
"60 149 OFFCURVE",
"102 85 OFFCURVE",
"188 85 CURVE"
);
},
{
closed = 1;
nodes = (
"547 190 LINE",
"527 190 OFFCURVE",
"500 202 OFFCURVE",
"466 221 CURVE",
"493 234 OFFCURVE",
"523 245 OFFCURVE",
"544 245 CURVE",
"566 245 OFFCURVE",
"576 231 OFFCURVE",
"576 217 CURVE",
"576 203 OFFCURVE",
"566 190 OFFCURVE",
"547 190 CURVE"
);
},
{
closed = 1;
nodes = (
"384 295 LINE",
"341 295 OFFCURVE",
"321 321 OFFCURVE",
"321 358 CURVE",
"321 395 OFFCURVE",
"342 419 OFFCURVE",
"384 419 CURVE",
"425 419 OFFCURVE",
"448 396 OFFCURVE",
"448 358 CURVE",
"448 320 OFFCURVE",
"426 295 OFFCURVE",
"384 295 CURVE"
);
},
{
closed = 1;
nodes = (
"387 220 LINE",
"520 220 OFFCURVE",
"578 286 OFFCURVE",
"578 379 CURVE",
"578 480 OFFCURVE",
"509 549 OFFCURVE",
"387 549 CURVE",
"248 549 OFFCURVE",
"191 460 OFFCURVE",
"191 377 CURVE",
"191 294 OFFCURVE",
"247 220 OFFCURVE",
"387 220 CURVE"
);
}
);
width = 789;
},
{
anchors = (
{
name = bottom;
position = "{367, 93}";
},
{
name = bottom_ra;
position = "{404, 93}";
},
{
name = top;
position = "{258, 751}";
},
{
name = topright;
position = "{442, 751}";
}
);
layerId = "EAF3E1E9-0001-42EF-B2A4-765526B8C83B";
paths = (
{
closed = 1;
nodes = (
"127 370 LINE",
"125 401 LINE",
"83 425 OFFCURVE",
"54 487 OFFCURVE",
"54 546 CURVE",
"54 653 OFFCURVE",
"140 734 OFFCURVE",
"257 734 CURVE",
"374 734 OFFCURVE",
"461 653 OFFCURVE",
"461 545 CURVE",
"461 507.404 OFFCURVE",
"450.778 467.02 OFFCURVE",
"435.708 441.765 CURVE",
"460.402 429.692 LINE",
"475.696 459.763 OFFCURVE",
"487 505.265 OFFCURVE",
"487 547 CURVE",
"487 668 OFFCURVE",
"391 759 OFFCURVE",
"258 759 CURVE",
"123 759 OFFCURVE",
"28 666 OFFCURVE",
"28 549 CURVE",
"28 472 OFFCURVE",
"69 399 OFFCURVE",
"127 370 CURVE"
);
},
{
closed = 1;
nodes = (
"126 110 LINE",
"88 110 OFFCURVE",
"66 144 OFFCURVE",
"66 187 CURVE",
"66 232 OFFCURVE",
"90 261 OFFCURVE",
"125 261 CURVE",
"165 261 OFFCURVE",
"201 223 OFFCURVE",
"235 182 CURVE",
"197 136 OFFCURVE",
"159 110 OFFCURVE",
"126 110 CURVE"
);
},
{
closed = 1;
nodes = (
"125 85 LINE",
"165 85 OFFCURVE",
"207 111 OFFCURVE",
"252 166 CURVE",
"297 108 OFFCURVE",
"344 85 OFFCURVE",
"381 85 CURVE",
"430 85 OFFCURVE",
"464 125 OFFCURVE",
"464 187 CURVE",
"464 246 OFFCURVE",
"432 286 OFFCURVE",
"377 286 CURVE",
"342 286 OFFCURVE",
"309 270 OFFCURVE",
"250 200 CURVE",
"164 297 OFFCURVE",
"116 316 OFFCURVE",
"36 339 CURVE",
"28 315 LINE",
"64 305 OFFCURVE",
"102 293 OFFCURVE",
"132 279 CURVE",
"122 286 LINE",
"73 286 OFFCURVE",
"40 247 OFFCURVE",
"40 187 CURVE",
"40 127 OFFCURVE",
"73 85 OFFCURVE",
"125 85 CURVE"
);
},
{
closed = 1;
nodes = (
"379 110 LINE",
"350 110 OFFCURVE",
"307 131 OFFCURVE",
"265 182 CURVE",
"322 244 OFFCURVE",
"340 261 OFFCURVE",
"372 261 CURVE",
"415 261 OFFCURVE",
"438 231 OFFCURVE",
"438 186 CURVE",
"438 141 OFFCURVE",
"414 110 OFFCURVE",
"379 110 CURVE"
);
},
{
closed = 1;
nodes = (
"250 243 LINE",
"183 243 OFFCURVE",
"135 302 OFFCURVE",
"135 387 CURVE",
"135 472 OFFCURVE",
"183 531 OFFCURVE",
"250 531 CURVE",
"317 531 OFFCURVE",
"365 472 OFFCURVE",
"365 387 CURVE",
"365 302 OFFCURVE",
"317 243 OFFCURVE",
"250 243 CURVE"
);
},
{
closed = 1;
nodes = (
"250 220 LINE",
"329 220 OFFCURVE",
"390 289 OFFCURVE",
"390 388 CURVE",
"390 484 OFFCURVE",
"334 555 OFFCURVE",
"250 555 CURVE",
"166 555 OFFCURVE",
"110 484 OFFCURVE",
"110 388 CURVE",
"110 289 OFFCURVE",
"171 220 OFFCURVE",
"250 220 CURVE"
);
}
);
width = 515;
},
{
anchors = (
{
name = bottom;
position = "{362, 93}";
},
{
name = bottom_ra;
position = "{496, 93}";
},
{
name = top;
position = "{302, 751}";
},
{
name = topright;
position = "{483, 751}";
}
);
layerId = "A6029D4D-1571-45DB-86AE-EDC9D2308E6F";
paths = (
{
closed = 1;
nodes = (
"177 341 LINE",
"222 422 LINE",
"184 439 OFFCURVE",
"156 471 OFFCURVE",
"156 524 CURVE",
"156 590 OFFCURVE",
"228 624 OFFCURVE",
"302 624 CURVE",
"388 624 OFFCURVE",
"461 586 OFFCURVE",
"461 508 CURVE",
"461 485.505 OFFCURVE",
"455.76 462.261 OFFCURVE",
"447.223 439.564 CURVE",
"587.752 390.624 LINE",
"604.83 430.803 OFFCURVE",
"613 475.98 OFFCURVE",
"613 504 CURVE",
"613 683 OFFCURVE",
"461 759 OFFCURVE",
"302 759 CURVE",
"101 759 OFFCURVE",
"16 654 OFFCURVE",
"16 537 CURVE",
"16 447 OFFCURVE",
"77 359 OFFCURVE",
"177 341 CURVE"
);
},
{
closed = 1;
nodes = (
"179 190 LINE",
"163 190 OFFCURVE",
"157 202 OFFCURVE",
"157 218 CURVE",
"157 234 OFFCURVE",
"164 245 OFFCURVE",
"182 245 CURVE",
"198 245 OFFCURVE",
"222 234 OFFCURVE",
"243 221 CURVE",
"217 202 OFFCURVE",
"193 190 OFFCURVE",
"179 190 CURVE"
);
},
{
closed = 1;
nodes = (
"159 85 LINE",
"215 85 OFFCURVE",
"253 119 OFFCURVE",
"292 171 CURVE",
"332 119 OFFCURVE",
"379 85 OFFCURVE",
"425 85 CURVE",
"502 85 OFFCURVE",
"539 148 OFFCURVE",
"539 214 CURVE",
"539 281 OFFCURVE",
"501 350 OFFCURVE",
"420 350 CURVE",
"380 350 OFFCURVE",
"354 330 OFFCURVE",
"295 281 CURVE",
"219 334 OFFCURVE",
"118 362 OFFCURVE",
"24 371 CURVE",
"17 265 LINE",
"65 266 OFFCURVE",
"112 264 OFFCURVE",
"160 261 CURVE",
"170 334 LINE",
"65 334 OFFCURVE",
"45 267 OFFCURVE",
"45 217 CURVE",
"45 148 OFFCURVE",
"82 85 OFFCURVE",
"159 85 CURVE"
);
},
{
closed = 1;
nodes = (
"404 190 LINE",
"389 190 OFFCURVE",
"367 202 OFFCURVE",
"341 221 CURVE",
"362 234 OFFCURVE",
"386 245 OFFCURVE",
"402 245 CURVE",
"419 245 OFFCURVE",
"427 231 OFFCURVE",
"427 217 CURVE",
"427 202 OFFCURVE",
"418 190 OFFCURVE",
"404 190 CURVE"
);
},
{
closed = 1;
nodes = (
"293 295 LINE",
"261 295 OFFCURVE",
"248 320 OFFCURVE",
"248 358 CURVE",
"248 396 OFFCURVE",
"261 420 OFFCURVE",
"293 420 CURVE",
"325 420 OFFCURVE",
"337 396 OFFCURVE",
"337 358 CURVE",
"337 320 OFFCURVE",
"325 295 OFFCURVE",
"293 295 CURVE"
);
},
{
closed = 1;
nodes = (
"295 220 LINE",
"385 220 OFFCURVE",
"439 285 OFFCURVE",
"439 383 CURVE",
"439 476 OFFCURVE",
"387 544 OFFCURVE",
"294 544 CURVE",
"189 544 OFFCURVE",
"146 457 OFFCURVE",
"146 380 CURVE",
"146 293 OFFCURVE",
"199 220 OFFCURVE",
"295 220 CURVE"
);
}
);
width = 629;
},
{
anchors = (
{
name = bottom;
position = "{502, 93}";
},
{
name = bottom_ra;
position = "{663, 93}";
},
{
name = top;
position = "{385, 751}";
},
{
name = topright;
position = "{617, 751}";
}
);
associatedMasterId = "639D56B4-59BE-4993-85FD-8F80ECD3B0F6";
background = {
paths = (
{
closed = 1;
nodes = (
"724 261 LINE",
"753 314 OFFCURVE",
"767 364 OFFCURVE",
"767 410 CURVE SMOOTH",
"767 564 OFFCURVE",
"620 666 OFFCURVE",
"385 666 CURVE SMOOTH",
"165 666 OFFCURVE",
"22 577 OFFCURVE",
"22 439 CURVE SMOOTH",
"22 342 OFFCURVE",
"94 262 OFFCURVE",
"225 249 CURVE",
"253 335 LINE",
"211 345 OFFCURVE",
"186 373 OFFCURVE",
"186 408 CURVE SMOOTH",
"186 470 OFFCURVE",
"264 516 OFFCURVE",
"385 516 CURVE SMOOTH",
"515 516 OFFCURVE",
"603 463 OFFCURVE",
"603 394 CURVE SMOOTH",
"603 363 OFFCURVE",
"585 324 OFFCURVE",
"559 293 CURVE",
"541 358 LINE",
"783 297 LINE"
);
},
{
closed = 1;
nodes = (
"520 127 OFFCURVE",
"578 193 OFFCURVE",
"578 286 CURVE SMOOTH",
"578 387 OFFCURVE",
"509 456 OFFCURVE",
"387 456 CURVE SMOOTH",
"248 456 OFFCURVE",
"191 367 OFFCURVE",
"191 284 CURVE SMOOTH",
"191 201 OFFCURVE",
"247 127 OFFCURVE",
"387 127 CURVE SMOOTH"
);
},
{
closed = 1;
nodes = (
"341 202 OFFCURVE",
"320 228 OFFCURVE",
"320 265 CURVE SMOOTH",
"320 302 OFFCURVE",
"341 327 OFFCURVE",
"384 327 CURVE SMOOTH",
"426 327 OFFCURVE",
"449 303 OFFCURVE",
"449 265 CURVE SMOOTH",
"449 227 OFFCURVE",
"426 202 OFFCURVE",
"384 202 CURVE SMOOTH"
);
},
{
closed = 1;
nodes = (
"198 97 OFFCURVE",
"189 110 OFFCURVE",
"189 124 CURVE SMOOTH",
"189 139 OFFCURVE",
"198 152 OFFCURVE",
"222 152 CURVE SMOOTH",
"243 152 OFFCURVE",
"273 141 OFFCURVE",
"300 128 CURVE",
"266 109 OFFCURVE",
"239 97 OFFCURVE",
"219 97 CURVE SMOOTH"
);
},
{
closed = 1;
nodes = (
"251 -8 OFFCURVE",
"319 26 OFFCURVE",
"382 78 CURVE",
"461 15 OFFCURVE",
"527 -8 OFFCURVE",
"578 -8 CURVE SMOOTH",
"665 -8 OFFCURVE",
"706 56 OFFCURVE",
"706 121 CURVE SMOOTH",
"706 188 OFFCURVE",
"662 257 OFFCURVE",
"565 257 CURVE SMOOTH",
"517 257 OFFCURVE",
"472 239 OFFCURVE",
"383 188 CURVE",
"283 246 OFFCURVE",
"153 270 OFFCURVE",
"32 278 CURVE",
"23 172 LINE",
"88 172 OFFCURVE",
"168 171 OFFCURVE",
"195 169 CURVE",
"207 241 LINE",
"83 241 OFFCURVE",
"60 174 OFFCURVE",
"60 121 CURVE SMOOTH",
"60 56 OFFCURVE",
"102 -8 OFFCURVE",
"188 -8 CURVE SMOOTH"
);
},
{
closed = 1;
nodes = (
"527 97 OFFCURVE",
"500 109 OFFCURVE",
"466 128 CURVE",
"493 141 OFFCURVE",
"523 152 OFFCURVE",
"544 152 CURVE SMOOTH",
"567 152 OFFCURVE",
"577 138 OFFCURVE",
"577 124 CURVE SMOOTH",
"577 110 OFFCURVE",
"567 97 OFFCURVE",
"547 97 CURVE SMOOTH"
);
}
);
};
guideLines = (
{
position = "{409, 241}";
}
);
layerId = "5AACFBE9-A972-4B6F-9119-91FEC22BD476";
name = "Black ]141]";
paths = (
{
closed = 1;
nodes = (
"224 345 LINE",
"253 428 LINE",
"211 438 OFFCURVE",
"186 466 OFFCURVE",
"186 501 CURVE",
"186 563 OFFCURVE",
"264 609 OFFCURVE",
"385 609 CURVE",
"515 609 OFFCURVE",
"603 556 OFFCURVE",
"603 487 CURVE",
"603 472.021 OFFCURVE",
"598.798 455.175 OFFCURVE",
"591.521 438.265 CURVE",
"745.517 399.448 LINE",
"759.958 435.74 OFFCURVE",
"767 470.376 OFFCURVE",
"767 503 CURVE",
"767 657 OFFCURVE",
"620 759 OFFCURVE",
"385 759 CURVE",
"165 759 OFFCURVE",
"22 670 OFFCURVE",
"22 532 CURVE",
"22 437 OFFCURVE",
"94 358 OFFCURVE",
"224 345 CURVE"
);
},
{
closed = 1;
nodes = (
"214 201 LINE",
"197 201 OFFCURVE",
"189 211 OFFCURVE",
"189 223 CURVE",
"189 235 OFFCURVE",
"197 244 OFFCURVE",
"217 244 CURVE",
"234 244 OFFCURVE",
"259 237 OFFCURVE",
"282 226 CURVE",
"253 210 OFFCURVE",
"231 201 OFFCURVE",
"214 201 CURVE"
);
},
{
closed = 1;
nodes = (
"188 85 LINE",
"251 85 OFFCURVE",
"319 119 OFFCURVE",
"382 171 CURVE",
"461 108 OFFCURVE",
"527 85 OFFCURVE",
"578 85 CURVE",
"665 85 OFFCURVE",
"706 149 OFFCURVE",
"706 214 CURVE",
"706 281 OFFCURVE",
"662 350 OFFCURVE",
"565 350 CURVE",
"517 350 OFFCURVE",
"472 332 OFFCURVE",
"383 281 CURVE",
"283 339 OFFCURVE",
"153 363 OFFCURVE",
"32 371 CURVE",
"23 265 LINE",
"88 265 OFFCURVE",
"168 264 OFFCURVE",
"195 262 CURVE",
"207 334 LINE",
"83 334 OFFCURVE",
"60 267 OFFCURVE",
"60 214 CURVE",
"60 149 OFFCURVE",
"102 85 OFFCURVE",
"188 85 CURVE"
);
},
{
closed = 1;
nodes = (
"552 201 LINE",
"535 201 OFFCURVE",
"513 210 OFFCURVE",
"484 226 CURVE",
"507 237 OFFCURVE",
"532 244 OFFCURVE",
"549 244 CURVE",
"568 244 OFFCURVE",
"577 234 OFFCURVE",
"577 223 CURVE",
"577 212 OFFCURVE",
"568 201 OFFCURVE",
"552 201 CURVE"
);
},
{
closed = 1;
nodes = (
"384 307 LINE",
"349 307 OFFCURVE",
"331 326 OFFCURVE",
"331 361 CURVE",
"331 388 OFFCURVE",
"349 409 OFFCURVE",
"384 409 CURVE",
"419 409 OFFCURVE",
"438 388 OFFCURVE",
"438 361 CURVE",
"438 326 OFFCURVE",
"419 307 OFFCURVE",
"384 307 CURVE"
);
},
{
closed = 1;
nodes = (
"387 220 LINE",
"520 220 OFFCURVE",
"578 286 OFFCURVE",
"578 379 CURVE",
"578 480 OFFCURVE",
"509 549 OFFCURVE",
"387 549 CURVE",
"248 549 OFFCURVE",
"191 460 OFFCURVE",
"191 377 CURVE",
"191 294 OFFCURVE",
"247 220 OFFCURVE",
"387 220 CURVE"
);
}
);
width = 789;
},
{
anchors = (
{
name = bottom;
position = "{362, 93}";
},
{
name = bottom_ra;
position = "{496, 93}";
},
{
name = top;
position = "{302, 751}";
},
{
name = topright;
position = "{483, 751}";
}
);
associatedMasterId = "A6029D4D-1571-45DB-86AE-EDC9D2308E6F";
background = {
paths = (
{
closed = 1;
nodes = (
"609 256 LINE",
"625 290 OFFCURVE",
"636 341 OFFCURVE",
"636 387 CURVE SMOOTH",
"636 547 OFFCURVE",
"504 666 OFFCURVE",
"312 666 CURVE SMOOTH",
"121 666 OFFCURVE",
"16 548 OFFCURVE",
"16 435 CURVE SMOOTH",
"16 349 OFFCURVE",
"77 269 OFFCURVE",
"189 250 CURVE",
"234 335 LINE",
"188 352 OFFCURVE",
"166 384 OFFCURVE",
"166 418 CURVE SMOOTH",
"166 475 OFFCURVE",
"219 531 OFFCURVE",
"319 531 CURVE SMOOTH",
"419 531 OFFCURVE",
"486 476 OFFCURVE",
"486 384 CURVE SMOOTH",
"486 360 OFFCURVE",
"481 334 OFFCURVE",
"470 307 CURVE",
"447 345 LINE",
"659 296 LINE"
);
},
{
closed = 1;
nodes = (
"175 105 OFFCURVE",
"169 116 OFFCURVE",
"169 130 CURVE SMOOTH",
"169 144 OFFCURVE",
"175 154 OFFCURVE",
"190 154 CURVE SMOOTH",
"203 154 OFFCURVE",
"222 146 OFFCURVE",
"239 134 CURVE",
"217 115 OFFCURVE",
"200 105 OFFCURVE",
"188 105 CURVE SMOOTH"
);
},
{
closed = 1;
nodes = (
"227 -8 OFFCURVE",
"277 26 OFFCURVE",
"315 78 CURVE",
"365 15 OFFCURVE",
"415 -8 OFFCURVE",
"461 -8 CURVE SMOOTH",
"538 -8 OFFCURVE",
"576 55 OFFCURVE",
"576 121 CURVE SMOOTH",
"576 188 OFFCURVE",
"537 257 OFFCURVE",
"456 257 CURVE SMOOTH",
"416 257 OFFCURVE",
"375 237 OFFCURVE",
"316 188 CURVE",
"240 242 OFFCURVE",
"114 275 OFFCURVE",
"23 284 CURVE",
"15 161 LINE",
"56 168 OFFCURVE",
"132 170 OFFCURVE",
"172 168 CURVE",
"182 241 LINE",
"77 241 OFFCURVE",
"57 174 OFFCURVE",
"57 124 CURVE SMOOTH",
"57 55 OFFCURVE",
"94 -8 OFFCURVE",
"171 -8 CURVE SMOOTH"
);
},
{
closed = 1;
nodes = (
"431 105 OFFCURVE",
"414 115 OFFCURVE",
"392 134 CURVE",
"410 146 OFFCURVE",
"428 154 OFFCURVE",
"441 154 CURVE SMOOTH",
"456 154 OFFCURVE",
"463 143 OFFCURVE",
"463 130 CURVE SMOOTH",
"463 117 OFFCURVE",
"456 105 OFFCURVE",
"444 105 CURVE SMOOTH"
);
},
{
closed = 1;
nodes = (
"409 127 OFFCURVE",
"463 192 OFFCURVE",
"463 290 CURVE SMOOTH",
"463 386 OFFCURVE",
"411 456 OFFCURVE",
"318 456 CURVE SMOOTH",
"213 456 OFFCURVE",
"170 366 OFFCURVE",
"170 287 CURVE SMOOTH",
"170 200 OFFCURVE",
"223 127 OFFCURVE",
"319 127 CURVE SMOOTH"
);
},
{
closed = 1;
nodes = (
"290 236 OFFCURVE",
"276 254 OFFCURVE",
"276 281 CURVE SMOOTH",
"276 308 OFFCURVE",
"290 326 OFFCURVE",
"316 326 CURVE SMOOTH",
"343 326 OFFCURVE",
"357 308 OFFCURVE",
"357 281 CURVE SMOOTH",
"357 254 OFFCURVE",
"343 236 OFFCURVE",
"316 236 CURVE SMOOTH"
);
}
);
};
layerId = "8055E3EB-CCF9-4827-981C-0B6458DA729A";
name = "ExtraCondensed Black ]141]";
paths = (
{
closed = 1;
nodes = (
"177 341 LINE",
"222 422 LINE",
"184 439 OFFCURVE",
"156 471 OFFCURVE",
"156 524 CURVE",
"156 590 OFFCURVE",
"228 624 OFFCURVE",
"302 624 CURVE",
"388 624 OFFCURVE",
"461 586 OFFCURVE",
"461 508 CURVE",
"461 485.505 OFFCURVE",
"455.76 462.261 OFFCURVE",
"447.223 439.564 CURVE",
"587.752 390.624 LINE",
"604.83 430.803 OFFCURVE",
"613 475.98 OFFCURVE",
"613 504 CURVE",
"613 683 OFFCURVE",
"461 759 OFFCURVE",
"302 759 CURVE",
"101 759 OFFCURVE",
"16 654 OFFCURVE",
"16 537 CURVE",
"16 447 OFFCURVE",
"77 359 OFFCURVE",
"177 341 CURVE"
);
},
{
closed = 1;
nodes = (
"184 198 LINE",
"171 198 OFFCURVE",
"165 209 OFFCURVE",
"165 223 CURVE",
"165 237 OFFCURVE",
"171 247 OFFCURVE",
"186 247 CURVE",
"199 247 OFFCURVE",
"218 239 OFFCURVE",
"235 227 CURVE",
"213 208 OFFCURVE",
"196 198 OFFCURVE",
"184 198 CURVE"
);
},
{
closed = 1;
nodes = (
"159 85 LINE",
"215 85 OFFCURVE",
"253 119 OFFCURVE",
"292 171 CURVE",
"332 119 OFFCURVE",
"379 85 OFFCURVE",
"425 85 CURVE",
"502 85 OFFCURVE",
"539 148 OFFCURVE",
"539 214 CURVE",
"539 281 OFFCURVE",
"501 350 OFFCURVE",
"420 350 CURVE",
"380 350 OFFCURVE",
"354 330 OFFCURVE",
"295 281 CURVE",
"219 334 OFFCURVE",
"118 362 OFFCURVE",
"24 371 CURVE",
"17 265 LINE",
"65 266 OFFCURVE",
"112 264 OFFCURVE",
"160 261 CURVE",
"170 334 LINE",
"65 334 OFFCURVE",
"45 267 OFFCURVE",
"45 217 CURVE",
"45 148 OFFCURVE",
"82 85 OFFCURVE",
"159 85 CURVE"
);
},
{
closed = 1;
nodes = (
"400 198 LINE",
"387 198 OFFCURVE",
"370 208 OFFCURVE",
"348 227 CURVE",
"366 239 OFFCURVE",
"384 247 OFFCURVE",
"397 247 CURVE",
"412 247 OFFCURVE",
"419 236 OFFCURVE",
"419 223 CURVE",
"419 210 OFFCURVE",
"412 198 OFFCURVE",
"400 198 CURVE"
);
},
{
closed = 1;
nodes = (
"292 329 LINE",
"266 329 OFFCURVE",
"252 347 OFFCURVE",
"252 374 CURVE",
"252 401 OFFCURVE",
"266 419 OFFCURVE",
"292 419 CURVE",
"319 419 OFFCURVE",
"333 401 OFFCURVE",
"333 374 CURVE",
"333 347 OFFCURVE",
"319 329 OFFCURVE",
"292 329 CURVE"
);
},
{
closed = 1;
nodes = (
"295 220 LINE",
"374 220 OFFCURVE",
"439 285 OFFCURVE",
"439 383 CURVE",
"439 476 OFFCURVE",
"387 544 OFFCURVE",
"294 544 CURVE",
"189 544 OFFCURVE",
"146 457 OFFCURVE",
"146 380 CURVE",
"146 293 OFFCURVE",
"199 220 OFFCURVE",
"295 220 CURVE"
);
}
);
width = 629;
}
);
note = chaorya;
unicode = 0B1B;
},
